<?xml version="1.0" encoding="UTF-8" standalone="no"?>
<svg
   xmlns:dc="http://purl.org/dc/elements/1.1/"
   xmlns:cc="http://creativecommons.org/ns#"
   xmlns:rdf="http://www.w3.org/1999/02/22-rdf-syntax-ns#"
   xmlns:svg="http://www.w3.org/2000/svg"
   xmlns="http://www.w3.org/2000/svg"
   xmlns:sodipodi="http://sodipodi.sourceforge.net/DTD/sodipodi-0.dtd"
   xmlns:inkscape="http://www.inkscape.org/namespaces/inkscape"
   width="150.30975mm"
   height="114.70486mm"
   viewBox="0 0 150.30975 114.70486"
   version="1.1"
   id="svg9456"
   inkscape:version="1.0 (4035a4fb49, 2020-05-01)"
   sodipodi:docname="About-us.svg">
  <defs
     id="defs9450">
    <inkscape:path-effect
       effect="bspline"
       id="path-effect10067"
       is_visible="true"
       lpeversion="1"
       weight="33.333333"
       steps="2"
       helper_size="0"
       apply_no_weight="true"
       apply_with_weight="true"
       only_selected="false" />
    <inkscape:path-effect
       effect="bspline"
       id="path-effect10063"
       is_visible="true"
       lpeversion="1"
       weight="33.333333"
       steps="2"
       helper_size="0"
       apply_no_weight="true"
       apply_with_weight="true"
       only_selected="false" />
  </defs>
  <sodipodi:namedview
     id="base"
     pagecolor="#ffffff"
     bordercolor="#666666"
     borderopacity="1.0"
     inkscape:pageopacity="0.0"
     inkscape:pageshadow="2"
     inkscape:zoom="1"
     inkscape:cx="234.86186"
     inkscape:cy="210.17442"
     inkscape:document-units="mm"
     inkscape:current-layer="layer1"
     inkscape:document-rotation="0"
     showgrid="false"
     inkscape:snap-global="true"
     inkscape:snap-bbox="true"
     inkscape:bbox-paths="true"
     inkscape:bbox-nodes="true"
     inkscape:snap-bbox-edge-midpoints="true"
     inkscape:snap-bbox-midpoints="true"
     inkscape:object-paths="true"
     inkscape:snap-intersection-paths="true"
     inkscape:snap-smooth-nodes="true"
     inkscape:snap-midpoints="true"
     showguides="false"
     inkscape:window-width="1600"
     inkscape:window-height="877"
     inkscape:window-x="-8"
     inkscape:window-y="-8"
     inkscape:window-maximized="1" />
  <metadata
     id="metadata9453">
    <rdf:RDF>
      <cc:Work
         rdf:about="">
        <dc:format>image/svg+xml</dc:format>
        <dc:type
           rdf:resource="http://purl.org/dc/dcmitype/StillImage" />
        <dc:title />
      </cc:Work>
    </rdf:RDF>
  </metadata>
  <g
     inkscape:label="Layer 1"
     inkscape:groupmode="layer"
     id="layer1"
     transform="translate(35.539063,-36.069448)">
    <g
       id="g10531"
       transform="matrix(2.2862239,0,0,2.2862239,62.82046,-118.45089)">
      <g
         id="g10523">
        <path
           id="path10186"
           style="opacity:1;fill:#1877f2;fill-opacity:1;fill-rule:evenodd;stroke:none;stroke-width:0.442169;stroke-miterlimit:4;stroke-dasharray:none;stroke-opacity:1"
           d="m -24.789703,67.58759 c -5.041331,0 -9.127609,4.086805 -9.127609,9.128125 0,15.097414 10.795659,18.582147 15.783016,10.458792 -1.360836,-2.664832 -2.215885,-6.248468 -2.215885,-10.752314 0,-2.301352 0.757521,-4.426121 2.037085,-6.13761 -1.653628,-1.665253 -3.944375,-2.696993 -6.476607,-2.696993 z m 6.672977,21.206974 c -0.525849,0.861762 -1.117972,1.591464 -1.754415,2.193664 0.04773,-0.0072 0.09522,-0.01504 0.143144,-0.0217 0.44472,-0.09709 1.187988,-0.385558 1.669149,-1.270207 0.0257,-0.05269 0.05067,-0.112465 0.07596,-0.168982 a 1.8092122,11.090159 0 0 1 -0.133843,-0.732772 z m -13.344405,0.0026 a 1.8092122,11.090159 0 0 1 -0.684196,2.600358 1.8092122,11.090159 0 0 0 0.04237,-0.08165 10.479899,1.0051109 45.091758 0 0 4.700487,4.344956 c 0.701191,-0.989136 1.552543,-1.858552 2.519743,-2.577623 -2.431822,-0.03552 -4.854638,-1.462491 -6.578409,-4.286042 z m -0.806668,2.834969 a 1.8092122,11.090159 0 0 1 -0.02739,0.03824 1.8092122,11.090159 0 0 0 0.02739,-0.03824 z m -0.178284,0.231511 a 1.8092122,11.090159 0 0 1 -0.02325,0.01757 1.8092122,11.090159 0 0 0 0.02325,-0.01757 z m -0.194305,0.124539 a 1.8092122,11.090159 0 0 1 -0.02739,0.0057 1.8092122,11.090159 0 0 0 0.02739,-0.0057 z m -0.970481,0.06098 c -0.133432,0.0117 -0.26601,0.02599 -0.39791,0.04289 0.131789,-0.0171 0.2647,-0.03069 0.39791,-0.04289 z m -0.519867,0.05891 c -5.03424,0.706811 -8.891963,5.171659 -8.891963,10.611237 v 0.0966 4.2323 10.71149 h 10.291363 3.179133 v -10.12394 -1.73271 -3.44113 c 0,-0.93682 0.109421,-1.84634 0.313158,-2.717667 a 10.479902,2.6989087 45.102884 0 1 -4.891691,-7.636228 z" />
        <path
           id="rect817-9-5"
           style="opacity:1;fill:#1877f2;fill-opacity:1;fill-rule:evenodd;stroke:none;stroke-width:0.442169;stroke-miterlimit:4;stroke-dasharray:none;stroke-opacity:1"
           d="m 4.489651,67.587579 c -2.498835,0 -4.761721,1.00517 -6.409944,2.631879 1.309848,1.722805 2.088761,3.871507 2.088761,6.202722 0,4.563856 -0.879021,8.180668 -2.271696,10.855669 5.0145851,7.992732 15.721004,4.472157 15.721004,-10.562146 0,-5.04132 -4.0868049,-9.128124 -9.128125,-9.128124 z m 6.673495,21.206973 c -1.723895,2.825265 -4.147554,4.252986 -6.57996,4.288628 0.970318,0.721403 1.823988,1.594326 2.52646,2.587437 a 1.0051109,10.479899 44.908242 0 0 4.703072,-4.345987 1.8092122,11.090159 0 0 1 -0.649572,-2.530078 z m -13.344922,0.0026 a 1.8092122,11.090159 0 0 1 -0.133325,0.732255 c 0.025,0.05596 0.0494,0.114573 0.07493,0.166915 0.481171,0.884648 1.224444,1.173104 1.669148,1.270207 0.04737,0.0066 0.09438,0.01413 0.141594,0.02119 -0.6356679,-0.601557 -1.2270209,-1.330074 -1.7523479,-2.190562 z m 15.565458,3.258199 c 0.0779,0.008 0.15562,0.01612 0.233061,0.02532 -0.0775,-0.009 -0.155062,-0.01792 -0.233061,-0.02532 z m 0.466638,0.0553 A 2.6989087,10.479902 44.897116 0 1 8.9431261,99.7603 c 0.201316,0.86647 0.309542,1.77057 0.309542,2.70164 v 3.44114 1.73271 10.12393 h 3.1791339 10.291361 v -10.71149 -4.2323 -0.0966 c 0,-5.432519 -3.848183,-9.892991 -8.872843,-10.608639 z m -2.169376,8.131789 h 5.16e-4 c 0.25264,0 0.456303,0.18472 0.456303,0.41445 v 0.93741 c 0.27176,0.14329 0.455786,0.40837 0.455786,0.71572 v 0.88676 h 2.394169 c 0.34072,0 0.61495,0.27423 0.61495,0.61495 0,0.34071 -0.27423,0.61495 -0.61495,0.61495 h -2.847371 c -7.93e-4,5.3e-4 -0.0016,10e-4 -0.0026,0.002 v 2.4598 c 0,0.22974 -0.203663,0.41444 -0.456303,0.41444 -0.25264,0 -0.455786,-0.1847 -0.455786,-0.41444 v -2.4598 c -7.94e-4,-5.3e-4 -0.0021,-0.001 -0.0031,-0.002 h -0.453719 c -0.340721,0 -0.61495,-0.27424 -0.61495,-0.61495 0,-0.34072 0.274229,-0.61495 0.61495,-0.61495 v -0.88676 c 0,-0.30745 0.184413,-0.57247 0.456302,-0.71572 v -0.93741 c 0,-0.22973 0.203147,-0.41445 0.455787,-0.41445 z" />
        <path
           id="rect817-9-7"
           d="m -10.150023,67.587823 c -5.04133,0 -9.12761,4.0868 -9.12761,9.12812 0,19.631731 18.255731,19.631731 18.255731,0 0,-5.04132 -4.0868008,-9.12812 -9.128121,-9.12812 z m 6.6734902,21.20646 c -3.49131,5.72231 -9.8528902,5.722969 -13.3449202,0.003 a 1.8092122,11.090159 0 0 1 -0.6842,2.60036 1.8092122,11.090159 0 0 0 0.0424,-0.0816 10.479899,1.0051109 45.091758 0 0 7.32048,6.218229 h 0.006 a 1.0051109,10.479899 44.908242 0 0 7.3096302,-6.209449 1.8092122,11.090159 0 0 1 -0.64957,-2.53007 z m -14.1515902,2.83807 a 1.8092122,11.090159 0 0 1 -0.046,0.0636 1.8092122,11.090159 0 0 0 0.046,-0.0636 z m -0.17828,0.23151 a 1.8092122,11.090159 0 0 1 -0.0424,0.031 1.8092122,11.090159 0 0 0 0.0424,-0.031 z m -0.18346,0.12195 a 1.8092122,11.090159 0 0 1 -0.0382,0.008 1.8092122,11.090159 0 0 0 0.0382,-0.008 z m -0.98133,0.0636 c -0.13343,0.0117 -0.26601,0.026 -0.39791,0.0429 0.13179,-0.0171 0.2647,-0.0307 0.39791,-0.0429 z m 17.71519,0.006 c 0.0779,0.008 0.155631,0.0161 0.233072,0.0253 -0.0775,-0.009 -0.155073,-0.0179 -0.233072,-0.0253 z m -18.23506,0.0527 c -5.03424,0.70681 -8.89196,5.171659 -8.89196,10.611237 v 0.0966 4.2323 10.71149 h 10.29136 7.94164 l -2.76108,-2.76159 1.63556,-14.19396 -0.82785,-1.656227 a 0.27360473,2.3717202 44.907484 0 0 -1.36891,1.747177 10.479902,2.6989087 45.102884 0 1 -0.29249,-0.28836 10.479902,2.6989087 45.102884 0 1 -5.72627,-8.498697 z m 9.34104,25.651657 h 7.94215 10.29136 v -10.71149 -4.2323 -0.0966 c 0,-5.432528 -3.848179,-9.893007 -8.872839,-10.608657 a 2.6989087,10.479902 44.897116 0 1 -5.7262708,8.496117 2.6989087,10.479902 44.897116 0 1 -0.29249,0.28836 2.3717202,0.27360473 45.092516 0 0 -1.38131,-1.760098 l -0.83458,1.669148 1.63556,14.19396 z m 7.1918002,-17.51728 c 0.2526398,0 0.4563098,0.18472 0.4563098,0.41445 v 0.93741 c 0.27176,0.14329 0.45578,0.40837 0.45578,0.71572 v 0.88677 h 2.394169 c 0.34072,0 0.61495,0.27423 0.61495,0.61495 0,0.34071 -0.27423,0.61495 -0.61495,0.61495 h -2.847369 c -7.93e-4,5.3e-4 -0.002,0.001 -0.003,0.002 v 2.4598 c 0,0.22974 -0.20366,0.41445 -0.4562998,0.41445 -0.25264,0 -0.45579,-0.18471 -0.45579,-0.41445 v -2.4598 c -7.94e-4,-5.3e-4 -0.002,-0.001 -0.003,-0.002 h -0.45374 c -0.34072,0 -0.61495,-0.27424 -0.61495,-0.61495 0,-0.34072 0.27423,-0.61495 0.61495,-0.61495 v -0.88677 c 0,-0.30745 0.18441,-0.57247 0.4563,-0.71572 v -0.93741 c 0,-0.22973 0.20315,-0.41445 0.45579,-0.41445 z"
           style="opacity:1;fill:#1877f2;fill-opacity:1;fill-rule:evenodd;stroke:none;stroke-width:0.442169;stroke-miterlimit:4;stroke-dasharray:none;stroke-opacity:1" />
      </g>
    </g>
  </g>
</svg>
