<?xml version="1.0" encoding="UTF-8" standalone="no"?>
<svg
   xmlns:dc="http://purl.org/dc/elements/1.1/"
   xmlns:cc="http://creativecommons.org/ns#"
   xmlns:rdf="http://www.w3.org/1999/02/22-rdf-syntax-ns#"
   xmlns:svg="http://www.w3.org/2000/svg"
   xmlns="http://www.w3.org/2000/svg"
   xmlns:sodipodi="http://sodipodi.sourceforge.net/DTD/sodipodi-0.dtd"
   xmlns:inkscape="http://www.inkscape.org/namespaces/inkscape"
   sodipodi:docname="Admit-Card.svg"
   inkscape:version="1.0 (4035a4fb49, 2020-05-01)"
   id="svg8"
   version="1.1"
   viewBox="0 0 48.006372 29.666638"
   height="112.12589"
   width="181.44141">
  <defs
     id="defs2" />
  <sodipodi:namedview
     inkscape:document-rotation="0"
     inkscape:snap-midpoints="true"
     inkscape:snap-smooth-nodes="true"
     inkscape:snap-intersection-paths="true"
     inkscape:object-paths="true"
     inkscape:snap-global="true"
     inkscape:window-maximized="1"
     inkscape:window-y="-8"
     inkscape:window-x="-8"
     inkscape:window-height="877"
     inkscape:window-width="1600"
     units="px"
     fit-margin-bottom="0"
     fit-margin-right="0"
     fit-margin-left="0"
     fit-margin-top="0"
     inkscape:snap-bbox-midpoints="true"
     inkscape:snap-bbox-edge-midpoints="true"
     inkscape:bbox-nodes="true"
     inkscape:bbox-paths="true"
     inkscape:snap-bbox="true"
     showgrid="false"
     inkscape:current-layer="layer1"
     inkscape:document-units="px"
     inkscape:cy="38.856188"
     inkscape:cx="-5.0202008"
     inkscape:zoom="2"
     inkscape:pageshadow="2"
     inkscape:pageopacity="0.0"
     borderopacity="1.0"
     bordercolor="#666666"
     pagecolor="#ffffff"
     id="base" />
  <metadata
     id="metadata5">
    <rdf:RDF>
      <cc:Work
         rdf:about="">
        <dc:format>image/svg+xml</dc:format>
        <dc:type
           rdf:resource="http://purl.org/dc/dcmitype/StillImage" />
        <dc:title />
      </cc:Work>
    </rdf:RDF>
  </metadata>
  <g
     transform="translate(-158.57881,-151.14711)"
     id="layer1"
     inkscape:groupmode="layer"
     inkscape:label="Layer 1">
    <path
       inkscape:connector-curvature="0"
       id="rect845"
       d="m 162.99319,151.14711 c -2.44554,0 -4.41438,1.96886 -4.41438,4.41438 v 20.83788 c 0,2.44554 1.96884,4.41438 4.41438,4.41438 h 39.1776 c 2.44555,0 4.41439,-1.96884 4.41439,-4.41438 v -20.83788 c 0,-2.44552 -1.96884,-4.41438 -4.41439,-4.41438 z m 7.76027,5.11667 c 1.95231,0 3.53651,1.5842 3.53651,3.53652 0,7.6027 -7.07303,7.6027 -7.07303,0 0,-1.95232 1.5842,-3.53652 3.53652,-3.53652 z m 14.11597,0 h 14.65273 c 1.07669,0 1.94634,0.86464 1.94634,1.94132 0,1.07669 -0.86965,1.94634 -1.94634,1.94634 h -14.65273 c -1.07669,0 -1.94132,-0.86965 -1.94132,-1.94634 0,-1.07668 0.86463,-1.94132 1.94132,-1.94132 z m 0,7.77533 h 14.65273 c 1.07669,0 1.94634,0.86464 1.94634,1.94132 0,1.07669 -0.86965,1.94132 -1.94634,1.94132 h -14.65273 c -1.07669,0 -1.94132,-0.86463 -1.94132,-1.94132 0,-1.07668 0.86463,-1.94132 1.94132,-1.94132 z m -16.69939,0.43642 c 1.35231,2.21537 3.81481,2.21604 5.16683,0 l 0.005,0.005 a 0.70064359,4.2948244 0 0 0 0.25081,0.97818 0.38924379,4.0584922 44.908242 0 1 -2.82921,2.40283 h -0.005 a 4.0584922,0.38924379 45.091758 0 1 -2.83423,-2.40784 0.70064359,4.2948244 0 0 1 -0.0201,0.0301 0.70064359,4.2948244 0 0 0 0.26587,-1.00828 z m -1.02835,1.28418 v 0.005 a 4.0584936,1.0451914 45.102884 0 0 2.21722,3.29072 4.0584936,1.0451914 45.102884 0 0 0.11036,0.11036 0.1059574,0.91848295 44.907484 0 1 0.53173,-0.67721 l 0.32105,0.6421 -0.63206,5.4979 1.06848,1.06849 1.06848,-1.0735 -0.63206,-5.49289 0.32105,-0.64711 a 0.91848295,0.1059574 45.092516 0 1 0.53675,0.68222 1.0451914,4.0584936 44.897116 0 0 0.11036,-0.11537 1.0451914,4.0584936 44.897116 0 0 2.21722,-3.29072 c 1.94591,0.27713 3.43619,2.00448 3.43619,4.10838 v 0.0402 1.64034 4.14851 h -3.98297 -3.07502 -3.07501 -3.98798 v -4.14851 -1.64034 -0.0351 c 0,-2.10658 1.49672,-3.83967 3.44621,-4.1134 z m 6.40085,3.15026 c -0.099,0 -0.17557,0.0732 -0.17557,0.16053 v 0.36619 c -0.10872,0.0563 -0.17557,0.15641 -0.17557,0.2759 v 0.34612 c -0.13202,0 -0.24079,0.10377 -0.24079,0.23578 0,0.13099 0.10877,0.23578 0.24079,0.23578 h 0.17557 v 0.005 0.94809 c 0,0.0922 0.0775,0.16052 0.17557,0.16052 0.099,0 0.17557,-0.0732 0.17557,-0.16052 v -0.94809 -0.005 h 1.1036 c 0.13201,0 0.24078,-0.10377 0.24078,-0.23578 0,-0.13201 -0.10877,-0.23578 -0.24078,-0.23578 h -0.92803 v -0.34612 c 0,-0.11943 -0.0697,-0.21754 -0.17557,-0.2759 v -0.36619 c 0,-0.0922 -0.0775,-0.16053 -0.17557,-0.16053 z m 11.32689,2.89945 h 14.65273 c 1.07669,0 1.94634,0.86965 1.94634,1.94634 0,1.07668 -0.86965,1.94132 -1.94634,1.94132 h -14.65273 c -1.07669,0 -1.94132,-0.86464 -1.94132,-1.94132 0,-1.07669 0.86463,-1.94634 1.94132,-1.94634 z"
       style="opacity:1;fill:#fff;fill-opacity:1;fill-rule:evenodd;stroke:none;stroke-width:0.232715;stroke-miterlimit:4;stroke-dasharray:none;stroke-opacity:1" />
  </g>
</svg>
