<?xml version="1.0" encoding="UTF-8" standalone="no"?>
<svg
   xmlns:dc="http://purl.org/dc/elements/1.1/"
   xmlns:cc="http://creativecommons.org/ns#"
   xmlns:rdf="http://www.w3.org/1999/02/22-rdf-syntax-ns#"
   xmlns:svg="http://www.w3.org/2000/svg"
   xmlns="http://www.w3.org/2000/svg"
   xmlns:sodipodi="http://sodipodi.sourceforge.net/DTD/sodipodi-0.dtd"
   xmlns:inkscape="http://www.inkscape.org/namespaces/inkscape"
   sodipodi:docname="Appleyego-logo.svg"
   inkscape:version="1.0 (4035a4fb49, 2020-05-01)"
   id="svg8"
   version="1.1"
   viewBox="0 0 85.151597 14.287491"
   height="53.999966"
   width="321.83282">
  <defs
     id="defs2" />
  <sodipodi:namedview
     inkscape:window-maximized="1"
     inkscape:window-y="-8"
     inkscape:window-x="-8"
     inkscape:window-height="877"
     inkscape:window-width="1600"
     inkscape:snap-global="true"
     inkscape:snap-midpoints="true"
     inkscape:snap-smooth-nodes="true"
     inkscape:snap-intersection-paths="true"
     inkscape:object-paths="true"
     inkscape:snap-bbox-midpoints="true"
     inkscape:snap-bbox-edge-midpoints="true"
     inkscape:bbox-nodes="true"
     inkscape:bbox-paths="true"
     inkscape:snap-bbox="true"
     showgrid="false"
     inkscape:document-rotation="0"
     inkscape:current-layer="layer1"
     inkscape:document-units="px"
     inkscape:cy="-7.8518495"
     inkscape:cx="169.47122"
     inkscape:zoom="4"
     inkscape:pageshadow="2"
     inkscape:pageopacity="0.0"
     borderopacity="1.0"
     bordercolor="#666666"
     pagecolor="#ffffff"
     id="base"
     units="px" />
  <metadata
     id="metadata5">
    <rdf:RDF>
      <cc:Work
         rdf:about="">
        <dc:format>image/svg+xml</dc:format>
        <dc:type
           rdf:resource="http://purl.org/dc/dcmitype/StillImage" />
        <dc:title />
      </cc:Work>
    </rdf:RDF>
  </metadata>
  <g
     transform="translate(-133.23453,-63.935532)"
     id="layer1"
     inkscape:groupmode="layer"
     inkscape:label="Layer 1">
    <g
       id="g1076"
       transform="matrix(0.90568914,0,0,0.90568914,70.26535,-75.673089)">
      <path
         id="path918"
         style="fill:#fff;fill-opacity:1;fill-rule:nonzero;stroke:none;stroke-width:0.0999998;stroke-miterlimit:4;stroke-dasharray:none;stroke-opacity:1"
         d="m 77.413635,154.14629 a 7.8874759,7.8875246 0 0 0 -7.887372,7.88738 7.8874759,7.8875246 0 0 0 7.887372,7.88789 7.8874759,7.8875246 0 0 0 7.887375,-7.88789 7.8874759,7.8875246 0 0 0 -7.887375,-7.88738 z m -0.445965,0.51574 a 1.3461913,0.76903407 16.932251 0 1 0.644921,0.0982 1.3461913,0.76903407 16.932251 0 1 1.064017,1.12758 1.3461913,0.76903407 16.932251 0 1 -0.0067,0.0165 l 0.0016,5.1e-4 -0.311611,1.0232 -2.575552,-0.78394 0.311608,-1.02371 0.001,5.2e-4 a 1.3461913,0.76903407 16.932251 0 1 0.0036,-0.0171 1.3461913,0.76903407 16.932251 0 1 0.867133,-0.44183 z m -1.251088,1.72392 2.569353,0.78445 -2.384351,7.81141 -2.569353,-0.78445 z m 2.861323,0.78445 3.509346,9.33741 h -3.022552 l -0.459404,-1.54306 H 76.19924 l 0.617017,-2.02158 h 1.183391 l -0.593765,-1.93218 z m -5.319572,7.26932 2.576071,0.78445 -1.566312,2.23862 -0.957049,-0.29145 z m 0.05736,2.96985 0.815969,0.24856 -0.789098,1.12861 z" />
      <g
         aria-label="PPLEYEGO"
         transform="scale(1.000013,0.99998701)"
         id="text1045"
         style="font-style:normal;font-weight:normal;font-size:13.0403px;line-height:1.25;font-family:sans-serif;opacity:1;fill:#fff;fill-opacity:1;stroke:none;stroke-width:0.326013">
        <path
           d="m 86.803594,157.36877 h 4.794603 q 1.566364,0 2.343179,0.74497 0.783182,0.74498 0.783182,2.12033 0,1.41354 -0.853223,2.20946 -0.846855,0.79592 -2.591505,0.79592 h -1.579099 v 3.46383 h -2.897137 z m 2.897137,3.97958 h 0.706775 q 0.83412,0 1.171589,-0.28653 0.337469,-0.2929 0.337469,-0.74498 0,-0.43934 -0.292898,-0.74498 -0.292897,-0.30563 -1.101548,-0.30563 h -0.821387 z"
           style="font-style:normal;font-variant:normal;font-weight:900;font-stretch:normal;font-size:13.0403px;font-family:Arial;-inkscape-font-specification:'Arial, Heavy';font-variant-ligatures:normal;font-variant-caps:normal;font-variant-numeric:normal;font-variant-east-asian:normal;fill:#fff;fill-opacity:1;stroke-width:0.326013"
           id="path1049" />
        <path
           d="m 96.227249,157.36877 h 4.794601 q 1.56637,0 2.34318,0.74497 0.78318,0.74498 0.78318,2.12033 0,1.41354 -0.85322,2.20946 -0.84686,0.79592 -2.59151,0.79592 h -1.579094 v 3.46383 h -2.897137 z m 2.897137,3.97958 h 0.706774 q 0.83412,0 1.17159,-0.28653 0.33747,-0.2929 0.33747,-0.74498 0,-0.43934 -0.2929,-0.74498 -0.2929,-0.30563 -1.101548,-0.30563 h -0.821386 z"
           style="font-style:normal;font-variant:normal;font-weight:900;font-stretch:normal;font-size:13.0403px;font-family:Arial;-inkscape-font-specification:'Arial, Heavy';font-variant-ligatures:normal;font-variant-caps:normal;font-variant-numeric:normal;font-variant-east-asian:normal;fill:#fff;fill-opacity:1;stroke-width:0.326013"
           id="path1051" />
        <path
           d="m 105.66364,157.36877 h 2.8844 v 7.0359 h 4.50171 v 2.29861 h -7.38611 z"
           style="font-style:normal;font-variant:normal;font-weight:900;font-stretch:normal;font-size:13.0403px;font-family:Arial;-inkscape-font-specification:'Arial, Heavy';font-variant-ligatures:normal;font-variant-caps:normal;font-variant-numeric:normal;font-variant-east-asian:normal;fill:#fff;fill-opacity:1;stroke-width:0.326013"
           id="path1053" />
        <path
           d="m 114.36778,157.36877 h 7.72995 v 1.99297 h -4.83918 v 1.48359 h 4.48898 v 1.90383 h -4.48898 v 1.84016 h 4.97926 v 2.11396 h -7.87003 z"
           style="font-style:normal;font-variant:normal;font-weight:900;font-stretch:normal;font-size:13.0403px;font-family:Arial;-inkscape-font-specification:'Arial, Heavy';font-variant-ligatures:normal;font-variant-caps:normal;font-variant-numeric:normal;font-variant-east-asian:normal;fill:#fff;fill-opacity:1;stroke-width:0.326013"
           id="path1055" />
        <path
           d="m 122.85544,157.36877 h 3.20277 l 1.88473,3.15183 1.88473,-3.15183 h 3.18367 l -3.62938,5.42496 v 3.90955 h -2.89077 v -3.90955 z"
           style="font-style:normal;font-variant:normal;font-weight:900;font-stretch:normal;font-size:13.0403px;font-family:Arial;-inkscape-font-specification:'Arial, Heavy';font-variant-ligatures:normal;font-variant-caps:normal;font-variant-numeric:normal;font-variant-east-asian:normal;fill:#fff;fill-opacity:1;stroke-width:0.326013"
           id="path1057" />
        <path
           d="m 133.92823,157.36877 h 7.72995 v 1.99297 H 136.819 v 1.48359 h 4.48897 v 1.90383 H 136.819 v 1.84016 h 4.97926 v 2.11396 h -7.87003 z"
           style="font-style:normal;font-variant:normal;font-weight:900;font-stretch:normal;font-size:13.0403px;font-family:Arial;-inkscape-font-specification:'Arial, Heavy';font-variant-ligatures:normal;font-variant-caps:normal;font-variant-numeric:normal;font-variant-east-asian:normal;fill:#fff;fill-opacity:1;stroke-width:0.326013"
           id="path1059" />
        <path
           d="m 148.05098,163.32222 v -1.94203 h 4.45714 v 3.97958 q -1.27984,0.87232 -2.26678,1.19069 -0.98056,0.312 -2.33044,0.312 -1.66187,0 -2.71248,-0.56669 -1.04425,-0.56669 -1.62367,-1.68735 -0.57306,-1.12065 -0.57306,-2.5724 0,-1.52816 0.63036,-2.65518 0.63037,-1.13338 1.84653,-1.71918 0.94873,-0.45208 2.5533,-0.45208 1.54726,0 2.31134,0.28017 0.77045,0.28016 1.27347,0.87232 0.50939,0.58579 0.76408,1.48996 l -2.78253,0.49665 q -0.17191,-0.52849 -0.58579,-0.80865 -0.40751,-0.28017 -1.04424,-0.28017 -0.94874,0 -1.51543,0.66221 -0.56032,0.65583 -0.56032,2.08211 0,1.51543 0.56669,2.1649 0.57306,0.64947 1.59183,0.64947 0.48392,0 0.92327,-0.14008 0.43934,-0.14009 1.00603,-0.47755 v -0.8787 z"
           style="font-style:normal;font-variant:normal;font-weight:900;font-stretch:normal;font-size:13.0403px;font-family:Arial;-inkscape-font-specification:'Arial, Heavy';font-variant-ligatures:normal;font-variant-caps:normal;font-variant-numeric:normal;font-variant-east-asian:normal;fill:#fff;fill-opacity:1;stroke-width:0.326013"
           id="path1061" />
        <path
           d="m 153.87073,162.04239 q 0,-2.28587 1.27346,-3.55934 1.27347,-1.27347 3.54661,-1.27347 2.33044,0 3.59117,1.25437 1.26074,1.24799 1.26074,3.50203 0,1.63641 -0.55396,2.68702 -0.54759,1.04424 -1.59183,1.63003 -1.03788,0.57943 -2.59151,0.57943 -1.5791,0 -2.61697,-0.50302 -1.03151,-0.50302 -1.67461,-1.59183 -0.6431,-1.08882 -0.6431,-2.72522 z m 2.8844,0.0127 q 0,1.41355 0.52212,2.03118 0.52849,0.61763 1.43265,0.61763 0.92963,0 1.43902,-0.60489 0.50938,-0.6049 0.50938,-2.17126 0,-1.31804 -0.53485,-1.92294 -0.52849,-0.61126 -1.43902,-0.61126 -0.87232,0 -1.40081,0.61763 -0.52849,0.61763 -0.52849,2.04391 z"
           style="font-style:normal;font-variant:normal;font-weight:900;font-stretch:normal;font-size:13.0403px;font-family:Arial;-inkscape-font-specification:'Arial, Heavy';font-variant-ligatures:normal;font-variant-caps:normal;font-variant-numeric:normal;font-variant-east-asian:normal;fill:#fff;fill-opacity:1;stroke-width:0.326013"
           id="path1063" />
      </g>
    </g>
  </g>
</svg>
