<?xml version="1.0" encoding="UTF-8" standalone="no"?>
<svg
   xmlns:dc="http://purl.org/dc/elements/1.1/"
   xmlns:cc="http://creativecommons.org/ns#"
   xmlns:rdf="http://www.w3.org/1999/02/22-rdf-syntax-ns#"
   xmlns:svg="http://www.w3.org/2000/svg"
   xmlns="http://www.w3.org/2000/svg"
   xmlns:sodipodi="http://sodipodi.sourceforge.net/DTD/sodipodi-0.dtd"
   xmlns:inkscape="http://www.inkscape.org/namespaces/inkscape"
   sodipodi:docname="Avatar.svg"
   inkscape:version="1.0 (4035a4fb49, 2020-05-01)"
   id="svg8"
   version="1.1"
   viewBox="0 0 50.172143 50.172142"
   height="189.627"
   width="189.627">
  <defs
     id="defs2" />
  <sodipodi:namedview
     inkscape:document-rotation="0"
     inkscape:snap-midpoints="true"
     inkscape:snap-smooth-nodes="true"
     inkscape:snap-intersection-paths="true"
     inkscape:object-paths="true"
     inkscape:snap-global="true"
     inkscape:window-maximized="1"
     inkscape:window-y="-8"
     inkscape:window-x="-8"
     inkscape:window-height="877"
     inkscape:window-width="1600"
     units="px"
     fit-margin-bottom="0"
     fit-margin-right="0"
     fit-margin-left="0"
     fit-margin-top="0"
     inkscape:snap-bbox-midpoints="true"
     inkscape:snap-bbox-edge-midpoints="true"
     inkscape:bbox-nodes="true"
     inkscape:bbox-paths="true"
     inkscape:snap-bbox="true"
     showgrid="false"
     inkscape:current-layer="layer1"
     inkscape:document-units="px"
     inkscape:cy="105.86528"
     inkscape:cx="46.692353"
     inkscape:zoom="2.8284271"
     inkscape:pageshadow="2"
     inkscape:pageopacity="0.0"
     borderopacity="1.0"
     bordercolor="#666666"
     pagecolor="#ffffff"
     id="base" />
  <metadata
     id="metadata5">
    <rdf:RDF>
      <cc:Work
         rdf:about="">
        <dc:format>image/svg+xml</dc:format>
        <dc:type
           rdf:resource="http://purl.org/dc/dcmitype/StillImage" />
        <dc:title></dc:title>
      </cc:Work>
    </rdf:RDF>
  </metadata>
  <g
     transform="translate(-165.88728,-150.19444)"
     id="layer1"
     inkscape:groupmode="layer"
     inkscape:label="Layer 1">
    <path
       style="fill:#3f51b5;fill-opacity:1;fill-rule:evenodd;stroke:none;stroke-width:0.442169;stroke-miterlimit:4;stroke-dasharray:none;stroke-opacity:1"
       d="m 190.9731,150.19454 c -5.04133,0 -9.12761,4.0868 -9.12761,9.12812 0,19.63173 18.25573,19.63173 18.25573,0 0,-5.04132 -4.0868,-9.12812 -9.12812,-9.12812 z m 6.67349,21.20646 c -3.49131,5.72231 -9.85289,5.72297 -13.34492,0.003 a 1.8092122,11.090159 0 0 1 -0.6842,2.60036 1.8092122,11.090159 0 0 0 0.0424,-0.0816 10.479899,1.0051109 45.091758 0 0 7.32048,6.21823 h 0.006 a 1.0051109,10.479899 44.908242 0 0 7.30963,-6.20945 1.8092122,11.090159 0 0 1 -0.64957,-2.53007 z m -14.15159,2.83807 a 1.8092122,11.090159 0 0 1 -0.046,0.0636 1.8092122,11.090159 0 0 0 0.046,-0.0636 z m -0.17828,0.23151 a 1.8092122,11.090159 0 0 1 -0.0424,0.031 1.8092122,11.090159 0 0 0 0.0424,-0.031 z m -0.18346,0.12195 a 1.8092122,11.090159 0 0 1 -0.0382,0.008 1.8092122,11.090159 0 0 0 0.0382,-0.008 z m -0.98133,0.0636 c -0.13343,0.0117 -0.26601,0.026 -0.39791,0.0429 0.13179,-0.0171 0.2647,-0.0307 0.39791,-0.0429 z m 17.71519,0.006 c 0.0779,0.008 0.15563,0.0161 0.23307,0.0253 -0.0775,-0.009 -0.15507,-0.0179 -0.23307,-0.0253 z m -18.23506,0.0527 c -5.03424,0.70681 -8.89196,5.17166 -8.89196,10.61124 v 0.0966 4.2323 10.71149 h 10.29136 7.94164 l -2.76108,-2.76159 1.63556,-14.19396 -0.82785,-1.65623 a 0.27360472,2.3717202 44.907484 0 0 -1.36891,1.74718 10.479902,2.6989087 45.102884 0 1 -0.29249,-0.28836 10.479902,2.6989087 45.102884 0 1 -5.72627,-8.4987 z m 9.34104,25.65166 h 7.94215 10.29136 v -10.71149 -4.2323 -0.0966 c 0,-5.43253 -3.84818,-9.89301 -8.87284,-10.60866 a 2.6989087,10.479902 44.897116 0 1 -5.72627,8.49612 2.6989087,10.479902 44.897116 0 1 -0.29249,0.28836 2.3717202,0.27360472 45.092516 0 0 -1.38131,-1.7601 l -0.83458,1.66915 1.63556,14.19396 z m 7.1918,-17.51728 c 0.25264,0 0.45631,0.18472 0.45631,0.41445 v 0.93741 c 0.27176,0.14329 0.45578,0.40837 0.45578,0.71572 v 0.88677 h 2.39417 c 0.34072,0 0.61495,0.27423 0.61495,0.61495 0,0.34071 -0.27423,0.61495 -0.61495,0.61495 h -2.84737 c -9e-4,5.2e-4 -0.002,0.001 -0.003,0.002 v 2.4598 c 0,0.22974 -0.20366,0.41445 -0.4563,0.41445 -0.25264,0 -0.45579,-0.18471 -0.45579,-0.41445 v -2.4598 c -9e-4,-5.3e-4 -0.002,-0.001 -0.003,-0.002 h -0.45372 c -0.34072,0 -0.61495,-0.27424 -0.61495,-0.61495 0,-0.34072 0.27423,-0.61495 0.61495,-0.61495 v -0.88677 c 0,-0.30745 0.18441,-0.57247 0.4563,-0.71572 v -0.93741 c 0,-0.22973 0.20315,-0.41445 0.45579,-0.41445 z"
       id="rect817" />
  </g>
</svg>
