<?xml version="1.0" encoding="UTF-8" standalone="no"?>
<!-- Created with Inkscape (http://www.inkscape.org/) -->

<svg
   width="108.12053mm"
   height="136.98389mm"
   viewBox="0 0 108.12053 136.98389"
   version="1.1"
   id="svg5"
   sodipodi:docname="bulb.svg"
   inkscape:version="1.1 (c68e22c387, 2021-05-23)"
   xmlns:inkscape="http://www.inkscape.org/namespaces/inkscape"
   xmlns:sodipodi="http://sodipodi.sourceforge.net/DTD/sodipodi-0.dtd"
   xmlns="http://www.w3.org/2000/svg"
   xmlns:svg="http://www.w3.org/2000/svg">
  <sodipodi:namedview
     id="namedview7"
     pagecolor="#ffffff"
     bordercolor="#666666"
     borderopacity="1.0"
     inkscape:pageshadow="2"
     inkscape:pageopacity="0.0"
     inkscape:pagecheckerboard="0"
     inkscape:document-units="mm"
     showgrid="false"
     inkscape:snap-bbox="true"
     inkscape:bbox-paths="true"
     inkscape:bbox-nodes="true"
     inkscape:snap-bbox-edge-midpoints="true"
     inkscape:snap-bbox-midpoints="true"
     inkscape:object-paths="true"
     inkscape:snap-intersection-paths="true"
     inkscape:snap-smooth-nodes="true"
     inkscape:snap-midpoints="true"
     inkscape:zoom="0.70710678"
     inkscape:cx="388.20162"
     inkscape:cy="249.60869"
     inkscape:window-width="1600"
     inkscape:window-height="877"
     inkscape:window-x="-8"
     inkscape:window-y="-8"
     inkscape:window-maximized="1"
     inkscape:current-layer="layer1"
     inkscape:snap-global="true" />
  <defs
     id="defs2">
    <inkscape:path-effect
       effect="fillet_chamfer"
       id="path-effect15771"
       is_visible="true"
       lpeversion="1"
       satellites_param="F,0,0,1,0,0,0,1 @ F,0,0,1,0,0,0,1 @ F,0,0,1,0,11.963266,0,1 @ F,0,0,1,0,0,0,1 @ F,0,0,1,0,0,0,1"
       unit="px"
       method="auto"
       mode="F"
       radius="0"
       chamfer_steps="1"
       flexible="false"
       use_knot_distance="true"
       apply_no_radius="true"
       apply_with_radius="true"
       only_selected="false"
       hide_knots="false" />
    <inkscape:path-effect
       effect="fillet_chamfer"
       id="path-effect15006"
       is_visible="true"
       lpeversion="1"
       satellites_param="F,0,0,1,0,0,0,1 @ F,0,0,1,0,0,0,1 @ F,0,0,1,0,0,0,1 @ F,0,0,1,0,0,0,1 @ F,0,0,1,0,0,0,1 @ F,0,0,1,0,0,0,1 @ F,0,0,1,0,0,0,1 @ F,0,0,1,0,0,0,1 @ F,0,0,1,0,0,0,1 @ F,0,0,1,0,0,0,1 @ F,0,0,1,0,0,0,1 @ F,0,0,1,0,0,0,1 @ F,0,0,1,0,0,0,1 @ F,0,0,1,0,0,0,1 @ F,0,0,1,0,0,0,1 @ F,0,0,1,0,0,0,1 @ F,0,0,1,0,0,0,1 @ F,0,0,1,0,0,0,1 @ F,0,0,1,0,0,0,1 @ F,0,0,1,0,0,0,1 @ F,0,0,1,0,0,0,1 @ F,0,0,1,0,0,0,1 @ F,0,0,1,0,0,0,1 @ F,0,0,1,0,0,0,1 @ F,0,0,1,0,0,0,1 @ F,0,0,1,0,3.5949079,0,1 @ F,0,0,1,0,0,0,1 @ F,0,0,1,0,0,0,1 @ F,0,0,1,0,0,0,1 @ F,0,0,1,0,0,0,1 @ F,0,0,1,0,0,0,1 @ F,0,0,1,0,0,0,1 @ F,0,0,1,0,0,0,1 @ F,0,0,1,0,0,0,1 @ F,0,0,1,0,0,0,1 @ F,0,0,1,0,0,0,1 @ F,0,0,1,0,0,0,1 @ F,0,0,1,0,0,0,1 @ F,0,0,1,0,0,0,1 @ F,0,0,1,0,0,0,1 @ F,0,0,1,0,0,0,1 @ F,0,0,1,0,0,0,1 @ F,0,0,1,0,0,0,1 @ F,0,0,1,0,3.5949125,0,1 @ F,0,0,1,0,0,0,1 @ F,0,0,1,0,0,0,1 @ F,0,0,1,0,0,0,1 @ F,0,0,1,0,0,0,1 @ F,0,0,1,0,0,0,1 @ F,0,0,1,0,0,0,1 @ F,0,0,1,0,0,0,1 @ F,0,0,1,0,0,0,1 @ F,0,0,1,0,0,0,1 @ F,0,0,1,0,0,0,1 @ F,0,0,1,0,0,0,1 @ F,0,0,1,0,0,0,1 @ F,0,0,1,0,0,0,1 @ F,0,0,1,0,0,0,1 @ F,0,0,1,0,0,0,1 @ F,0,0,1,0,0,0,1 @ F,0,0,1,0,0,0,1 @ F,0,0,1,0,0,0,1 | F,0,0,1,0,0,0,1 @ F,0,0,1,0,0,0,1 @ F,0,0,1,0,0,0,1 @ F,0,0,1,0,0,0,1 @ F,0,0,1,0,0,0,1 @ F,0,0,1,0,10.875779,0,1 @ F,0,0,1,0,0,0,1 @ F,0,0,1,0,0,0,1 @ F,0,0,1,0,0,0,1"
       unit="px"
       method="auto"
       mode="F"
       radius="0"
       chamfer_steps="1"
       flexible="false"
       use_knot_distance="true"
       apply_no_radius="true"
       apply_with_radius="true"
       only_selected="false"
       hide_knots="false" />
    <inkscape:path-effect
       effect="fillet_chamfer"
       id="path-effect13891"
       is_visible="true"
       lpeversion="1"
       satellites_param="F,0,0,1,0,0,0,1 @ F,0,0,1,0,0,0,1 @ F,0,0,1,0,3.0052038,0,1 @ F,0,0,1,0,0,0,1 @ F,0,0,1,0,0,0,1 @ F,0,0,1,0,0,0,1 @ F,0,0,1,0,4,0,1 @ F,0,0,1,0,4.4049707,0,1 @ F,0,0,1,0,0,0,1 @ F,0,0,1,0,0,0,1 @ F,0,0,1,0,0,0,1 @ F,0,0,1,0,5.3033009,0,1 @ F,0,0,1,0,3.5949079,0,1 @ F,0,0,1,0,0,0,1 @ F,0,0,1,0,0,0,1 @ F,0,0,1,0,0,0,1 @ F,0,0,1,0,0,0,1 @ F,0,0,1,0,0,0,1 @ F,0,0,1,0,0,0,1 @ F,0,0,1,0,0,0,1 @ F,0,0,1,0,0,0,1 @ F,0,0,1,0,0,0,1 @ F,0,0,1,0,0,0,1 @ F,0,0,1,0,0,0,1 @ F,0,0,1,0,0,0,1 @ F,0,0,1,0,4.741227,0,1 @ F,0,0,1,0,3.5355339,0,1 @ F,0,0,1,0,0,0,1 @ F,0,0,1,0,0,0,1 @ F,0,0,1,0,0,0,1 @ F,0,0,1,0,3.1819805,0,1 @ F,0,0,1,0,0,0,1"
       unit="px"
       method="auto"
       mode="F"
       radius="0"
       chamfer_steps="1"
       flexible="false"
       use_knot_distance="true"
       apply_no_radius="true"
       apply_with_radius="true"
       only_selected="false"
       hide_knots="false" />
    <inkscape:path-effect
       effect="fillet_chamfer"
       id="path-effect8443"
       is_visible="true"
       lpeversion="1"
       satellites_param="F,0,0,1,0,0,0,1 @ F,0,0,1,0,0,0,1 @ F,0,0,1,0,9.6834674,0,1 @ F,0,0,1,0,0,0,1 @ F,0,0,1,0,0,0,1 @ F,0,0,1,0,0,0,1 @ F,0,0,1,0,0,0,1"
       unit="px"
       method="auto"
       mode="F"
       radius="0"
       chamfer_steps="1"
       flexible="false"
       use_knot_distance="true"
       apply_no_radius="true"
       apply_with_radius="true"
       only_selected="false"
       hide_knots="false" />
    <inkscape:path-effect
       effect="fillet_chamfer"
       id="path-effect5902"
       is_visible="true"
       lpeversion="1"
       satellites_param="F,0,0,1,0,0,0,1 @ F,0,0,1,0,0,0,1 @ F,0,0,1,0,32.795449,0,1 @ F,0,1,1,0,32.795449,0,1"
       unit="px"
       method="auto"
       mode="F"
       radius="0"
       chamfer_steps="1"
       flexible="false"
       use_knot_distance="true"
       apply_no_radius="true"
       apply_with_radius="true"
       only_selected="false"
       hide_knots="false" />
    <inkscape:path-effect
       effect="fillet_chamfer"
       id="path-effect5816"
       is_visible="true"
       lpeversion="1"
       satellites_param="F,0,0,1,0,0,0,1 @ F,0,0,1,0,0,0,1 @ F,0,0,1,0,32.795449,0,1 @ F,0,1,1,0,32.795449,0,1"
       unit="px"
       method="auto"
       mode="F"
       radius="0"
       chamfer_steps="1"
       flexible="false"
       use_knot_distance="true"
       apply_no_radius="true"
       apply_with_radius="true"
       only_selected="false"
       hide_knots="false" />
    <inkscape:path-effect
       effect="fillet_chamfer"
       id="path-effect5460"
       is_visible="true"
       lpeversion="1"
       satellites_param="F,0,0,1,0,0,0,1 @ F,0,0,1,0,0,0,1 @ F,0,0,1,0,32.795449,0,1 @ F,0,1,1,0,32.795449,0,1"
       unit="px"
       method="auto"
       mode="F"
       radius="0"
       chamfer_steps="1"
       flexible="false"
       use_knot_distance="true"
       apply_no_radius="true"
       apply_with_radius="true"
       only_selected="false"
       hide_knots="false" />
    <inkscape:path-effect
       effect="fillet_chamfer"
       id="path-effect4984"
       is_visible="true"
       lpeversion="1"
       satellites_param="F,0,0,1,0,0,0,1 @ F,0,0,1,0,0,0,1 @ F,0,0,1,0,9.3639835,0,1 @ F,0,0,1,0,0,0,1"
       unit="px"
       method="auto"
       mode="F"
       radius="0"
       chamfer_steps="1"
       flexible="false"
       use_knot_distance="true"
       apply_no_radius="true"
       apply_with_radius="true"
       only_selected="false"
       hide_knots="false" />
    <inkscape:path-effect
       effect="fillet_chamfer"
       id="path-effect3133"
       is_visible="true"
       lpeversion="1"
       satellites_param="F,0,0,1,0,0,0,1 @ F,0,0,1,0,0.035893652,0,1 @ F,0,0,1,0,7.8405482,0,1 @ F,0,0,1,0,0,0,1 @ F,0,0,1,0,0,0,1 @ F,0,0,1,0,0,0,1 @ F,0,0,1,0,0,0,1"
       unit="px"
       method="auto"
       mode="F"
       radius="0"
       chamfer_steps="1"
       flexible="false"
       use_knot_distance="true"
       apply_no_radius="true"
       apply_with_radius="true"
       only_selected="false"
       hide_knots="false" />
    <inkscape:path-effect
       effect="fillet_chamfer"
       id="path-effect1318"
       is_visible="true"
       lpeversion="1"
       satellites_param="F,0,0,1,0,0,0,1 @ F,0,0,1,0,24.177938,0,1 @ F,0,0,1,0,10.943806,0,1 @ F,0,0,1,0,0,0,1 @ F,0,0,1,0,0,0,1 @ F,0,0,1,0,0,0,1"
       unit="px"
       method="auto"
       mode="F"
       radius="0"
       chamfer_steps="1"
       flexible="false"
       use_knot_distance="true"
       apply_no_radius="true"
       apply_with_radius="true"
       only_selected="false"
       hide_knots="false" />
    <clipPath
       clipPathUnits="userSpaceOnUse"
       id="clipPath11160">
      <rect
         style="opacity:0.50641;fill:#008080;fill-opacity:1;stroke:none;stroke-width:0.264583"
         id="rect11162"
         width="99.48333"
         height="120.65"
         x="214.60049"
         y="84.785149" />
    </clipPath>
  </defs>
  <g
     inkscape:label="Layer 1"
     inkscape:groupmode="layer"
     id="layer1"
     transform="translate(-55.820881,-63.744945)">
    <path
       id="rect11466"
       style="opacity:1;fill:#ffffff;fill-opacity:1;stroke:none;stroke-width:0.978988"
       d="m 415.29883,240.92578 c -5.54,0 -10,4.46 -10,10 v 25 c 0,5.54 4.46,10 10,10 5.53999,0 10,-4.46 10,-10 v -25 c 0,-5.54 -4.46001,-10 -10,-10 z m -137.32227,56.82227 c -2.55617,0 -5.11356,0.98076 -7.07226,2.93945 -3.91737,3.91737 -3.91737,10.22326 0,14.14062 l 17.67773,17.67774 c 3.91737,3.91737 10.22521,3.91737 14.14258,0 3.9174,-3.91737 3.9174,-10.22325 0,-14.14063 L 285.04688,300.6875 c -1.95867,-1.95869 -4.51411,-2.93945 -7.07032,-2.93945 z m 274.64649,0 c -2.55621,0 -5.11357,0.98076 -7.07227,2.93945 l -17.67773,17.67773 c -3.91737,3.91738 -3.91737,10.22326 0,14.14063 3.91736,3.91737 10.22521,3.91737 14.14257,0 l 17.67774,-17.67774 c 3.91737,-3.91736 3.91737,-10.22325 0,-14.14062 -1.95867,-1.95869 -4.51414,-2.93945 -7.07031,-2.93945 z m -137.32422,8.5 a 138.99999,138.99999 0 0 0 -18.40625,1.3164 138.99999,138.99999 0 0 0 -2.02539,0.23828 138.99999,138.99999 0 0 0 -17.14649,3.73243 138.99999,138.99999 0 0 0 -2.70508,0.76172 138.99999,138.99999 0 0 0 -16.13281,6.01757 138.99999,138.99999 0 0 0 -2.70117,1.24414 138.99999,138.99999 0 0 0 -15.20312,8.30469 138.99999,138.99999 0 0 0 -2.08985,1.39453 A 138.99999,138.99999 0 0 0 324.53906,340 a 138.99999,138.99999 0 0 0 -0.88867,0.82227 138.99999,138.99999 0 0 0 -12.77734,12.77734 138.99999,138.99999 0 0 0 -0.82227,0.88867 138.99999,138.99999 0 0 0 -10.74609,14.35742 138.99999,138.99999 0 0 0 -1.39063,2.08008 138.99999,138.99999 0 0 0 -8.30468,15.20508 138.99999,138.99999 0 0 0 -1.24415,2.70117 138.99999,138.99999 0 0 0 -6.01757,16.13281 138.99999,138.99999 0 0 0 -0.76172,2.70508 138.99999,138.99999 0 0 0 -3.73242,17.14649 138.99999,138.99999 0 0 0 -0.23829,2.02539 138.99999,138.99999 0 0 0 -1.3164,18.40625 138.99999,138.99999 0 0 0 1.30078,18.20703 138.99999,138.99999 0 0 0 0.26953,2.29687 138.99999,138.99999 0 0 0 3.60547,16.5625 138.99999,138.99999 0 0 0 0.95703,3.4375 138.99999,138.99999 0 0 0 5.64258,15.13282 138.99999,138.99999 0 0 0 1.78906,3.94335 138.99999,138.99999 0 0 0 7.52149,13.7754 138.99999,138.99999 0 0 0 2.57031,3.91601 138.99999,138.99999 0 0 0 9.28906,12.41016 138.99999,138.99999 0 0 0 3.17774,3.51562 138.99999,138.99999 0 0 0 3.43554,3.80078 l -0.12109,-0.002 8.07031,9.61328 a 98.414849,98.414849 0 0 1 24.89063,73.13281 h -4.99805 c -5.67757,0 -10.24805,4.57049 -10.24805,10.24805 v 11.0957 c 0,5.67757 4.57048,10.24805 10.24805,10.24805 -5.67757,0 -10.24805,4.57048 -10.24805,10.24805 v 11.09375 c 0,5.67756 4.57048,10.24804 10.24805,10.24805 h 19.44531 c -5.67756,0 -10.24805,4.57048 -10.24805,10.24804 v 11.0957 c 0,5.67757 4.57049,10.24805 10.24805,10.24805 h 4.96875 a 47.885906,47.885906 0 0 0 47.00781,38.89649 47.885906,47.885906 0 0 0 47.00977,-38.89649 h 5.32226 c 5.67757,0 10.24805,-4.57048 10.24805,-10.24805 v -11.0957 c 0,-5.67756 -4.57048,-10.24805 -10.24805,-10.24804 h 19.44532 c 5.67756,0 10.24804,-4.57049 10.24804,-10.24805 v -11.09375 c 0,-5.67757 -4.57048,-10.24805 -10.24804,-10.24805 5.67756,0 10.24804,-4.57048 10.24804,-10.24805 v -11.0957 c 0,-5.67756 -4.57048,-10.24805 -10.24804,-10.24805 h -4.99805 a 98.414845,98.414845 0 0 1 24.89063,-73.13281 l 8.07031,-9.61328 -0.082,0.002 a 138.99999,138.99999 0 0 0 39.51953,-96.99804 138.99999,138.99999 0 0 0 -0.16992,-6.69336 138.99999,138.99999 0 0 0 -0.0195,-0.49219 138.99999,138.99999 0 0 0 -0.48829,-6.42383 138.99999,138.99999 0 0 0 -0.0644,-0.67969 138.99999,138.99999 0 0 0 -0.79883,-6.26367 138.99999,138.99999 0 0 0 -0.11719,-0.80273 138.99999,138.99999 0 0 0 -1.10351,-6.15235 138.99999,138.99999 0 0 0 -0.16992,-0.84375 138.99999,138.99999 0 0 0 -1.40235,-6.04296 138.99999,138.99999 0 0 0 -0.22461,-0.86914 138.99999,138.99999 0 0 0 -1.70507,-5.95899 138.99999,138.99999 0 0 0 -0.26758,-0.8457 138.99999,138.99999 0 0 0 -2.00781,-5.875 138.99999,138.99999 0 0 0 -0.30665,-0.81446 138.99999,138.99999 0 0 0 -2.32617,-5.82617 138.99999,138.99999 0 0 0 -0.28711,-0.65234 138.99999,138.99999 0 0 0 -2.67187,-5.81641 138.99999,138.99999 0 0 0 -0.25781,-0.51367 138.99999,138.99999 0 0 0 -3.07227,-5.87891 138.99999,138.99999 0 0 0 -0.008,-0.0117 138.99999,138.99999 0 0 0 -0.0176,-0.0332 138.99999,138.99999 0 0 0 -3.5,-5.94531 138.99999,138.99999 0 0 0 -0.0742,-0.12305 138.99999,138.99999 0 0 0 -3.62305,-5.49804 138.99999,138.99999 0 0 0 -0.34961,-0.51172 138.99999,138.99999 0 0 0 -3.74218,-5.09766 138.99999,138.99999 0 0 0 -0.49805,-0.65234 138.99999,138.99999 0 0 0 -3.95703,-4.84961 138.99999,138.99999 0 0 0 -0.54492,-0.64063 138.99999,138.99999 0 0 0 -4.14649,-4.58984 138.99999,138.99999 0 0 0 -0.64257,-0.67773 138.99999,138.99999 0 0 0 -4.35938,-4.35938 138.99999,138.99999 0 0 0 -0.67773,-0.64258 138.99999,138.99999 0 0 0 -4.58985,-4.14648 138.99999,138.99999 0 0 0 -0.64062,-0.54492 138.99999,138.99999 0 0 0 -4.84961,-3.95704 138.99999,138.99999 0 0 0 -0.65235,-0.49804 138.99999,138.99999 0 0 0 -5.09765,-3.74219 138.99999,138.99999 0 0 0 -0.51172,-0.34961 138.99999,138.99999 0 0 0 -5.49805,-3.62305 138.99999,138.99999 0 0 0 -0.125,-0.0762 138.99999,138.99999 0 0 0 -5.83398,-3.43554 138.99999,138.99999 0 0 0 -0.19336,-0.11133 138.99999,138.99999 0 0 0 -5.83399,-3.04493 138.99999,138.99999 0 0 0 -0.51953,-0.26171 138.99999,138.99999 0 0 0 -5.8164,-2.67188 138.99999,138.99999 0 0 0 -0.65235,-0.28711 138.99999,138.99999 0 0 0 -5.82617,-2.32617 138.99999,138.99999 0 0 0 -0.81445,-0.30664 138.99999,138.99999 0 0 0 -5.875,-2.00781 138.99999,138.99999 0 0 0 -0.84571,-0.26758 138.99999,138.99999 0 0 0 -5.95898,-1.70508 138.99999,138.99999 0 0 0 -0.86914,-0.22461 138.99999,138.99999 0 0 0 -6.04297,-1.40234 138.99999,138.99999 0 0 0 -0.84375,-0.16992 138.99999,138.99999 0 0 0 -6.15234,-1.10352 138.99999,138.99999 0 0 0 -0.80274,-0.11719 138.99999,138.99999 0 0 0 -6.26367,-0.79883 138.99999,138.99999 0 0 0 -0.67969,-0.0645 138.99999,138.99999 0 0 0 -6.42382,-0.48828 138.99999,138.99999 0 0 0 -0.49219,-0.0195 138.99999,138.99999 0 0 0 -6.69336,-0.16992 z m -194.32227,129 c -5.53999,0 -10,4.46 -10,10 0,5.53999 4.46001,10 10,10 h 25 c 5.54,0 10,-4.46001 10,-10 0,-5.54 -4.46,-10 -10,-10 z m 363.64453,0 c -5.53999,0 -10,4.46 -10,10 0,5.53999 4.46001,10 10,10 h 25 c 5.54,0 10,-4.46001 10,-10 0,-5.54 -4.46,-10 -10,-10 z M 381.81055,445.25 c 4.15498,0 7.5,3.34501 7.5,7.5 v 2.81836 c 1.9e-4,1.7571 1.42457,3.18145 3.18164,3.18164 h 45.61328 c 1.75706,-1.9e-4 3.18141,-1.42454 3.18164,-3.18164 V 452.75 c 0,-4.15499 3.34501,-7.5 7.5,-7.5 h 0.002 c 4.15503,0 7.5,3.34501 7.5,7.5 v 2.99609 c 6.8e-4,1.65948 1.34638,3.00425 3.00586,3.00391 h 0.99414 c 0.0125,0 0.0277,0.002 0.0391,0.002 h 1.48438 c 4.15499,0 7.5,3.34498 7.5,7.5 0,4.15499 -3.34501,7.5 -7.5,7.5 h -1.53516 c -2.2038,0.006 -3.98729,1.79425 -3.98828,3.99805 v 17.83008 c -2.6e-4,2.72564 -1.45421,5.24418 -3.81445,6.60742 -0.0113,0.008 -0.0199,0.012 -0.0312,0.0195 l -11.15625,6.44141 -6.39453,3.6914 c -2.84247,1.64062 -4.59364,4.67313 -4.59375,7.95508 v 43.00391 c 0,1.98542 1.55973,3.04101 3.53711,3.04101 6.34979,0 11.46289,5.11314 11.46289,11.46289 v 47.1875 h -22.42774 v -42.6914 c 0,-4.19524 -3.37702,-7.57227 -7.57226,-7.57227 -4.19524,0 -7.57227,3.37699 -7.57227,7.57227 v 42.6914 h -22.42773 v -47.1875 c 0,-6.34979 5.11309,-11.46289 11.46289,-11.46289 1.97737,0 3.53711,-1.05559 3.53711,-3.04101 v -43.00391 c -1.2e-4,-3.28195 -1.75128,-6.31446 -4.59375,-7.95508 l -6.39453,-3.6914 -11.15625,-6.44141 c -0.0113,-0.008 -0.018,-0.012 -0.0293,-0.0195 -2.36024,-1.3632 -3.81419,-3.88178 -3.81445,-6.60742 V 477.75 c 0,-2.20917 -1.79087,-4 -4,-4 h -1.52344 c -4.15499,0 -7.5,-3.34498 -7.5,-7.5 0,-4.15499 3.34501,-7.5 7.5,-7.5 h 1.52344 0.99414 c 1.66023,3.8e-4 3.00623,-1.34563 3.00586,-3.00586 V 452.75 c 0,-4.15499 3.34498,-7.5 7.5,-7.5 z m 11.03515,28.5 c -1.95231,2.3e-4 -3.53496,1.5828 -3.53515,3.53516 v 8.89648 c -6.8e-4,2.93427 1.56441,5.64596 4.10547,7.11328 l 12.46484,7.19531 a 18.839245,18.839245 0 0 0 18.83594,0 l 12.46484,-7.19531 c 2.54105,-1.46732 4.10611,-4.17901 4.10547,-7.11328 v -8.89648 c -2.3e-4,-1.95236 -1.58284,-3.53493 -3.53516,-3.53516 z m -97.13086,81.36328 c -2.5562,0 -5.11161,0.97884 -7.07031,2.9375 l -17.67773,17.67774 c -3.91737,3.91736 -3.91737,10.22521 0,14.14257 3.91736,3.91737 10.22325,3.91737 14.14062,0 l 17.67774,-17.67773 c 3.91736,-3.91737 3.91736,-10.22521 0,-14.14258 -1.95871,-1.95866 -4.51415,-2.9375 -7.07032,-2.9375 z m 239.16797,0 c -2.55617,0 -5.11161,0.97884 -7.07031,2.9375 -3.91737,3.91737 -3.91737,10.22521 0,14.14258 l 17.67773,17.67773 c 3.91737,3.91737 10.22522,3.91737 14.14258,0 3.91737,-3.91736 3.91737,-10.22521 0,-14.14257 l -17.67773,-17.67774 c -1.9587,-1.95866 -4.51606,-2.9375 -7.07227,-2.9375 z"
       transform="scale(0.26458333)" />
  </g>
</svg>
