<?xml version="1.0" encoding="UTF-8" standalone="no"?>
<svg
   xmlns:dc="http://purl.org/dc/elements/1.1/"
   xmlns:cc="http://creativecommons.org/ns#"
   xmlns:rdf="http://www.w3.org/1999/02/22-rdf-syntax-ns#"
   xmlns:svg="http://www.w3.org/2000/svg"
   xmlns="http://www.w3.org/2000/svg"
   xmlns:sodipodi="http://sodipodi.sourceforge.net/DTD/sodipodi-0.dtd"
   xmlns:inkscape="http://www.inkscape.org/namespaces/inkscape"
   sodipodi:docname="close.svg"
   inkscape:version="1.0 (4035a4fb49, 2020-05-01)"
   id="svg8"
   version="1.1"
   viewBox="0 0 10.131793 10.131797"
   height="38.293404"
   width="38.293392">
  <defs
     id="defs2" />
  <sodipodi:namedview
     inkscape:window-maximized="1"
     inkscape:window-y="-8"
     inkscape:window-x="-8"
     inkscape:window-height="877"
     inkscape:window-width="1600"
     inkscape:snap-midpoints="true"
     inkscape:snap-smooth-nodes="true"
     inkscape:snap-intersection-paths="true"
     inkscape:object-paths="true"
     inkscape:snap-bbox-midpoints="true"
     inkscape:snap-bbox-edge-midpoints="true"
     inkscape:bbox-nodes="true"
     inkscape:bbox-paths="true"
     inkscape:snap-bbox="true"
     units="px"
     showgrid="false"
     inkscape:document-rotation="0"
     inkscape:current-layer="layer1"
     inkscape:document-units="px"
     inkscape:cy="25.305303"
     inkscape:cx="31.592342"
     inkscape:zoom="5.6"
     inkscape:pageshadow="2"
     inkscape:pageopacity="0.0"
     borderopacity="1.0"
     bordercolor="#666666"
     pagecolor="#ffffff"
     id="base" />
  <metadata
     id="metadata5">
    <rdf:RDF>
      <cc:Work
         rdf:about="">
        <dc:format>image/svg+xml</dc:format>
        <dc:type
           rdf:resource="http://purl.org/dc/dcmitype/StillImage" />
        <dc:title></dc:title>
      </cc:Work>
    </rdf:RDF>
  </metadata>
  <g
     transform="translate(-121.55574,-132.28136)"
     id="layer1"
     inkscape:groupmode="layer"
     inkscape:label="Layer 1">
    <path
       id="rect10-1"
       style="fill:#1877f2;fill-opacity:1;fill-rule:evenodd;stroke-width:0.11682"
       d="m 131.29885,132.67003 c -0.51823,-0.51823 -1.35265,-0.51823 -1.87088,1e-5 l -2.80633,2.80633 -2.80633,-2.80633 c -0.51823,-0.51823 -1.35266,-0.51824 -1.8709,0 -0.51823,0.51823 -0.51821,1.35266 2e-5,1.87089 l 2.80632,2.80632 -2.80633,2.80633 c -0.51823,0.51823 -0.51824,1.35265 -10e-6,1.87088 0.51824,0.51824 1.35267,0.51824 1.8709,1e-5 l 2.80633,-2.80633 2.80633,2.80633 c 0.51824,0.51824 1.35265,0.51825 1.87089,1e-5 0.51823,-0.51823 0.51824,-1.35265 0,-1.87089 l -2.80633,-2.80633 2.80633,-2.80633 c 0.51823,-0.51823 0.51822,-1.35267 -1e-5,-1.8709 z" />
  </g>
</svg>
