<?xml version="1.0" encoding="UTF-8" standalone="no"?>
<svg
   xmlns:dc="http://purl.org/dc/elements/1.1/"
   xmlns:cc="http://creativecommons.org/ns#"
   xmlns:rdf="http://www.w3.org/1999/02/22-rdf-syntax-ns#"
   xmlns:svg="http://www.w3.org/2000/svg"
   xmlns="http://www.w3.org/2000/svg"
   xmlns:sodipodi="http://sodipodi.sourceforge.net/DTD/sodipodi-0.dtd"
   xmlns:inkscape="http://www.inkscape.org/namespaces/inkscape"
   width="113.57031"
   height="137.93555"
   viewBox="0 0 30.048815 36.495448"
   version="1.1"
   id="svg2414"
   inkscape:version="1.0 (4035a4fb49, 2020-05-01)"
   sodipodi:docname="delete.svg">
  <defs
     id="defs2408" />
  <sodipodi:namedview
     id="base"
     pagecolor="#ffffff"
     bordercolor="#666666"
     borderopacity="1.0"
     inkscape:pageopacity="0.0"
     inkscape:pageshadow="2"
     inkscape:zoom="1.979899"
     inkscape:cx="86.150473"
     inkscape:cy="83.388215"
     inkscape:document-units="px"
     inkscape:current-layer="layer1"
     inkscape:document-rotation="0"
     showgrid="false"
     units="px"
     inkscape:snap-bbox="true"
     inkscape:bbox-paths="true"
     inkscape:bbox-nodes="true"
     inkscape:snap-bbox-edge-midpoints="true"
     inkscape:snap-bbox-midpoints="true"
     inkscape:object-paths="true"
     inkscape:snap-intersection-paths="true"
     inkscape:snap-smooth-nodes="true"
     inkscape:snap-midpoints="true"
     inkscape:snap-global="true"
     inkscape:window-width="1600"
     inkscape:window-height="877"
     inkscape:window-x="-8"
     inkscape:window-y="-8"
     inkscape:window-maximized="1" />
  <metadata
     id="metadata2411">
    <rdf:RDF>
      <cc:Work
         rdf:about="">
        <dc:format>image/svg+xml</dc:format>
        <dc:type
           rdf:resource="http://purl.org/dc/dcmitype/StillImage" />
        <dc:title />
      </cc:Work>
    </rdf:RDF>
  </metadata>
  <g
     inkscape:label="Layer 1"
     inkscape:groupmode="layer"
     id="layer1"
     transform="translate(-145.0852,-99.340187)">
    <path
       transform="matrix(0.26458335,0,0,0.26458335,145.0852,99.340187)"
       d="m 47.191406,0 c -3.988529,0 -7.201172,3.2107291 -7.201172,7.1992188 0,0.2982098 0.02269,0.5904162 0.05859,0.8789062 v 6.320313 h 6.921875 v -3.753907 c -0.0227,-0.17122 -0.0332,-0.344294 -0.0332,-0.521484 0,-2.36912 1.88547,-4.2773439 4.224609,-4.2773439 h 11.251953 c 2.33919,0 4.222657,1.9082239 4.222657,4.2773439 v 4.275391 h 6.943359 V 7.1992188 C 73.580078,3.2107291 70.369389,0 66.380859,0 Z M 7.7675781,16.398438 C 3.4642085,16.398438 0,19.862606 0,24.166016 c 0,4.303369 3.4642085,7.769531 7.7675781,7.769531 H 105.80273 c 4.30341,0 7.76758,-3.466162 7.76758,-7.769531 0,-4.30341 -3.46417,-7.767578 -7.76758,-7.767578 z M 7.2304688,37.935547 14.285156,128.70312 c 0.396284,5.09931 4.119692,9.23243 9.234375,9.23243 h 66.533203 c 5.114684,0 9.234375,-4.11774 9.234375,-9.23243 l 7.050781,-90.767573 z m 49.5566402,12.5 c 2.76994,0 4.998047,2.230022 4.998047,5 v 65.000003 c 0,2.77001 -2.228107,5 -4.998047,5 -2.769977,0 -5,-2.22999 -5,-5 V 55.435547 c 0,-2.769978 2.230023,-5 5,-5 z M 31.353516,50.65625 c 2.539729,0.05405 4.661354,2.014766 4.867187,4.603516 L 41.375,120.05469 c 0.219591,2.76128 -1.826606,5.16127 -4.587891,5.38086 -2.761284,0.21959 -5.163259,-1.82665 -5.382812,-4.58789 L 26.253906,56.050781 c -0.21959,-2.761322 1.826606,-5.159353 4.587891,-5.378906 0.172724,-0.01512 0.342396,-0.0194 0.511719,-0.01563 z m 50.849609,0.396484 c 0.169323,-0.0038 0.337079,-10e-4 0.509766,0.01563 2.761322,0.219591 4.807443,2.619575 4.58789,5.38086 l -5.15039,64.796866 c -0.219591,2.7613 -2.617622,4.80746 -5.378907,4.5879 -2.761322,-0.21959 -4.807443,-2.61953 -4.58789,-5.38086 l 5.15039,-64.796875 c 0.205985,-2.588674 2.32945,-4.547553 4.869141,-4.601562 z"
       style="opacity:1;fill:#000000;stroke-width:1.81731"
       id="rect2416" />
  </g>
</svg>
