<?xml version="1.0" encoding="UTF-8" standalone="no"?>
<svg
   xmlns:dc="http://purl.org/dc/elements/1.1/"
   xmlns:cc="http://creativecommons.org/ns#"
   xmlns:rdf="http://www.w3.org/1999/02/22-rdf-syntax-ns#"
   xmlns:svg="http://www.w3.org/2000/svg"
   xmlns="http://www.w3.org/2000/svg"
   xmlns:sodipodi="http://sodipodi.sourceforge.net/DTD/sodipodi-0.dtd"
   xmlns:inkscape="http://www.inkscape.org/namespaces/inkscape"
   sodipodi:docname="footer.svg"
   inkscape:version="1.0 (4035a4fb49, 2020-05-01)"
   id="svg8"
   version="1.1"
   viewBox="0 0 92.609337 96.458702"
   height="96.458702mm"
   width="92.609337mm">
  <defs
     id="defs2" />
  <sodipodi:namedview
     inkscape:window-maximized="1"
     inkscape:window-y="-8"
     inkscape:window-x="-8"
     inkscape:window-height="877"
     inkscape:window-width="1600"
     inkscape:snap-midpoints="true"
     inkscape:snap-smooth-nodes="true"
     inkscape:snap-intersection-paths="true"
     inkscape:object-paths="true"
     inkscape:snap-bbox-midpoints="true"
     inkscape:snap-bbox-edge-midpoints="true"
     inkscape:bbox-nodes="true"
     inkscape:bbox-paths="true"
     inkscape:snap-bbox="true"
     showgrid="false"
     inkscape:document-rotation="0"
     inkscape:current-layer="layer1"
     inkscape:document-units="mm"
     inkscape:cy="164.99621"
     inkscape:cx="47.318552"
     inkscape:zoom="1.4"
     inkscape:pageshadow="2"
     inkscape:pageopacity="0.0"
     borderopacity="1.0"
     bordercolor="#666666"
     pagecolor="#ffffff"
     id="base" />
  <metadata
     id="metadata5">
    <rdf:RDF>
      <cc:Work
         rdf:about="">
        <dc:format>image/svg+xml</dc:format>
        <dc:type
           rdf:resource="http://purl.org/dc/dcmitype/StillImage" />
        <dc:title></dc:title>
      </cc:Work>
    </rdf:RDF>
  </metadata>
  <g
     transform="translate(-82.853338,-185.6574)"
     id="layer1"
     inkscape:groupmode="layer"
     inkscape:label="Layer 1">
    <path
       transform="scale(0.26458333)"
       d="m 335.11719,701.69727 c -12.17183,0 -21.97071,9.79888 -21.97071,21.9707 v 43.94141 h 350.01954 v -43.94141 c 0,-12.17182 -9.80084,-21.9707 -21.97266,-21.9707 z m 37.42383,19.21875 a 13.738074,13.738074 0 0 1 0.0742,0 13.738074,13.738074 0 0 1 13.73829,13.73828 13.738074,13.738074 0 0 1 -13.73829,13.73632 13.738074,13.738074 0 0 1 -13.73828,-13.73632 13.738074,13.738074 0 0 1 13.66407,-13.73828 z m 54.95312,0 a 13.738074,13.738074 0 0 1 0.0723,0 13.738074,13.738074 0 0 1 13.73828,13.73828 13.738074,13.738074 0 0 1 -13.73828,13.73632 13.738074,13.738074 0 0 1 -13.73633,-13.73632 13.738074,13.738074 0 0 1 13.66406,-13.73828 z m 54.95117,0 a 13.738074,13.738074 0 0 1 0.0742,0 13.738074,13.738074 0 0 1 13.73828,13.73828 13.738074,13.738074 0 0 1 -13.73828,13.73632 13.738074,13.738074 0 0 1 -13.73828,-13.73632 13.738074,13.738074 0 0 1 13.66406,-13.73828 z M 313.14648,787.60938 V 956.61523 H 663.16602 V 787.60938 Z m 0,189.00585 v 67.67967 c 0,12.1718 9.79888,21.9707 21.97071,21.9707 h 306.07617 c 12.17182,0 21.97266,-9.7989 21.97266,-21.9707 v -67.67967 z"
       style="fill:#1877f2;fill-opacity:1;fill-rule:evenodd;stroke-width:1.10446"
       id="rect10" />
  </g>
</svg>
