<?xml version="1.0" encoding="UTF-8" standalone="no"?>
<svg
   xmlns:dc="http://purl.org/dc/elements/1.1/"
   xmlns:cc="http://creativecommons.org/ns#"
   xmlns:rdf="http://www.w3.org/1999/02/22-rdf-syntax-ns#"
   xmlns:svg="http://www.w3.org/2000/svg"
   xmlns="http://www.w3.org/2000/svg"
   xmlns:sodipodi="http://sodipodi.sourceforge.net/DTD/sodipodi-0.dtd"
   xmlns:inkscape="http://www.inkscape.org/namespaces/inkscape"
   width="50.00071"
   height="50.000313"
   viewBox="0 0 13.229355 13.22925"
   version="1.1"
   id="svg8"
   inkscape:version="1.0 (4035a4fb49, 2020-05-01)"
   sodipodi:docname="Home-Icon.svg">
  <defs
     id="defs2" />
  <sodipodi:namedview
     inkscape:snap-global="true"
     inkscape:snap-midpoints="true"
     inkscape:snap-smooth-nodes="true"
     inkscape:snap-intersection-paths="true"
     inkscape:object-paths="true"
     id="base"
     pagecolor="#ffffff"
     bordercolor="#666666"
     borderopacity="1.0"
     inkscape:pageopacity="0.0"
     inkscape:pageshadow="2"
     inkscape:zoom="8"
     inkscape:cx="3.2173161"
     inkscape:cy="15.812901"
     inkscape:document-units="px"
     inkscape:current-layer="layer1"
     showgrid="false"
     inkscape:snap-bbox="true"
     inkscape:bbox-paths="true"
     inkscape:bbox-nodes="true"
     inkscape:snap-bbox-edge-midpoints="true"
     inkscape:snap-bbox-midpoints="true"
     showguides="false"
     units="px"
     inkscape:window-width="1600"
     inkscape:window-height="877"
     inkscape:window-x="-8"
     inkscape:window-y="-8"
     inkscape:window-maximized="1"
     fit-margin-top="0"
     fit-margin-left="0"
     fit-margin-right="0"
     fit-margin-bottom="0"
     inkscape:document-rotation="0" />
  <metadata
     id="metadata5">
    <rdf:RDF>
      <cc:Work
         rdf:about="">
        <dc:format>image/svg+xml</dc:format>
        <dc:type
           rdf:resource="http://purl.org/dc/dcmitype/StillImage" />
        <dc:title />
      </cc:Work>
    </rdf:RDF>
  </metadata>
  <g
     inkscape:label="Layer 1"
     inkscape:groupmode="layer"
     id="layer1"
     transform="translate(-2.1047854,-262.65931)">
    <g
       id="g15">
      <path
         id="rect7597"
         style="fill:#fff;fill-opacity:1;fill-rule:nonzero;stroke:none;stroke-width:0.0126237;stroke-miterlimit:4;stroke-dasharray:none;stroke-opacity:1"
         d="m 8.7132289,262.65941 c -0.3945893,0 -0.786628,0.3391 -1.5513265,1.01751 l -4.5495932,4.00751 -5.17e-4,-5.2e-4 a 1.283972,1.3313723 0 0 0 -0.0026,0.002 1.283972,1.3313723 0 0 0 -0.240812,1.86603 1.283972,1.3313723 0 0 0 1.799889,0.2496 1.283972,1.3313723 0 0 0 0.0021,-0.002 l 4.5433917,-4.00182 h 0.013952 l 4.5418421,4.00027 -0.001,10e-4 a 1.283972,1.3313723 0 0 0 0.0021,0.002 1.283972,1.3313723 0 0 0 1.799891,-0.25012 1.283972,1.3313723 0 0 0 -0.240813,-1.86603 l -4.550626,-4.00803 C 9.5050543,262.9984 9.1084156,262.6593 8.7138269,262.65931 Z" />
      <path
         id="path1757"
         style="fill:#fff;fill-opacity:1;fill-rule:nonzero;stroke:none;stroke-width:0.0126237;stroke-miterlimit:4;stroke-dasharray:none;stroke-opacity:1"
         d="m 8.7101611,266.36718 -4.5361573,4.00854 h -5.167e-4 v 5.51284 h 3.2359781 v -2.72955 h 0.0031 a 1.3072675,1.1686172 0 0 1 -5.167e-4,-0.008 1.3072675,1.1686172 0 0 1 1.3074137,-1.16841 1.3072675,1.1686172 0 0 1 1.3068968,1.16841 1.3072675,1.1686172 0 0 1 0,0.008 h 0.0031 v 2.72955 h 3.235979 v -5.51284 h -10e-4 z" />
      <rect
         y="263.65942"
         x="11.347779"
         height="3.8587039"
         width="1.9176589"
         id="rect156"
         style="fill:#fff;fill-opacity:1;fill-rule:evenodd;stroke-width:0.264583" />
      <rect
         ry="0.31571215"
         y="262.73685"
         x="10.950216"
         height="0.63142431"
         width="2.7127857"
         id="rect158"
         style="fill:#fff;fill-opacity:1;fill-rule:evenodd;stroke-width:0.307418" />
    </g>
  </g>
</svg>
