<?xml version="1.0" encoding="UTF-8" standalone="no"?>
<svg
   xmlns:dc="http://purl.org/dc/elements/1.1/"
   xmlns:cc="http://creativecommons.org/ns#"
   xmlns:rdf="http://www.w3.org/1999/02/22-rdf-syntax-ns#"
   xmlns:svg="http://www.w3.org/2000/svg"
   xmlns="http://www.w3.org/2000/svg"
   xmlns:sodipodi="http://sodipodi.sourceforge.net/DTD/sodipodi-0.dtd"
   xmlns:inkscape="http://www.inkscape.org/namespaces/inkscape"
   sodipodi:docname="login.svg"
   inkscape:version="1.0 (4035a4fb49, 2020-05-01)"
   id="svg2040"
   version="1.1"
   viewBox="0 0 29.398119 29.398207"
   height="111.11133"
   width="111.111">
  <defs
     id="defs2034" />
  <sodipodi:namedview
     inkscape:window-maximized="1"
     inkscape:window-y="-8"
     inkscape:window-x="-8"
     inkscape:window-height="877"
     inkscape:window-width="1600"
     inkscape:snap-global="true"
     inkscape:snap-midpoints="true"
     inkscape:snap-smooth-nodes="true"
     inkscape:snap-intersection-paths="true"
     inkscape:object-paths="true"
     inkscape:snap-bbox-midpoints="true"
     inkscape:snap-bbox-edge-midpoints="true"
     inkscape:bbox-nodes="true"
     inkscape:bbox-paths="true"
     inkscape:snap-bbox="true"
     units="px"
     showgrid="false"
     inkscape:document-rotation="0"
     inkscape:current-layer="g999"
     inkscape:document-units="px"
     inkscape:cy="53.649866"
     inkscape:cx="85.856347"
     inkscape:zoom="2.8"
     inkscape:pageshadow="2"
     inkscape:pageopacity="0.0"
     borderopacity="1.0"
     bordercolor="#666666"
     pagecolor="#ffffff"
     id="base" />
  <metadata
     id="metadata2037">
    <rdf:RDF>
      <cc:Work
         rdf:about="">
        <dc:format>image/svg+xml</dc:format>
        <dc:type
           rdf:resource="http://purl.org/dc/dcmitype/StillImage" />
        <dc:title />
      </cc:Work>
    </rdf:RDF>
  </metadata>
  <g
     transform="translate(177.67604,-17.205128)"
     id="layer1"
     inkscape:groupmode="layer"
     inkscape:label="Layer 1">
    <g
       id="g999">
      <g
         transform="translate(-36.234121,-14.835609)"
         id="g1005">
        <path
           id="rect2618-9"
           style="fill:#008cff;fill-opacity:1;stroke:none;stroke-width:0.232913;stroke-opacity:1"
           d="m -135.12452,36.156505 v 21.166668 h 10.58333 v -5.342827 h -0.11627 c -0.65524,0 -1.18287,-0.478059 -1.18287,-1.072286 v -5.34231 c 0,-0.594229 0.52763,-1.072286 1.18287,-1.072286 h 0.0925 v -1.842782 c 0,-0.107927 0.01,-0.213421 0.0238,-0.317809 v -6.176368 z" />
        <path
           d="m -114.26876,32.040737 -13.49168,2.939872 V 58.49907 l 13.49168,2.939874 z"
           style="fill:#0077ff;fill-opacity:1;stroke-width:0.30992"
           id="rect2620" />
        <path
           id="rect853"
           style="fill:#ffc400;fill-opacity:1;stroke-width:0.226038"
           d="m -121.01468,41.649332 c -1.35023,0 -2.43697,0.986019 -2.43697,2.2105 v 1.574324 h -0.0794 c -0.55978,0 -1.01011,0.408413 -1.01011,0.916076 v 4.564039 c 0,0.507659 0.45033,0.916075 1.01011,0.916075 h 5.03289 c 0.55979,0 1.01011,-0.408416 1.01011,-0.916075 v -4.564039 c 0,-0.507662 -0.45032,-0.916076 -1.01011,-0.916076 h -0.079 v -1.574324 c 0,-1.224479 -1.08718,-2.2105 -2.43742,-2.2105 z m -0.003,0.925787 h 4.5e-4 8.8e-4 c 0.84531,0 1.52621,0.617012 1.52621,1.383605 v 1.346961 c 0,0.04326 -0.002,0.08625 -0.008,0.128471 h -3.03787 c -0.003,-0.04222 -0.008,-0.08521 -0.008,-0.128471 v -1.346961 c 0,-0.766593 0.68042,-1.383605 1.52576,-1.383605 z m 0.003,4.969321 a 1.0104602,0.91635202 0 0 1 1.01012,0.916516 1.0104602,0.91635202 0 0 1 -0.45561,0.766413 v 1.256457 c 0,0.278716 -0.24716,0.502847 -0.55451,0.502847 -0.30734,0 -0.55494,-0.224131 -0.55494,-0.502847 v -1.256899 a 1.0104602,0.91635202 0 0 1 -0.45561,-0.765971 1.0104602,0.91635202 0 0 1 1.01055,-0.916516 z" />
        <path
           d="m -133.53213,41.804991 c -0.13692,0 -0.27416,0.05239 -0.37914,0.157375 -0.073,0.07294 -0.1188,1.24871 -0.14109,2.727667 h -3.11484 c -1.13552,0 -2.04976,0.914234 -2.04976,2.049752 0,1.135519 0.91424,2.049752 2.04976,2.049752 h 3.11484 c 0.0221,1.479109 0.0681,2.65471 0.14109,2.727668 0.20991,0.209987 0.54796,0.209963 0.75794,0 l 4.39826,-4.398261 c 0.20991,-0.209963 0.20991,-0.548342 0,-0.75832 l -4.39826,-4.398258 c -0.10508,-0.104982 -0.24175,-0.157375 -0.3788,-0.157375 z"
           style="opacity:1;fill:#ffc400;fill-opacity:1;stroke-width:0.195105"
           id="rect973" />
      </g>
    </g>
  </g>
</svg>
