<?xml version="1.0" encoding="UTF-8" standalone="no"?>
<svg
   xmlns:dc="http://purl.org/dc/elements/1.1/"
   xmlns:cc="http://creativecommons.org/ns#"
   xmlns:rdf="http://www.w3.org/1999/02/22-rdf-syntax-ns#"
   xmlns:svg="http://www.w3.org/2000/svg"
   xmlns="http://www.w3.org/2000/svg"
   xmlns:sodipodi="http://sodipodi.sourceforge.net/DTD/sodipodi-0.dtd"
   xmlns:inkscape="http://www.inkscape.org/namespaces/inkscape"
   width="973.35645"
   height="973.35645"
   viewBox="0 0 257.5339 257.5339"
   version="1.1"
   id="svg8"
   inkscape:version="1.0 (4035a4fb49, 2020-05-01)"
   sodipodi:docname="Logo.svg">
  <defs
     id="defs2" />
  <sodipodi:namedview
     id="base"
     pagecolor="#ffffff"
     bordercolor="#666666"
     borderopacity="1.0"
     inkscape:pageopacity="0.0"
     inkscape:pageshadow="2"
     inkscape:zoom="0.51433507"
     inkscape:cx="118.07701"
     inkscape:cy="483.90924"
     inkscape:document-units="mm"
     inkscape:current-layer="layer1"
     showgrid="false"
     inkscape:snap-bbox="true"
     inkscape:bbox-paths="true"
     inkscape:bbox-nodes="true"
     inkscape:snap-bbox-edge-midpoints="true"
     inkscape:snap-bbox-midpoints="true"
     showguides="false"
     units="px"
     inkscape:window-width="1600"
     inkscape:window-height="877"
     inkscape:window-x="-8"
     inkscape:window-y="-8"
     inkscape:window-maximized="1"
     inkscape:document-rotation="0" />
  <metadata
     id="metadata5">
    <rdf:RDF>
      <cc:Work
         rdf:about="">
        <dc:format>image/svg+xml</dc:format>
        <dc:type
           rdf:resource="http://purl.org/dc/dcmitype/StillImage" />
        <dc:title />
      </cc:Work>
    </rdf:RDF>
  </metadata>
  <g
     inkscape:label="Layer 1"
     inkscape:groupmode="layer"
     id="layer1"
     transform="translate(-1.559123,-38.142105)">
    <path
       transform="matrix(0.26458333,0,0,0.26458333,1.5589969,38.141979)"
       d="M 486.64844,0.18945312 A 486.48949,486.48949 0 0 0 0.18945312,486.67773 486.48949,486.48949 0 0 0 486.67773,973.16797 486.48949,486.48949 0 0 0 973.16797,486.67773 486.48949,486.48949 0 0 0 486.67773,0.18945312 a 486.48949,486.48949 0 0 0 -0.0293,0 z M 459.87891,32 a 83.031322,47.432776 16.932056 0 1 39.07421,6.041016 83.031322,47.432776 16.932056 0 1 65.61719,69.558594 83.031322,47.432776 16.932056 0 1 -0.40625,1.00391 l 0.0918,0.0293 -19.21875,63.13086 -158.86523,-48.36328 19.2207,-63.132812 0.0625,0.01953 a 83.031322,47.432776 16.932056 0 1 0.25195,-1.052734 83.031322,47.432776 16.932056 0 1 53.47266,-27.232422 83.031322,47.432776 16.932056 0 1 0.69922,-0.002 z m -77.85352,106.33594 158.46094,48.375 -147.06836,481.7832 -158.46289,-48.375 z m 176.46094,48.375 216.46875,575.91797 H 588.50977 L 560.18945,667.44336 H 411.77148 l 38.05274,-124.68555 h 72.99609 L 486.18945,423.60156 Z m -328.08399,448.36133 158.86328,48.36328 -96.58007,138.0957 -59.03125,-17.9707 z m 3.53516,183.17382 50.33008,15.32227 -48.69141,69.61914 z"
       style="fill:#3f51b5;fill-opacity:1;fill-rule:nonzero;stroke:#7f7fc3;stroke-width:0.377953;stroke-miterlimit:4;stroke-dasharray:none;stroke-opacity:1"
       id="path918" />
  </g>
</svg>
