<?xml version="1.0" encoding="UTF-8" standalone="no"?>
<svg
   xmlns:dc="http://purl.org/dc/elements/1.1/"
   xmlns:cc="http://creativecommons.org/ns#"
   xmlns:rdf="http://www.w3.org/1999/02/22-rdf-syntax-ns#"
   xmlns:svg="http://www.w3.org/2000/svg"
   xmlns="http://www.w3.org/2000/svg"
   xmlns:sodipodi="http://sodipodi.sourceforge.net/DTD/sodipodi-0.dtd"
   xmlns:inkscape="http://www.inkscape.org/namespaces/inkscape"
   width="49.999908"
   height="24.99999"
   viewBox="0 0 13.229142 6.6145807"
   version="1.1"
   id="svg8"
   inkscape:version="1.0 (4035a4fb49, 2020-05-01)"
   sodipodi:docname="more.svg">
  <defs
     id="defs2" />
  <sodipodi:namedview
     inkscape:snap-global="true"
     units="px"
     id="base"
     pagecolor="#ffffff"
     bordercolor="#666666"
     borderopacity="1.0"
     inkscape:pageopacity="0.0"
     inkscape:pageshadow="2"
     inkscape:zoom="15.839192"
     inkscape:cx="29.025325"
     inkscape:cy="12.005325"
     inkscape:document-units="px"
     inkscape:current-layer="layer1"
     inkscape:document-rotation="0"
     showgrid="false"
     inkscape:snap-bbox="true"
     inkscape:bbox-paths="true"
     inkscape:bbox-nodes="true"
     inkscape:snap-bbox-edge-midpoints="true"
     inkscape:snap-bbox-midpoints="true"
     inkscape:object-paths="false"
     inkscape:snap-intersection-paths="false"
     inkscape:snap-smooth-nodes="false"
     inkscape:snap-midpoints="false"
     inkscape:window-width="1600"
     inkscape:window-height="877"
     inkscape:window-x="-8"
     inkscape:window-y="-8"
     inkscape:window-maximized="1" />
  <metadata
     id="metadata5">
    <rdf:RDF>
      <cc:Work
         rdf:about="">
        <dc:format>image/svg+xml</dc:format>
        <dc:type
           rdf:resource="http://purl.org/dc/dcmitype/StillImage" />
        <dc:title />
      </cc:Work>
    </rdf:RDF>
  </metadata>
  <g
     inkscape:label="Layer 1"
     inkscape:groupmode="layer"
     id="layer1"
     transform="translate(-85.172772,-151.44069)">
    <path
       d="m 91.763532,151.4407 a 6.6146682,6.6146682 0 0 0 -6.59076,6.61457 h 13.229142 a 6.6146682,6.6146682 0 0 0 -6.61457,-6.61457 6.6146682,6.6146682 0 0 0 -0.02381,0 z"
       style="fill:#b3b3b3;fill-opacity:1;fill-rule:evenodd;stroke-width:0.0586106"
       id="path10" />
    <path
       id="path23"
       style="fill:#ffffff;fill-opacity:1;fill-rule:evenodd;stroke-width:0.0562662"
       d="m 91.764484,151.70528 a 6.3500934,6.3500934 0 0 0 -6.327141,6.34999 h 12.7 a 6.3500934,6.3500934 0 0 0 -6.349999,-6.34999 6.3500934,6.3500934 0 0 0 -0.02286,0 z" />
    <path
       id="path42"
       style="fill:#b3b3b3;fill-opacity:1;fill-rule:evenodd;stroke-width:0.048224"
       d="m 91.768344,152.61292 c -1.43683,0.005 -2.81339,0.57797 -3.8294,1.59395 l 3.8484,2.6762 3.84818,-2.67575 0.0359,0.0359 c -1.02338,-1.04278 -2.42306,-1.63028 -3.88412,-1.63035 -0.006,0 -0.0127,0 -0.019,0 z"
       sodipodi:nodetypes="cccccscc" />
  </g>
</svg>
