<?xml version="1.0" encoding="UTF-8" standalone="no"?>
<!-- Created with Inkscape (http://www.inkscape.org/) -->

<svg
   width="39.6875mm"
   height="7.9375mm"
   viewBox="0 0 39.6875 7.9375003"
   version="1.1"
   id="svg5"
   sodipodi:docname="more.svg"
   inkscape:version="1.1 (c68e22c387, 2021-05-23)"
   xmlns:inkscape="http://www.inkscape.org/namespaces/inkscape"
   xmlns:sodipodi="http://sodipodi.sourceforge.net/DTD/sodipodi-0.dtd"
   xmlns="http://www.w3.org/2000/svg"
   xmlns:svg="http://www.w3.org/2000/svg">
  <sodipodi:namedview
     id="namedview7"
     pagecolor="#ffffff"
     bordercolor="#666666"
     borderopacity="1.0"
     inkscape:pageshadow="2"
     inkscape:pageopacity="0.0"
     inkscape:pagecheckerboard="0"
     inkscape:document-units="mm"
     showgrid="false"
     inkscape:snap-bbox="true"
     inkscape:bbox-paths="true"
     inkscape:bbox-nodes="true"
     inkscape:snap-bbox-edge-midpoints="true"
     inkscape:snap-bbox-midpoints="true"
     inkscape:object-paths="true"
     inkscape:snap-intersection-paths="true"
     inkscape:snap-smooth-nodes="true"
     inkscape:snap-midpoints="true"
     inkscape:zoom="3.4872824"
     inkscape:cx="75.130136"
     inkscape:cy="53.766796"
     inkscape:window-width="1600"
     inkscape:window-height="877"
     inkscape:window-x="-8"
     inkscape:window-y="-8"
     inkscape:window-maximized="1"
     inkscape:current-layer="layer1">
    <inkscape:grid
       type="xygrid"
       id="grid914"
       originx="2.6458332"
       originy="47.625013" />
  </sodipodi:namedview>
  <defs
     id="defs2" />
  <g
     inkscape:label="Layer 1"
     inkscape:groupmode="layer"
     id="layer1"
     transform="translate(-70.329556,-76.27855)">
    <path
       id="path1071"
       style="fill:#3f51b5;fill-opacity:1;stroke:none;stroke-width:0.999999px;stroke-linecap:butt;stroke-linejoin:miter;stroke-opacity:1"
       d="m 15,-90 c -8.3099998,0 -15,6.69 -15,15 0,8.31 6.6900002,15 15,15 H 55 80 95 L 115,-75 95,-90 H 80 55 Z m 95,0 20,15 -20,15 h 20 l 20,-15 -20,-15 z m -58.505859,7.386719 c 2.450556,0 4.338351,0.6595 5.664062,1.978515 1.325711,1.31232 1.988281,3.153228 1.988281,5.523438 0,1.720746 -0.290538,3.133522 -0.873046,4.238281 -0.575814,1.098064 -1.413656,1.956279 -2.511719,2.572266 -1.091368,0.609291 -2.452233,0.914062 -4.085938,0.914062 -1.660486,0 -3.037538,-0.264023 -4.128906,-0.792969 -1.084673,-0.528944 -1.964379,-1.366786 -2.640625,-2.511718 -0.676246,-1.144932 -1.015625,-2.578082 -1.015625,-4.298828 0,-2.403688 0.670664,-4.27418 2.009766,-5.613282 1.339102,-1.339102 3.203453,-2.009765 5.59375,-2.009765 z M 25,-82.361328 h 5.986328 l 2.308594,8.958984 2.300781,-8.958984 h 5.964844 v 14.722656 h -3.714844 v -11.228516 l -2.882812,11.228516 h -3.365235 l -2.871094,-11.228516 v 11.228516 H 25 Z m 36.658203,0 h 7.582031 c 1.406057,0 2.481408,0.12029 3.22461,0.361328 0.743201,0.241038 1.34158,0.689543 1.796875,1.345703 0.455294,0.649465 0.683593,1.443489 0.683593,2.380859 0,0.816853 -0.173317,1.523241 -0.521484,2.119141 -0.348166,0.589205 -0.828209,1.067294 -1.4375,1.435547 -0.388339,0.234343 -0.919457,0.428035 -1.595703,0.582031 0.542336,0.180779 0.93586,0.36219 1.183594,0.542969 0.167387,0.120519 0.40992,0.378402 0.724609,0.773438 0.321385,0.395034 0.53545,0.699806 0.642578,0.914062 l 2.199219,4.267578 h -5.142578 l -2.429688,-4.498047 c -0.307993,-0.582509 -0.58318,-0.962635 -0.824218,-1.136719 -0.32808,-0.227646 -0.700113,-0.339843 -1.115235,-0.339843 h -0.40039 v 5.974609 h -4.570313 z m 15.927735,0 h 12.193359 v 3.142578 h -7.632813 v 2.339844 h 7.080078 V -73.875 h -7.080078 v 2.902344 H 90 v 3.333984 H 77.585938 Z m -11.357422,2.972656 v 2.992188 h 1.917968 c 0.207561,0 0.609179,-0.06726 1.205078,-0.201172 0.301298,-0.06026 0.544948,-0.213204 0.732422,-0.460938 0.19417,-0.247734 0.291016,-0.532131 0.291016,-0.853515 0,-0.475382 -0.149874,-0.841275 -0.451172,-1.095703 -0.301298,-0.25443 -0.867022,-0.38086 -1.697266,-0.38086 z m -14.744141,0.220703 c -0.917285,0 -1.653257,0.325145 -2.208984,0.97461 -0.555728,0.649464 -0.833985,1.722862 -0.833985,3.222656 0,1.486403 0.273234,2.555614 0.822266,3.205078 0.555727,0.649464 1.309003,0.974609 2.259766,0.974609 0.977543,0 1.735843,-0.319004 2.271484,-0.955078 0.535641,-0.636073 0.802734,-1.776733 0.802734,-3.423828 0,-1.38597 -0.281327,-2.39713 -0.84375,-3.033203 -0.555727,-0.642769 -1.312073,-0.964844 -2.269531,-0.964844 z"
       transform="matrix(0.26458333,0,0,0.26458333,70.329556,100.09105)" />
  </g>
</svg>
