<?xml version="1.0" encoding="UTF-8" standalone="no"?>
<!-- Created with Inkscape (http://www.inkscape.org/) -->

<svg
   width="64.397621mm"
   height="13.125813mm"
   viewBox="0 0 64.397621 13.125813"
   version="1.1"
   id="svg5"
   sodipodi:docname="more.svg"
   inkscape:version="1.1 (c68e22c387, 2021-05-23)"
   xmlns:inkscape="http://www.inkscape.org/namespaces/inkscape"
   xmlns:sodipodi="http://sodipodi.sourceforge.net/DTD/sodipodi-0.dtd"
   xmlns="http://www.w3.org/2000/svg"
   xmlns:svg="http://www.w3.org/2000/svg">
  <sodipodi:namedview
     id="namedview7"
     pagecolor="#ffffff"
     bordercolor="#666666"
     borderopacity="1.0"
     inkscape:pageshadow="2"
     inkscape:pageopacity="0.0"
     inkscape:pagecheckerboard="0"
     inkscape:document-units="mm"
     showgrid="false"
     inkscape:snap-bbox="true"
     inkscape:bbox-paths="true"
     inkscape:bbox-nodes="true"
     inkscape:snap-bbox-edge-midpoints="true"
     inkscape:snap-bbox-midpoints="true"
     inkscape:object-paths="true"
     inkscape:snap-intersection-paths="true"
     inkscape:snap-smooth-nodes="true"
     inkscape:snap-midpoints="true"
     inkscape:zoom="1.7436412"
     inkscape:cx="51.042611"
     inkscape:cy="19.212668"
     inkscape:window-width="1600"
     inkscape:window-height="877"
     inkscape:window-x="-8"
     inkscape:window-y="-8"
     inkscape:window-maximized="1"
     inkscape:current-layer="layer1" />
  <defs
     id="defs2" />
  <g
     inkscape:label="Layer 1"
     inkscape:groupmode="layer"
     id="layer1"
     transform="translate(-70.329556,-100.09105)">
    <path
       id="rect846"
       style="fill:#3f51b5;fill-rule:evenodd;stroke-width:0.273125"
       d="m 290.61719,378.29688 c -13.74177,0 -24.80469,11.06291 -24.80469,24.80468 0,13.74177 11.06292,24.80469 24.80469,24.80469 h 82.36719 48.51757 24.80469 0.33203 v -0.33594 l 24.14063,-24.46875 -24.14063,-24.46875 v -0.33593 h -0.33203 -24.80469 -48.51757 z m 172.90234,0 0.16406,0.16796 -0.16406,0.16407 24.47266,24.47265 -24.47266,24.47266 0.16602,0.16601 -0.16602,0.16602 h 0.33203 20.54688 l 14.19922,-14.19922 10.60742,-10.60547 -10.60742,-10.60742 -14.19727,-14.19726 h -20.54883 z m -103.93555,13.76171 c 3.55479,0 6.29372,0.95578 8.2168,2.86914 1.92308,1.90366 2.88477,4.57544 2.88477,8.01368 0,2.49612 -0.42259,4.54587 -1.26758,6.14843 -0.83528,1.59286 -2.04973,2.83497 -3.64258,3.72852 -1.58314,0.88384 -3.55983,1.32617 -5.92969,1.32617 -2.4087,0 -4.40514,-0.3831 -5.98828,-1.15039 -1.57343,-0.76729 -2.84911,-1.98174 -3.83008,-3.64258 -0.98096,-1.66084 -1.47265,-3.74021 -1.47265,-6.23633 0,-3.48679 0.97156,-6.20007 2.91406,-8.14257 1.9425,-1.94251 4.64786,-2.91407 8.11523,-2.91407 z m -38.43359,0.36329 h 8.68359 l 3.35157,12.99609 3.33593,-12.99609 h 8.6543 v 21.35937 h -5.39062 v -16.28906 l -4.18164,16.28906 h -4.88086 l -4.16602,-16.28906 v 16.28906 h -5.40625 z m 53.17773,0 h 10.99805 c 2.03963,0 3.59965,0.17573 4.67774,0.52539 1.07809,0.34965 1.94697,0.99934 2.60742,1.95117 0.66045,0.94211 0.99023,2.09337 0.99023,3.45312 0,1.18493 -0.25276,2.20981 -0.75781,3.07422 -0.50505,0.8547 -1.19819,1.5498 -2.08203,2.08399 -0.56333,0.33993 -1.33544,0.62036 -2.31641,0.84375 0.78672,0.26223 1.35939,0.52488 1.71875,0.7871 0.24282,0.17483 0.59234,0.55001 1.04883,1.12305 0.4662,0.57304 0.77624,1.01342 0.93164,1.32422 l 3.19141,6.19336 h -7.45899 l -3.52539,-6.52734 c -0.44677,-0.84499 -0.84566,-1.39396 -1.19531,-1.64649 -0.47591,-0.33022 -1.01501,-0.49609 -1.61719,-0.49609 h -0.58203 v 8.66992 h -6.62891 z m 23.10547,0 h 17.68555 v 4.56054 h -11.07226 v 3.39453 h 10.27148 v 4.35547 h -10.27148 v 4.21094 h 11.39453 v 4.83789 h -18.00782 z m -16.47656,4.3125 v 4.34179 h 2.78125 c 0.30109,0 0.88363,-0.0968 1.74805,-0.29101 0.43706,-0.0874 0.7925,-0.31056 1.06445,-0.66993 0.28166,-0.35936 0.42188,-0.77208 0.42188,-1.23828 0,-0.68959 -0.21724,-1.21881 -0.6543,-1.58789 -0.43706,-0.36907 -1.25854,-0.55469 -2.46289,-0.55468 z m -21.38867,0.32031 c -1.33062,0 -2.39894,0.47195 -3.20508,1.41406 -0.80614,0.94211 -1.20898,2.50018 -1.20898,4.67578 0,2.15618 0.39888,3.70632 1.19531,4.64844 0.80614,0.94211 1.89816,1.41211 3.27734,1.41211 1.41803,0 2.51597,-0.46012 3.29297,-1.38281 0.777,-0.92269 1.16602,-2.57947 1.16602,-4.96875 0,-2.0105 -0.40876,-3.47575 -1.22461,-4.39844 -0.80614,-0.9324 -1.90408,-1.40039 -3.29297,-1.40039 z"
       transform="scale(0.26458333)" />
  </g>
</svg>
