<?xml version="1.0" encoding="UTF-8" standalone="no"?>
<svg
   xmlns:dc="http://purl.org/dc/elements/1.1/"
   xmlns:cc="http://creativecommons.org/ns#"
   xmlns:rdf="http://www.w3.org/1999/02/22-rdf-syntax-ns#"
   xmlns:svg="http://www.w3.org/2000/svg"
   xmlns="http://www.w3.org/2000/svg"
   xmlns:sodipodi="http://sodipodi.sourceforge.net/DTD/sodipodi-0.dtd"
   xmlns:inkscape="http://www.inkscape.org/namespaces/inkscape"
   width="29.082031"
   height="49.999973"
   viewBox="0 0 7.6946208 13.22916"
   version="1.1"
   id="svg8"
   inkscape:version="1.0 (4035a4fb49, 2020-05-01)"
   sodipodi:docname="Notification-Icon.svg">
  <defs
     id="defs2" />
  <sodipodi:namedview
     id="base"
     pagecolor="#ffffff"
     bordercolor="#666666"
     borderopacity="1.0"
     inkscape:pageopacity="0.0"
     inkscape:pageshadow="2"
     inkscape:zoom="8.3638337"
     inkscape:cx="28.332971"
     inkscape:cy="18.304405"
     inkscape:document-units="px"
     inkscape:current-layer="layer1"
     showgrid="false"
     inkscape:snap-bbox="true"
     inkscape:bbox-paths="true"
     inkscape:bbox-nodes="true"
     inkscape:snap-bbox-edge-midpoints="true"
     inkscape:snap-bbox-midpoints="true"
     showguides="false"
     units="px"
     inkscape:window-width="1600"
     inkscape:window-height="877"
     inkscape:window-x="-8"
     inkscape:window-y="-8"
     inkscape:window-maximized="1"
     fit-margin-top="0"
     fit-margin-left="0"
     fit-margin-right="0"
     fit-margin-bottom="0"
     inkscape:document-rotation="0" />
  <metadata
     id="metadata5">
    <rdf:RDF>
      <cc:Work
         rdf:about="">
        <dc:format>image/svg+xml</dc:format>
        <dc:type
           rdf:resource="http://purl.org/dc/dcmitype/StillImage" />
        <dc:title />
      </cc:Work>
    </rdf:RDF>
  </metadata>
  <g
     inkscape:label="Layer 1"
     inkscape:groupmode="layer"
     id="layer1"
     transform="translate(-0.74061079,-256.1028)">
    <path
       inkscape:connector-curvature="0"
       id="rect7761"
       d="m 4.5879214,256.1028 a 1.6776577,1.6410496 0 0 0 -1.6779339,1.64082 1.6776577,1.6410496 0 0 0 0.5699912,1.23035 c -1.0895971,0.42774 -1.8562176,1.4669 -1.8562176,2.6892 v 0.60203 0.60153 3.32713 a 3.8474286,0.90803487 0 0 0 -0.88315031,0.57878 3.8474286,0.90803487 0 0 0 3.84731061,0.90786 3.8474286,0.90803487 0 0 0 3.8473106,-0.90786 3.8474286,0.90803487 0 0 0 -0.8836671,-0.57828 v -3.32763 -0.60153 -0.60203 c 0,-1.22194 -0.7661101,-2.26071 -1.855184,-2.68869 a 1.6776577,1.6410496 0 0 0 0.5689576,-1.23086 1.6776577,1.6410496 0 0 0 -1.6774171,-1.64082 z m 0,0.70011 a 0.96185715,0.94086849 0 0 1 0.9616985,0.94071 0.96185715,0.94086849 0 0 1 -0.9616985,0.94121 0.96185715,0.94086849 0 0 1 -0.9616985,-0.94121 0.96185715,0.94086849 0 0 1 0.9616985,-0.94071 z m -1.383895,11.11062 a 1.3868637,1.356601 0 0 0 -0.0031,0.0622 1.3868637,1.356601 0 0 0 1.3864784,1.35623 1.3868637,1.356601 0 0 0 1.3869956,-1.35623 1.3868637,1.356601 0 0 0 -0.00206,-0.0611 3.8474286,0.90803484 0 0 1 -1.3849281,0.0611 3.8474286,0.90803484 0 0 1 -1.3833783,-0.0622 z"
       style="fill:#fff;fill-opacity:1;fill-rule:evenodd;stroke:none;stroke-width:0.0989028;stroke-miterlimit:4;stroke-dasharray:none;stroke-opacity:1" />
  </g>
</svg>
