<?xml version="1.0" encoding="UTF-8" standalone="no"?>
<svg
   xmlns:dc="http://purl.org/dc/elements/1.1/"
   xmlns:cc="http://creativecommons.org/ns#"
   xmlns:rdf="http://www.w3.org/1999/02/22-rdf-syntax-ns#"
   xmlns:svg="http://www.w3.org/2000/svg"
   xmlns="http://www.w3.org/2000/svg"
   xmlns:sodipodi="http://sodipodi.sourceforge.net/DTD/sodipodi-0.dtd"
   xmlns:inkscape="http://www.inkscape.org/namespaces/inkscape"
   width="18.750031pt"
   height="37.5pt"
   viewBox="0 0 6.6145943 13.229166"
   version="1.1"
   id="svg35"
   inkscape:version="1.0 (4035a4fb49, 2020-05-01)"
   sodipodi:docname="prev.svg">
  <defs
     id="defs29" />
  <sodipodi:namedview
     id="base"
     pagecolor="#ffffff"
     bordercolor="#666666"
     borderopacity="1.0"
     inkscape:pageopacity="0.0"
     inkscape:pageshadow="2"
     inkscape:zoom="11.2"
     inkscape:cx="6.3744488"
     inkscape:cy="24.554746"
     inkscape:document-units="px"
     inkscape:current-layer="layer1"
     inkscape:document-rotation="0"
     showgrid="false"
     units="pt"
     inkscape:window-width="1600"
     inkscape:window-height="877"
     inkscape:window-x="-8"
     inkscape:window-y="-8"
     inkscape:window-maximized="1" />
  <metadata
     id="metadata32">
    <rdf:RDF>
      <cc:Work
         rdf:about="">
        <dc:format>image/svg+xml</dc:format>
        <dc:type
           rdf:resource="http://purl.org/dc/dcmitype/StillImage" />
        <dc:title />
      </cc:Work>
    </rdf:RDF>
  </metadata>
  <g
     inkscape:label="Layer 1"
     inkscape:groupmode="layer"
     id="layer1"
     transform="translate(-94.966519,-148.35567)">
    <g
       id="g921">
      <path
         id="path10"
         style="fill:#b3b3b3;fill-opacity:1;fill-rule:evenodd;stroke-width:0.22152"
         d="M 0,0 V 1 A 24.000355,24.000355 0 0 1 24,24.914062 24.000355,24.000355 0 0 1 24,25 24.000355,24.000355 0 0 1 0,49 v 1 A 25.000322,25.000322 0 0 0 25,25 25.000322,25.000322 0 0 0 25,24.910156 25.000322,25.000322 0 0 0 0,0 Z"
         transform="matrix(0.26458333,0,0,0.26458333,94.966519,148.35567)" />
      <path
         id="path23-2-3"
         style="fill:none;fill-opacity:1;fill-rule:evenodd;stroke-width:0.0562663"
         d="m 101.31651,154.94739 a 6.3500936,6.3500936 0 0 0 -6.349991,-6.32714 v 12.7 a 6.3500936,6.3500936 0 0 0 6.349991,-6.35 6.3500936,6.3500936 0 0 0 0,-0.0229 z" />
      <path
         sodipodi:nodetypes="cccccscc"
         d="m 100.40882,154.95125 c -0.005,-1.43683 -0.577971,-2.81339 -1.593951,-3.8294 l -2.6762,3.8484 2.67575,3.84818 -0.0359,0.0359 c 1.04278,-1.02338 1.630281,-2.42306 1.630351,-3.88412 0,-0.006 0,-0.0127 0,-0.019 z"
         style="fill:#b3b3b3;fill-opacity:1;fill-rule:evenodd;stroke-width:0.048224"
         id="path42" />
    </g>
  </g>
</svg>
