<?xml version="1.0" encoding="UTF-8" standalone="no"?>
<!-- Created with Inkscape (http://www.inkscape.org/) -->

<svg
   xmlns:dc="http://purl.org/dc/elements/1.1/"
   xmlns:cc="http://creativecommons.org/ns#"
   xmlns:rdf="http://www.w3.org/1999/02/22-rdf-syntax-ns#"
   xmlns:svg="http://www.w3.org/2000/svg"
   xmlns="http://www.w3.org/2000/svg"
   xmlns:sodipodi="http://sodipodi.sourceforge.net/DTD/sodipodi-0.dtd"
   xmlns:inkscape="http://www.inkscape.org/namespaces/inkscape"
   width="13.22917mm"
   height="13.22917mm"
   viewBox="0 0 13.22917 13.22917"
   version="1.1"
   id="svg8"
   inkscape:version="0.92.5 (2060ec1f9f, 2020-04-08)"
   sodipodi:docname="Register icon.svg">
  <defs
     id="defs2" />
  <sodipodi:namedview
     id="base"
     pagecolor="#ffffff"
     bordercolor="#666666"
     borderopacity="1.0"
     inkscape:pageopacity="0.0"
     inkscape:pageshadow="2"
     inkscape:zoom="1.4142136"
     inkscape:cx="235.88835"
     inkscape:cy="53.329769"
     inkscape:document-units="mm"
     inkscape:current-layer="layer1"
     showgrid="false"
     fit-margin-top="0"
     fit-margin-left="0"
     fit-margin-right="0"
     fit-margin-bottom="0"
     inkscape:snap-bbox="true"
     inkscape:bbox-paths="true"
     inkscape:bbox-nodes="true"
     inkscape:snap-bbox-edge-midpoints="true"
     inkscape:snap-bbox-midpoints="true"
     inkscape:window-width="1600"
     inkscape:window-height="877"
     inkscape:window-x="-8"
     inkscape:window-y="-8"
     inkscape:window-maximized="1"
     inkscape:snap-midpoints="false"
     inkscape:snap-smooth-nodes="false"
     inkscape:object-nodes="true" />
  <metadata
     id="metadata5">
    <rdf:RDF>
      <cc:Work
         rdf:about="">
        <dc:format>image/svg+xml</dc:format>
        <dc:type
           rdf:resource="http://purl.org/dc/dcmitype/StillImage" />
        <dc:title />
      </cc:Work>
    </rdf:RDF>
  </metadata>
  <g
     inkscape:label="Layer 1"
     inkscape:groupmode="layer"
     id="layer1"
     transform="translate(-370.41174,-364.57576)">
    <path
       style="opacity:1;fill:#ffffff;fill-opacity:1;fill-rule:evenodd;stroke:none;stroke-width:0.21878734;stroke-miterlimit:4;stroke-dasharray:none;stroke-opacity:1"
       d="m 370.95393,364.57618 c -0.30038,0 -0.54219,0.24829 -0.54219,0.55687 v 12.11436 c 0,0.30857 0.24181,0.55707 0.54219,0.55707 h 6.02894 0.23347 l 0.16216,-0.16662 c -8.1e-4,-8.3e-4 -0.002,-10e-4 -0.002,-0.002 l 3.36748,-3.45914 c 8.1e-4,8.3e-4 10e-4,0.002 0.002,0.002 l 0.158,-0.16234 v -8.88376 c 0,-0.30857 -0.24181,-0.55686 -0.54219,-0.55686 z m 11.53108,0.0936 a 1.1557318,0.51232823 0 0 0 -1.15568,0.5123 v 1.02463 h 2.31158 v -1.02463 a 1.1557318,0.51232823 0 0 0 -1.1559,-0.5123 z m -2.55294,0.50995 c 0.27296,0 0.49271,0.2257 0.49271,0.5061 v 8.05446 h -1.04405 c 0.18827,-0.0744 0.32182,-0.26089 0.32182,-0.48167 0,-0.28644 -0.22382,-0.51702 -0.50186,-0.51702 h -7.08588 c -0.27804,0 -0.50186,0.23058 -0.50186,0.51702 0,0.28643 0.22382,0.51702 0.50186,0.51702 h 5.26514 c -0.23101,0.0793 -0.39708,0.30447 -0.39708,0.57164 v 0.46239 h -4.86806 c -0.27804,0 -0.50186,0.23058 -0.50186,0.51702 0,0.28643 0.22382,0.51701 0.50186,0.51701 h 4.86806 v 1.35702 h -5.59943 c -0.27296,0 -0.49271,-0.2257 -0.49271,-0.5061 v -11.00815 c 0,-0.2804 0.21975,-0.5061 0.49271,-0.5061 z m 1.39726,1.3009 v 7.32006 h 2.31158 v -7.32006 z m -9.21452,0.0565 c -0.27804,0 -0.50186,0.23058 -0.50186,0.51701 0,0.28644 0.22382,0.51702 0.50186,0.51702 h 7.08588 c 0.27804,0 0.50186,-0.23058 0.50186,-0.51702 0,-0.28643 -0.22382,-0.51701 -0.50186,-0.51701 z m 0,2.06806 c -0.27804,0 -0.50186,0.23059 -0.50186,0.51703 0,0.28643 0.22382,0.51701 0.50186,0.51701 h 7.08588 c 0.27804,0 0.50186,-0.23058 0.50186,-0.51701 0,-0.28644 -0.22382,-0.51703 -0.50186,-0.51703 z m 0,2.06808 c -0.27804,0 -0.50186,0.23058 -0.50186,0.51702 0,0.28643 0.22382,0.51722 0.50186,0.51722 h 7.08588 c 0.27804,0 0.50186,-0.23079 0.50186,-0.51722 0,-0.28644 -0.22382,-0.51702 -0.50186,-0.51702 z m 9.21452,3.40131 0.77191,2.42895 h 0.76775 l 0.77192,-2.42895 z m -2.97248,0.12529 h 1.63405 l -2.56459,2.63457 v -1.668 -0.49689 c 0,-0.25814 0.20007,-0.46604 0.44864,-0.46604 h 0.47836 z m 3.8315,2.57738 0.29666,0.9338 0.29688,-0.9338 z m -1.285,0.46155 c 0,0.31095 -0.24363,0.56113 -0.54635,0.56113 h -0.58273 l -0.004,0.005 h 0.59105 c 0.30038,0 0.54219,-0.2485 0.54219,-0.55706 z"
       id="rect1046"
       inkscape:connector-curvature="0" />
  </g>
</svg>
