<?xml version="1.0" encoding="UTF-8" standalone="no"?>
<svg
   xmlns:dc="http://purl.org/dc/elements/1.1/"
   xmlns:cc="http://creativecommons.org/ns#"
   xmlns:rdf="http://www.w3.org/1999/02/22-rdf-syntax-ns#"
   xmlns:svg="http://www.w3.org/2000/svg"
   xmlns="http://www.w3.org/2000/svg"
   xmlns:sodipodi="http://sodipodi.sourceforge.net/DTD/sodipodi-0.dtd"
   xmlns:inkscape="http://www.inkscape.org/namespaces/inkscape"
   sodipodi:docname="Sample-paper.svg"
   inkscape:version="1.0 (4035a4fb49, 2020-05-01)"
   id="svg8"
   version="1.1"
   viewBox="0 0 139.81111 92.065705"
   height="347.96484"
   width="528.41998">
  <defs
     id="defs2" />
  <sodipodi:namedview
     inkscape:document-rotation="0"
     fit-margin-bottom="0"
     fit-margin-right="0"
     fit-margin-left="0"
     fit-margin-top="0"
     inkscape:window-maximized="1"
     inkscape:window-y="-8"
     inkscape:window-x="-8"
     inkscape:window-height="877"
     inkscape:window-width="1600"
     inkscape:snap-midpoints="true"
     inkscape:snap-smooth-nodes="true"
     inkscape:snap-intersection-paths="true"
     inkscape:object-paths="true"
     inkscape:snap-bbox-midpoints="true"
     inkscape:snap-bbox-edge-midpoints="true"
     inkscape:bbox-nodes="true"
     inkscape:bbox-paths="true"
     inkscape:snap-bbox="true"
     units="px"
     showgrid="false"
     inkscape:current-layer="layer1"
     inkscape:document-units="px"
     inkscape:cy="186.43499"
     inkscape:cx="8.5774515"
     inkscape:zoom="0.70379222"
     inkscape:pageshadow="2"
     inkscape:pageopacity="0.0"
     borderopacity="1.0"
     bordercolor="#666666"
     pagecolor="#ffffff"
     id="base" />
  <metadata
     id="metadata5">
    <rdf:RDF>
      <cc:Work
         rdf:about="">
        <dc:format>image/svg+xml</dc:format>
        <dc:type
           rdf:resource="http://purl.org/dc/dcmitype/StillImage" />
        <dc:title />
      </cc:Work>
    </rdf:RDF>
  </metadata>
  <g
     transform="translate(16.755294,-55.80896)"
     id="layer1"
     inkscape:groupmode="layer"
     inkscape:label="Layer 1">
    <path
       inkscape:connector-curvature="0"
       id="rect815"
       d="m 68.394026,55.80896 a 7.1429162,6.578914 0 0 0 -7.14323,6.57893 h -4.97644 c -3.08742,0 -5.57279,1.66546 -5.57279,3.73466 v 2.37711 3.54655 c 0,3.08742 2.48538,5.57279 5.57279,5.57279 h 24.23935 c 3.08742,0 5.57278,-2.48537 5.57278,-5.57279 v -3.54655 -2.37711 c 0,-2.0692 -2.48536,-3.73466 -5.57278,-3.73466 h -4.97644 a 7.1429162,6.578914 0 0 0 -7.14324,-6.57893 z m 46.512934,0 a 8.1403012,6.9204257 0 0 0 -8.14007,6.92 v 6.9205 h 8.14007 8.14059 v -6.9205 a 8.1403012,6.9204257 0 0 0 -8.14059,-6.92 z m -71.611144,12.6907 c -4.41809,0 -7.9747,3.55662 -7.9747,7.97471 v 63.42559 c 0,4.41808 3.55661,7.9747 7.9747,7.9747 h 50.19642 c 4.41808,0 7.974724,-3.55662 7.974724,-7.9747 V 76.47437 c 0,-4.41809 -3.556644,-7.97471 -7.974724,-7.97471 h -3.30005 v 5.14284 c 0,4.47735 -3.60484,8.08219 -8.0822,8.08219 h -27.43192 c -4.47735,0 -8.08219,-3.60484 -8.08219,-8.08219 v -5.14284 z m 63.463324,3.5941 v 48.89056 h 16.29668 V 72.09376 Z M 46.889396,85.77613 c 0.92385,0 1.8475,0.35404 2.5554,1.06195 l 3.40755,3.40754 3.40754,-3.40754 c 1.41582,-1.41581 3.6955,-1.41581 5.11132,0 1.41582,1.41582 1.41582,3.69549 0,5.11131 l -3.40755,3.40754 3.40755,3.40703 c 1.41582,1.41583 1.41582,3.69552 0,5.11132 -1.41582,1.41582 -3.6955,1.41582 -5.11132,0 l -3.40754,-3.40755 -3.40755,3.40755 c -1.41581,1.41582 -3.69549,1.41582 -5.11131,0 -1.41581,-1.4158 -1.41581,-3.69549 0,-5.11132 l 3.40754,-3.40703 -3.40754,-3.40754 c -1.41581,-1.41582 -1.41581,-3.69549 0,-5.11131 0.70791,-0.70791 1.63205,-1.06195 2.55591,-1.06195 z m 27.45001,5.61206 h 15.22129 c 2.19869,0 3.96876,1.77005 3.96875,3.96874 0,2.19869 -1.77006,3.96875 -3.96875,3.96875 h -15.22129 c -2.19869,0 -3.96875,-1.77006 -3.96875,-3.96875 0,-2.19869 1.77006,-3.96874 3.96875,-3.96874 z m -84.2046801,10.45362 a 6.8895922,6.8895922 0 0 0 -6.8900199,6.89002 6.8895922,6.8895922 0 0 0 4.49688,6.45542 21.411403,21.411403 0 0 1 8.8470099,-8.84235 6.8895922,6.8895922 0 0 0 -6.45387,-4.50309 z m 33.0047001,0 a 6.8895922,6.8895922 0 0 0 -6.45542,4.49689 21.411403,21.411403 0 0 1 8.84183,8.847 6.8895922,6.8895922 0 0 0 4.50309,-6.45387 6.8895922,6.8895922 0 0 0 -6.8895,-6.89002 z m 36.43757,5.11287 c 0.72932,0 1.45913,0.27937 2.01797,0.8382 1.11766,1.11766 1.11766,2.91721 0,4.03489 l -9.41493,9.41493 c -1.11768,1.11768 -2.91722,1.11768 -4.0349,0 l -4.03489,-4.0349 c -1.11769,-1.11768 -1.11769,-2.91722 0,-4.0349 1.11766,-1.11766 2.91721,-1.11766 4.03489,0 l 2.01745,2.01746 7.39696,-7.39748 c 0.55883,-0.55883 1.28814,-0.8382 2.01745,-0.8382 z m -52.9404401,0.0961 a 18.183158,18.183158 0 0 0 -18.1828699,18.1834 18.183158,18.183158 0 0 0 4.1124199,11.49904 l -8.0356899,8.03568 c -0.71229,0.71231 -0.71229,1.85912 0,2.57142 0.71231,0.71232 1.85912,0.71232 2.57142,0 l 8.0356799,-8.03517 a 18.183158,18.183158 0 0 0 11.49904,4.1119 18.183158,18.183158 0 0 0 11.4995601,-4.11241 l 8.03568,8.03568 c 0.7123,0.71232 1.85911,0.71232 2.57142,0 0.71229,-0.7123 0.71229,-1.85911 0,-2.57142 l -8.03569,-8.03517 a 18.183158,18.183158 0 0 0 4.11242,-11.49955 18.183158,18.183158 0 0 0 -18.1833901,-18.1834 z m 0,2.90939 c 1.0121,0 1.82728,0.81519 1.82728,1.82728 v 11.61997 h 2.0567201 c 1.01209,0 1.82677,0.81466 1.82677,1.82676 0,1.01208 -0.81468,1.82676 -1.82677,1.82676 H 8.4638359 v 2.05672 c 0,1.01209 -0.81518,1.82728 -1.82728,1.82728 -1.01208,0 -1.82676,-0.81519 -1.82676,-1.82728 v -2.05672 h -7.0528 c -1.01208,0 -1.82676,-0.81468 -1.82676,-1.82676 0,-1.0121 0.81468,-1.82676 1.82676,-1.82676 h 7.0528 v -11.61998 c 0,-1.01209 0.81468,-1.82728 1.82676,-1.82728 z m 67.7028501,0.58912 h 15.22129 c 2.19869,0 3.96876,1.77007 3.96875,3.96875 0,2.19869 -1.77006,3.96875 -3.96875,3.96875 h -15.22129 c -2.19869,0 -3.96875,-1.77006 -3.96875,-3.96875 0,-2.19868 1.77006,-3.96875 3.96875,-3.96875 z m 32.419734,12.87983 4.61729,13.85239 h 7.06158 l 4.61781,-13.85239 z M 6.6365559,123.83374 a 1.4006075,1.4006075 0 0 0 -1.40043,1.40043 1.4006075,1.4006075 0 0 0 1.40043,1.40043 1.4006075,1.4006075 0 0 0 1.40043,-1.40043 1.4006075,1.4006075 0 0 0 -1.40043,-1.40043 z m 52.9404401,2.28203 c 0.72932,0 1.45913,0.27987 2.01797,0.8387 1.11766,1.11769 1.11766,2.91722 0,4.0349 l -9.41493,9.41493 c -1.11768,1.11768 -2.91722,1.11768 -4.0349,0 l -4.03489,-4.03541 c -1.11769,-1.11769 -1.11769,-2.91723 0,-4.0349 1.11766,-1.11767 2.91721,-1.11767 4.03489,0 l 2.01745,2.01745 7.39696,-7.39697 c 0.55883,-0.55883 1.28814,-0.8387 2.01745,-0.8387 z m 14.76241,3.59461 h 15.22129 c 2.19869,0 3.96876,1.77006 3.96875,3.96875 0,2.19868 -1.77006,3.96875 -3.96875,3.96875 h -15.22129 c -2.19869,0 -3.96875,-1.77007 -3.96875,-3.96875 0,-2.19869 1.77006,-3.96875 3.96875,-3.96875 z m 37.851964,10.01541 2.71611,8.14885 2.71612,-8.14885 z"
       style="opacity:1;fill:#1877f2;fill-opacity:1;fill-rule:evenodd;stroke:none;stroke-width:0.0492752;stroke-miterlimit:4;stroke-dasharray:none;stroke-opacity:1" />
  </g>
</svg>
