<?xml version="1.0" encoding="UTF-8" standalone="no"?>
<svg
   xmlns:dc="http://purl.org/dc/elements/1.1/"
   xmlns:cc="http://creativecommons.org/ns#"
   xmlns:rdf="http://www.w3.org/1999/02/22-rdf-syntax-ns#"
   xmlns:svg="http://www.w3.org/2000/svg"
   xmlns="http://www.w3.org/2000/svg"
   xmlns:sodipodi="http://sodipodi.sourceforge.net/DTD/sodipodi-0.dtd"
   xmlns:inkscape="http://www.inkscape.org/namespaces/inkscape"
   sodipodi:docname="Scholarship.svg"
   inkscape:version="1.0 (4035a4fb49, 2020-05-01)"
   id="svg8"
   version="1.1"
   viewBox="0 0 90.929854 71.584256"
   height="270.55466"
   width="343.67188">
  <defs
     id="defs2" />
  <sodipodi:namedview
     inkscape:document-rotation="0"
     inkscape:window-maximized="1"
     inkscape:window-y="-8"
     inkscape:window-x="-8"
     inkscape:window-height="877"
     inkscape:window-width="1600"
     units="px"
     fit-margin-bottom="0"
     fit-margin-left="0"
     fit-margin-right="0"
     fit-margin-top="0"
     inkscape:snap-bbox-midpoints="true"
     inkscape:snap-bbox-edge-midpoints="true"
     inkscape:bbox-nodes="true"
     inkscape:bbox-paths="true"
     inkscape:snap-bbox="true"
     showgrid="false"
     inkscape:current-layer="layer1"
     inkscape:document-units="px"
     inkscape:cy="264.04545"
     inkscape:cx="652.91478"
     inkscape:zoom="0.99531247"
     inkscape:pageshadow="2"
     inkscape:pageopacity="0.0"
     borderopacity="1.0"
     bordercolor="#666666"
     pagecolor="#ffffff"
     id="base" />
  <metadata
     id="metadata5">
    <rdf:RDF>
      <cc:Work
         rdf:about="">
        <dc:format>image/svg+xml</dc:format>
        <dc:type
           rdf:resource="http://purl.org/dc/dcmitype/StillImage" />
        <dc:title />
      </cc:Work>
    </rdf:RDF>
  </metadata>
  <g
     transform="translate(51.48341,-80.081059)"
     id="layer1"
     inkscape:groupmode="layer"
     inkscape:label="Layer 1">
    <g
       id="g5935"
       transform="translate(-132.11535,-2.1484227)">
      <path
         id="rect1033"
         d="m 128.84295,82.229482 0.007,0.01963 a 5.3523692,5.3523692 0 0 1 5.3e-4,-0.01963 z m 10.69495,0 a 5.3523692,5.3523692 0 0 1 0.01,0.198956 5.3523692,5.3523692 0 0 1 0.007,-0.198956 z m 0.01,0.198956 a 5.3523692,5.3523692 0 0 1 -5.35213,5.352645 5.3523692,5.3523692 0 0 1 -4.19561,-2.03812 l 2.97243,9.027872 h 13.15114 l 2.96674,-9.01237 a 5.3523692,5.3523692 0 0 1 -4.19044,2.022618 5.3523692,5.3523692 0 0 1 -5.35213,-5.352645 z m 10.69496,-0.198956 a 5.3523692,5.3523692 0 0 1 0.002,0.02585 l 0.009,-0.02585 z m -27.01696,5.998085 a 9.7461622,9.7461622 0 0 0 5.07463,8.542113 9.7461614,9.7461614 0 0 0 -5.07463,8.55348 l 1.39836,-1.39474 0.99839,1.39474 a 7.3495418,7.3495418 0 0 1 7.34891,-7.34942 9.7461622,9.7461622 0 0 1 5.3e-4,0 7.3495418,7.3495418 0 0 1 5.3e-4,0 h 13.15113 v -2.396752 h -13.15113 a 9.7461614,9.7461614 0 0 0 -5.3e-4,0 7.3495418,7.3495418 0 0 0 -5.3e-4,0 7.3495418,7.3495418 0 0 1 -7.34942,-7.349421 l -0.99839,1.394746 z m 9.74669,10.551811 c -3.96206,3.331662 -6.92516,9.928422 -6.92516,19.797762 0,7.45628 6.04417,13.50149 13.50047,13.50149 7.45631,0 13.50099,-6.04521 13.50099,-13.50149 0,-9.86934 -2.96311,-16.4661 -6.92516,-19.797762 z m 6.58203,3.690212 a 8.3717976,12.083574 0 0 1 8.3721,12.08402 8.3717976,12.083574 0 0 1 -8.3721,12.0835 8.3717976,12.083574 0 0 1 -8.37107,-12.0835 8.3717976,12.083574 0 0 1 8.37107,-12.08402 z m -35.83761,0.81545 c -0.44694,0 -0.89364,0.0723 -1.2361,0.21704 l -17.758602,7.51324 c -0.684937,0.28978 -0.684937,0.75615 0,1.04593 l 17.758602,7.51324 c 0.68493,0.28978 1.78778,0.28978 2.47272,0 l 13.47566,-5.70146 v 7.80262 a 2.8317258,2.8317258 0 0 0 -1.91978,2.67736 2.8317258,2.8317258 0 0 0 2.83187,2.83187 2.8317258,2.8317258 0 0 0 2.83187,-2.83187 2.8317258,2.8317258 0 0 0 -1.91978,-2.67787 v -8.57364 l 2.45825,-1.04025 c 0.68493,-0.28978 0.68493,-0.75615 0,-1.04593 l -17.75809,-7.51324 c -0.34247,-0.14487 -0.78968,-0.21704 -1.23662,-0.21704 z m 35.83813,0.40773 a 7.5246605,10.860846 0 0 0 -7.52461,10.86084 7.5246605,10.860846 0 0 0 7.52461,10.86083 7.5246605,10.860846 0 0 0 7.5246,-10.86083 7.5246605,10.860846 0 0 0 -7.5246,-10.86084 z m -5.3e-4,1.36168 a 6.5810301,9.4987527 0 0 1 6.58151,9.49916 6.5810301,9.4987527 0 0 1 -6.58151,9.49864 6.5810301,9.4987527 0 0 1 -6.58099,-9.49864 6.5810301,9.4987527 0 0 1 6.58099,-9.49916 z m -3.90519,3.91242 c -0.48215,0 -0.87023,0.38859 -0.87023,0.87075 0,0.48216 0.38808,0.87023 0.87023,0.87023 h 4.07934 a 5.3379896,5.3379896 0 0 1 -0.11524,1.09192 h -2.00143 c -0.48217,0 -0.87023,0.3886 -0.87023,0.87075 0,0.48217 0.38806,0.87023 0.87023,0.87023 h 1.29346 a 5.3379896,5.3379896 0 0 1 -2.06137,1.90479 l -0.44028,-0.76274 c -0.24108,-0.41756 -0.77151,-0.55942 -1.18908,-0.31833 -0.41757,0.24108 -0.55941,0.771 -0.31833,1.18856 l 3.90519,6.76496 c 0.24107,0.41756 0.77152,0.55888 1.18908,0.31781 0.41756,-0.24109 0.55942,-0.771 0.31832,-1.18856 l -2.60035,-4.50411 a 7.0786611,7.0786611 0 0 0 3.15278,-3.40238 h 1.28932 c 0.48216,0 0.87023,-0.38806 0.87023,-0.87023 0,-0.48215 -0.38807,-0.87075 -0.87023,-0.87075 h -0.77618 a 7.0786611,7.0786611 0 0 0 0.0941,-1.09192 h 1.99161 c 0.48216,0 0.87023,-0.38807 0.87023,-0.87023 0,-0.48216 -0.38807,-0.87075 -0.87023,-0.87075 z m -43.654168,7.22953 v 14.40481 a 11.722021,1.4773785 0 0 0 11.721768,1.47742 11.722021,1.4773785 0 0 0 11.72228,-1.47742 V 116.1964 l -10.48567,4.43591 c -0.68494,0.28977 -1.78778,0.28977 -2.47271,0 z m 30.603298,9.56117 a 3.5912028,3.5912028 0 0 1 -3.31194,2.21124 3.5912028,3.5912028 0 0 1 -2.93005,-1.52187 v 2.54145 2.54351 a 12.718879,1.6030171 0 0 1 -12.71861,1.603 12.718879,1.6030171 0 0 1 -12.710334,-1.58026 l -6.207371,1.58233 h -0.187587 a 2.5375918,5.1691709 0 0 0 -2.537831,5.16919 2.5375918,5.1691709 0 0 0 1.946135,5.02037 l -0.583427,0.14883 H 83.16977 a 2.5375918,5.1691709 0 0 0 -2.53783,5.16919 2.5375918,5.1691709 0 0 0 2.53783,5.16919 h 58.08224 a 2.5375918,5.1691709 0 0 1 -2.53783,-5.16919 2.5375918,5.1691709 0 0 1 2.53783,-5.16919 h 1.36271 a 2.5375918,5.1691709 0 0 1 -0.65371,-0.18087 l 28.23807,-7.19905 h -29.87466 a 2.5375918,5.1691709 0 0 1 2.2903,-2.95847 l 28.94707,-7.3794 h -19.36936 c -2.481,4.40363 -7.1976,7.3794 -12.61215,7.3794 -5.41455,0 -10.13115,-2.97577 -12.61215,-7.3794 z"
         style="fill:#fff;fill-opacity:1;fill-rule:evenodd;stroke:none;stroke-width:0.596717;stroke-miterlimit:4;stroke-dasharray:none;stroke-opacity:1"
         inkscape:connector-curvature="0" />
      <path
         inkscape:connector-curvature="0"
         id="rect1045"
         d="m 170.95924,125.91054 -28.34452,7.22643 a 2.5375919,5.1691709 0 0 0 -2.53783,5.16919 2.5375919,5.1691709 0 0 0 1.87895,4.98988 l -0.70383,0.17932 a 2.5375919,5.1691709 0 0 0 -2.53783,5.16919 2.5375919,5.1691709 0 0 0 2.53783,5.16919 2.5375919,5.1691709 0 0 0 0.60255,-0.15348 l 28.34452,-7.22643 a 2.5375919,5.1691709 0 0 1 -2.53783,-5.16919 2.5375919,5.1691709 0 0 1 1.3069,-4.50774 l 2.59364,-0.66145 a 2.5375919,5.1691709 0 0 1 -2.53783,-5.1692 2.5375919,5.1691709 0 0 1 1.93528,-5.01571 z"
         style="fill:#cccccc;fill-opacity:1;fill-rule:evenodd;stroke:none;stroke-width:0.529167;stroke-miterlimit:4;stroke-dasharray:none;stroke-opacity:1" />
    </g>
  </g>
</svg>
