<?xml version="1.0" encoding="UTF-8" standalone="no"?>
<svg
   xmlns:dc="http://purl.org/dc/elements/1.1/"
   xmlns:cc="http://creativecommons.org/ns#"
   xmlns:rdf="http://www.w3.org/1999/02/22-rdf-syntax-ns#"
   xmlns:svg="http://www.w3.org/2000/svg"
   xmlns="http://www.w3.org/2000/svg"
   xmlns:sodipodi="http://sodipodi.sourceforge.net/DTD/sodipodi-0.dtd"
   xmlns:inkscape="http://www.inkscape.org/namespaces/inkscape"
   width="50"
   height="49.999985"
   viewBox="0 0 13.229167 13.229163"
   version="1.1"
   id="svg8"
   inkscape:version="1.0 (4035a4fb49, 2020-05-01)"
   sodipodi:docname="Search-Icon.svg">
  <defs
     id="defs2" />
  <sodipodi:namedview
     id="base"
     pagecolor="#ffffff"
     bordercolor="#666666"
     borderopacity="1.0"
     inkscape:pageopacity="0.0"
     inkscape:pageshadow="2"
     inkscape:zoom="5.9141235"
     inkscape:cx="19.58008"
     inkscape:cy="40.021729"
     inkscape:document-units="px"
     inkscape:current-layer="layer1"
     showgrid="false"
     inkscape:snap-bbox="true"
     inkscape:bbox-paths="true"
     inkscape:bbox-nodes="true"
     inkscape:snap-bbox-edge-midpoints="true"
     inkscape:snap-bbox-midpoints="true"
     showguides="false"
     units="px"
     inkscape:window-width="1600"
     inkscape:window-height="877"
     inkscape:window-x="-8"
     inkscape:window-y="-8"
     inkscape:window-maximized="1"
     fit-margin-top="0"
     fit-margin-left="0"
     fit-margin-right="0"
     fit-margin-bottom="0"
     inkscape:document-rotation="0" />
  <metadata
     id="metadata5">
    <rdf:RDF>
      <cc:Work
         rdf:about="">
        <dc:format>image/svg+xml</dc:format>
        <dc:type
           rdf:resource="http://purl.org/dc/dcmitype/StillImage" />
        <dc:title />
      </cc:Work>
    </rdf:RDF>
  </metadata>
  <g
     inkscape:label="Layer 1"
     inkscape:groupmode="layer"
     id="layer1"
     transform="translate(3.1883394,-262.15592)">
    <path
       style="opacity:1;fill:#3f51b5;fill-opacity:1;fill-rule:evenodd;stroke:none;stroke-width:0.0875785;stroke-miterlimit:4;stroke-dasharray:none;stroke-opacity:1"
       d="m 1.5131368,262.15592 a 4.7016559,4.7016565 0 0 0 -4.7014762,4.70191 4.7016559,4.7016565 0 0 0 4.7014762,4.70148 4.7016559,4.7016565 0 0 0 2.967564,-1.0588 l 1.6681232,1.66812 -0.3783964,0.37884 2.5410403,2.54104 a 1.013004,1.0129558 45.148108 0 0 1.4327846,-4.6e-4 1.013004,1.0129558 45.148108 0 0 0,-1.43233 l -2.5410402,-2.54103 -0.3788382,0.37839 -1.6676818,-1.66768 a 4.7016559,4.7016565 0 0 0 1.0583622,-2.96757 4.7016559,4.7016565 0 0 0 -4.7019177,-4.70191 z m 0,0.95548 a 3.7460345,3.7460349 0 0 1 3.7464338,3.74643 3.7460345,3.7460349 0 0 1 -0.7841682,2.28628 l -4.521e-4,-4.6e-4 a 3.746035,3.7460354 0 0 1 -0.2388709,0.28082 3.746035,3.7460354 0 0 1 -0.00397,0.005 3.7460345,3.7460349 0 0 1 -0.00354,0.004 3.746035,3.7460354 0 0 1 -0.2441696,0.23488 3.7460345,3.7460349 0 0 1 -0.053867,0.0473 3.746035,3.7460354 0 0 1 -0.1293699,0.10642 l 4.522e-4,4.5e-4 a 3.7460345,3.7460349 0 0 1 -2.2884802,0.7824 3.7460345,3.7460349 0 0 1 -3.7459922,-3.746 3.7460345,3.7460349 0 0 1 3.7459922,-3.74644 z"
       id="path7797"
       inkscape:connector-curvature="0" />
  </g>
</svg>
