<?xml version="1.0" encoding="UTF-8" standalone="no"?>
<svg
   xmlns:dc="http://purl.org/dc/elements/1.1/"
   xmlns:cc="http://creativecommons.org/ns#"
   xmlns:rdf="http://www.w3.org/1999/02/22-rdf-syntax-ns#"
   xmlns:svg="http://www.w3.org/2000/svg"
   xmlns="http://www.w3.org/2000/svg"
   xmlns:sodipodi="http://sodipodi.sourceforge.net/DTD/sodipodi-0.dtd"
   xmlns:inkscape="http://www.inkscape.org/namespaces/inkscape"
   sodipodi:docname="Settings.svg"
   inkscape:version="1.0 (4035a4fb49, 2020-05-01)"
   id="svg8"
   version="1.1"
   viewBox="0 0 26.458333 26.458334"
   height="100"
   width="100">
  <defs
     id="defs2" />
  <sodipodi:namedview
     inkscape:window-maximized="1"
     inkscape:window-y="-8"
     inkscape:window-x="-8"
     inkscape:window-height="877"
     inkscape:window-width="1600"
     inkscape:snap-midpoints="true"
     inkscape:snap-smooth-nodes="true"
     inkscape:object-paths="true"
     inkscape:snap-intersection-paths="true"
     inkscape:snap-bbox-midpoints="true"
     inkscape:snap-bbox-edge-midpoints="true"
     inkscape:bbox-nodes="true"
     inkscape:bbox-paths="true"
     inkscape:snap-bbox="true"
     units="px"
     showgrid="false"
     inkscape:document-rotation="0"
     inkscape:current-layer="layer1"
     inkscape:document-units="px"
     inkscape:cy="51.849709"
     inkscape:cx="88.606833"
     inkscape:zoom="5.6"
     inkscape:pageshadow="2"
     inkscape:pageopacity="0.0"
     borderopacity="1.0"
     bordercolor="#666666"
     pagecolor="#ffffff"
     id="base" />
  <metadata
     id="metadata5">
    <rdf:RDF>
      <cc:Work
         rdf:about="">
        <dc:format>image/svg+xml</dc:format>
        <dc:type
           rdf:resource="http://purl.org/dc/dcmitype/StillImage" />
        <dc:title></dc:title>
      </cc:Work>
    </rdf:RDF>
  </metadata>
  <g
     transform="translate(-62.771361,-105.38323)"
     id="layer1"
     inkscape:groupmode="layer"
     inkscape:label="Layer 1">
    <path
       transform="scale(0.26458333)"
       d="m 282.24609,398.29883 c -2.77,0 -5,2.23002 -5,5 v 13.05273 a 33.475642,33.475642 0 0 0 -5.52148,2.28516 l -9.22852,-9.22852 c -1.95867,-1.95867 -5.11162,-1.95868 -7.07031,0 l -7.07031,7.07227 c -1.95869,1.95868 -1.95867,5.11164 0,7.07031 l 9.22851,9.22852 a 33.475642,33.475642 0 0 0 -2.2871,5.51953 h -13.05079 c -2.77,0 -5,2.22998 -5,5 v 10 c 0,2.77001 2.23,5 5,5 h 13.05274 a 33.475642,33.475642 0 0 0 2.28711,5.51953 l -9.23047,9.23047 c -1.95869,1.95868 -1.9587,5.11161 0,7.07031 l 7.07031,7.07031 c 1.9587,1.9587 5.11163,1.95869 7.07031,0 l 9.22852,-9.22851 a 33.475642,33.475642 0 0 0 5.52148,2.28515 v 13.05274 c 0,2.77001 2.23,5 5,5 h 10 c 2.77,0 5,-2.22999 5,-5 v -13.05274 a 33.475642,33.475642 0 0 0 5.51953,-2.28515 l 9.22852,9.22851 c 1.95867,1.95867 5.11358,1.95869 7.07227,0 l 7.07031,-7.07031 c 1.95868,-1.95869 1.95867,-5.11164 0,-7.07031 l -9.22852,-9.22852 a 33.475642,33.475642 0 0 0 2.28516,-5.52148 h 13.05273 c 2.77,0 5,-2.22999 5,-5 v -10 c 0,-2.77002 -2.23,-5 -5,-5 h -13.05273 a 33.475642,33.475642 0 0 0 -2.28516,-5.51953 l 9.22852,-9.22852 c 1.95868,-1.95868 1.9587,-5.11161 0,-7.07031 l -7.07031,-7.07227 c -1.9587,-1.95869 -5.11358,-1.95868 -7.07227,0 l -9.22852,9.22852 a 33.475642,33.475642 0 0 0 -5.51953,-2.28516 v -13.05273 c 0,-2.76998 -2.23,-5 -5,-5 z m 5,31.70312 a 18.297073,18.297073 0 0 1 7.99414,1.83789 18.297073,18.297073 0 0 1 0.64063,0.32813 18.297073,18.297073 0 0 1 6.17969,5.39258 18.297073,18.297073 0 0 1 0.20898,0.29297 18.297073,18.297073 0 0 1 3.27344,10.44531 18.297073,18.297073 0 0 1 -16.17774,18.17383 18.297073,18.297073 0 0 1 -0.71679,0.0684 18.297073,18.297073 0 0 1 -0.35938,0.0254 18.297073,18.297073 0 0 1 -0.35937,0.0156 18.297073,18.297073 0 0 1 -0.6836,0.0137 18.297073,18.297073 0 0 1 -3.92578,-0.42578 18.297073,18.297073 0 0 1 -0.69922,-0.16797 18.297073,18.297073 0 0 1 -9.30078,-5.83593 18.297073,18.297073 0 0 1 -0.23047,-0.2754 18.297073,18.297073 0 0 1 -4.05664,-9.83203 18.297073,18.297073 0 0 1 -0.0293,-0.35742 18.297073,18.297073 0 0 1 -0.0547,-1.40234 18.297073,18.297073 0 0 1 0.004,-0.35938 18.297073,18.297073 0 0 1 18.29297,-17.9375 z m 0,4.28516 a 14.011359,14.011359 0 0 0 -14.01171,14.01172 14.011359,14.011359 0 0 0 14.01171,14.01172 14.011359,14.011359 0 0 0 14.01172,-14.01172 14.011359,14.011359 0 0 0 -14.01172,-14.01172 z m -0.0976,3.57227 a 10.43993,10.43993 0 0 1 0.0976,0 10.43993,10.43993 0 0 1 10.43946,10.43945 10.43993,10.43993 0 0 1 -10.43946,10.43945 10.43993,10.43993 0 0 1 -10.43945,-10.43945 10.43993,10.43993 0 0 1 10.3418,-10.43945 z"
       style="opacity:1;fill:#fff;fill-opacity:1;fill-rule:evenodd;stroke-width:0.470975"
       id="rect10" />
  </g>
</svg>
