<?xml version="1.0" encoding="UTF-8" standalone="no"?>
<svg
   xmlns:dc="http://purl.org/dc/elements/1.1/"
   xmlns:cc="http://creativecommons.org/ns#"
   xmlns:rdf="http://www.w3.org/1999/02/22-rdf-syntax-ns#"
   xmlns:svg="http://www.w3.org/2000/svg"
   xmlns="http://www.w3.org/2000/svg"
   xmlns:sodipodi="http://sodipodi.sourceforge.net/DTD/sodipodi-0.dtd"
   xmlns:inkscape="http://www.inkscape.org/namespaces/inkscape"
   sodipodi:docname="signup.svg"
   inkscape:version="1.0 (4035a4fb49, 2020-05-01)"
   id="svg1080"
   version="1.1"
   viewBox="0 0 87.734177 92.065697"
   height="92.065697mm"
   width="87.734177mm">
  <defs
     id="defs1074" />
  <sodipodi:namedview
     inkscape:window-maximized="1"
     inkscape:window-y="-8"
     inkscape:window-x="-8"
     inkscape:window-height="877"
     inkscape:window-width="1600"
     inkscape:snap-midpoints="true"
     inkscape:snap-smooth-nodes="true"
     inkscape:snap-intersection-paths="true"
     inkscape:object-paths="true"
     inkscape:snap-bbox-midpoints="true"
     inkscape:snap-bbox-edge-midpoints="true"
     inkscape:bbox-nodes="true"
     inkscape:bbox-paths="true"
     inkscape:snap-bbox="true"
     showgrid="false"
     inkscape:document-rotation="0"
     inkscape:current-layer="layer1"
     inkscape:document-units="mm"
     inkscape:cy="179.54062"
     inkscape:cx="39.818249"
     inkscape:zoom="1.4"
     inkscape:pageshadow="2"
     inkscape:pageopacity="0.0"
     borderopacity="1.0"
     bordercolor="#666666"
     pagecolor="#ffffff"
     id="base" />
  <metadata
     id="metadata1077">
    <rdf:RDF>
      <cc:Work
         rdf:about="">
        <dc:format>image/svg+xml</dc:format>
        <dc:type
           rdf:resource="http://purl.org/dc/dcmitype/StillImage" />
        <dc:title></dc:title>
      </cc:Work>
    </rdf:RDF>
  </metadata>
  <g
     transform="translate(-72.995027,-81.264288)"
     id="layer1"
     inkscape:groupmode="layer"
     inkscape:label="Layer 1">
    <path
       transform="scale(0.26458333)"
       d="m 400.88672,307.14062 a 26.996849,24.865187 0 0 0 -26.99805,24.86524 h -18.80859 c -11.66899,0 -21.0625,6.29463 -21.0625,14.11523 v 8.98438 13.4043 c 0,11.66897 9.39355,21.0625 21.0625,21.0625 h 91.61328 c 11.66899,0 21.0625,-9.39353 21.0625,-21.0625 v -13.4043 -8.98438 c 0,-7.8206 -9.39351,-14.11524 -21.0625,-14.11523 h -18.80859 a 26.996849,24.865187 0 0 0 -26.99805,-24.86524 z m 175.79492,0 a 30.766493,26.15594 0 0 0 -30.76562,26.1543 v 26.15625 h 30.76562 30.76758 v -26.15625 a 30.766493,26.15594 0 0 0 -30.76758,-26.1543 z m -270.6543,47.96485 c -16.69829,0 -30.14062,13.44235 -30.14062,30.14062 V 624.9668 c 0,16.69825 13.44233,30.13867 30.14062,30.13867 h 189.71875 c 16.69811,0 30.13868,-13.44042 30.13868,-30.13867 V 385.24609 c 0,-16.69827 -13.44057,-30.14062 -30.13868,-30.14062 h -12.47265 v 19.4375 c 0,16.92229 -13.62461,30.54687 -30.54688,30.54687 H 349.04688 c -16.92227,0 -30.54688,-13.62458 -30.54688,-30.54687 v -19.4375 z m 239.85938,13.58398 v 184.78516 h 61.59375 V 368.68945 Z m -224.95117,72.92383 h 159.90234 c 8.30997,0 15,6.69003 15,15 0,8.31001 -6.69003,15 -15,15 H 320.93555 c -8.31001,0 -15,-6.68999 -15,-15 0,-8.30997 6.68999,-15 15,-15 z m 0,72.44336 h 159.90234 c 8.30997,0 15,6.68999 15,15 0,8.31001 -6.69003,15 -15,15 H 320.93555 c -8.31001,0 -15,-6.68999 -15,-15 0,-8.31001 6.68999,-15 15,-15 z m 224.95117,48.65625 17.45117,52.35547 h 26.68945 l 17.45313,-52.35547 z m -225,23.74023 h 159.95117 c 8.31001,0 15,6.69001 15,15 0,8.30998 -6.68999,15 -15,15 H 320.88672 c -8.31,0 -15,-6.69002 -15,-15 0,-8.30999 6.69,-15 15,-15 z m 245.53125,37.85352 10.26562,30.79883 10.26563,-30.79883 z"
       style="fill:#1877f2;fill-opacity:1;fill-rule:evenodd;stroke:none;stroke-width:0.186237;stroke-miterlimit:4;stroke-dasharray:none;stroke-opacity:1"
       id="rect815" />
  </g>
</svg>
