<?xml version="1.0" encoding="UTF-8" standalone="no"?>
<svg
   xmlns:dc="http://purl.org/dc/elements/1.1/"
   xmlns:cc="http://creativecommons.org/ns#"
   xmlns:rdf="http://www.w3.org/1999/02/22-rdf-syntax-ns#"
   xmlns:svg="http://www.w3.org/2000/svg"
   xmlns="http://www.w3.org/2000/svg"
   xmlns:sodipodi="http://sodipodi.sourceforge.net/DTD/sodipodi-0.dtd"
   xmlns:inkscape="http://www.inkscape.org/namespaces/inkscape"
   width="38.678333mm"
   height="33.23156mm"
   viewBox="0 0 38.678333 33.23156"
   version="1.1"
   id="svg8"
   inkscape:version="1.0 (4035a4fb49, 2020-05-01)"
   sodipodi:docname="slider.svg">
  <defs
     id="defs2" />
  <sodipodi:namedview
     id="base"
     pagecolor="#ffffff"
     bordercolor="#666666"
     borderopacity="1.0"
     inkscape:pageopacity="0.0"
     inkscape:pageshadow="2"
     inkscape:zoom="2.8"
     inkscape:cx="100.01326"
     inkscape:cy="80.767094"
     inkscape:document-units="mm"
     inkscape:current-layer="layer1"
     inkscape:document-rotation="0"
     showgrid="false"
     inkscape:snap-bbox="true"
     inkscape:bbox-paths="true"
     inkscape:bbox-nodes="true"
     inkscape:snap-bbox-edge-midpoints="true"
     inkscape:snap-bbox-midpoints="true"
     inkscape:object-paths="true"
     inkscape:snap-intersection-paths="true"
     inkscape:snap-smooth-nodes="true"
     inkscape:snap-midpoints="true"
     inkscape:window-width="1600"
     inkscape:window-height="877"
     inkscape:window-x="-8"
     inkscape:window-y="-8"
     inkscape:window-maximized="1" />
  <metadata
     id="metadata5">
    <rdf:RDF>
      <cc:Work
         rdf:about="">
        <dc:format>image/svg+xml</dc:format>
        <dc:type
           rdf:resource="http://purl.org/dc/dcmitype/StillImage" />
        <dc:title />
      </cc:Work>
    </rdf:RDF>
  </metadata>
  <g
     inkscape:label="Layer 1"
     inkscape:groupmode="layer"
     id="layer1"
     transform="translate(-53.645789,-150.49726)">
    <path
       d="m 64.283938,150.49726 c -1.028268,0 -1.856218,0.82743 -1.856218,1.8557 v 23.83007 c 0,1.02827 0.82795,1.85622 1.856218,1.85622 h 17.402038 c 1.028282,0 1.856216,-0.82795 1.856216,-1.85622 v -23.83007 c 0,-1.02827 -0.827934,-1.8557 -1.856216,-1.8557 z m -5.700427,8.83357 c -0.329596,0 -0.659022,0.12624 -0.911572,0.37879 l -3.647323,3.6468 c -0.505103,0.5051 -0.505103,1.31856 0,1.82366 l 3.647323,3.64681 c 0.505099,0.5051 1.318044,0.5051 1.823144,0 0.505103,-0.50511 0.5051,-1.31856 0,-1.82366 l -2.735234,-2.73523 2.735234,-2.73524 c 0.5051,-0.5051 0.5051,-1.31804 0,-1.82314 -0.25255,-0.25255 -0.581979,-0.37879 -0.911572,-0.37879 z m 28.802895,0 c -0.329592,0 -0.659022,0.12624 -0.911572,0.37879 -0.5051,0.5051 -0.5051,1.31804 0,1.82314 l 2.735231,2.73524 -2.735231,2.73523 c -0.5051,0.5051 -0.5051,1.31855 0,1.82366 0.5051,0.5051 1.318562,0.5051 1.823662,0 l 3.646799,-3.64681 c 0.505101,-0.5051 0.505101,-1.31856 0,-1.82366 l -3.646799,-3.6468 c -0.25255,-0.25255 -0.582491,-0.37879 -0.91209,-0.37879 z m -20.69848,21.26227 a 1.5678341,1.5678341 0 0 0 -1.542025,1.56786 1.5678341,1.5678341 0 0 0 1.567863,1.56786 1.5678341,1.5678341 0 0 0 1.567864,-1.56786 1.5678341,1.5678341 0 0 0 -1.567864,-1.56786 1.5678341,1.5678341 0 0 0 -0.02584,0 z m 6.271453,0 a 1.5678341,1.5678341 0 0 0 -1.542025,1.56786 1.5678341,1.5678341 0 0 0 1.567861,1.56786 1.5678341,1.5678341 0 0 0 1.567864,-1.56786 1.5678341,1.5678341 0 0 0 -1.567864,-1.56786 1.5678341,1.5678341 0 0 0 -0.02584,0 z m 6.270935,0 a 1.5678341,1.5678341 0 0 0 -1.542026,1.56786 1.5678341,1.5678341 0 0 0 1.567862,1.56786 1.5678341,1.5678341 0 0 0 1.567861,-1.56786 1.5678341,1.5678341 0 0 0 -1.567861,-1.56786 1.5678341,1.5678341 0 0 0 -0.02532,0 1.5678341,1.5678341 0 0 1 -5.29e-4,0 z"
       style="fill:#fff;fill-opacity:1;fill-rule:evenodd;stroke-width:0.264583"
       id="rect16" />
  </g>
</svg>
