<?xml version="1.0" encoding="UTF-8" standalone="no"?>
<svg
   xmlns:dc="http://purl.org/dc/elements/1.1/"
   xmlns:cc="http://creativecommons.org/ns#"
   xmlns:rdf="http://www.w3.org/1999/02/22-rdf-syntax-ns#"
   xmlns:svg="http://www.w3.org/2000/svg"
   xmlns="http://www.w3.org/2000/svg"
   xmlns:sodipodi="http://sodipodi.sourceforge.net/DTD/sodipodi-0.dtd"
   xmlns:inkscape="http://www.inkscape.org/namespaces/inkscape"
   sodipodi:docname="Admission.svg"
   inkscape:version="1.0 (4035a4fb49, 2020-05-01)"
   id="svg8"
   version="1.1"
   viewBox="0 0 63.439556 54.299009"
   height="205.22459"
   width="239.77155">
  <defs
     id="defs2" />
  <sodipodi:namedview
     inkscape:document-rotation="0"
     units="px"
     inkscape:window-maximized="1"
     inkscape:window-y="-8"
     inkscape:window-x="-8"
     inkscape:window-height="877"
     inkscape:window-width="1600"
     fit-margin-bottom="0"
     fit-margin-right="0"
     fit-margin-left="0"
     fit-margin-top="0"
     inkscape:snap-bbox-midpoints="true"
     inkscape:snap-bbox-edge-midpoints="true"
     inkscape:bbox-nodes="true"
     inkscape:bbox-paths="true"
     inkscape:snap-bbox="true"
     showgrid="false"
     inkscape:current-layer="layer1"
     inkscape:document-units="px"
     inkscape:cy="71.669985"
     inkscape:cx="63.08061"
     inkscape:zoom="1.4075844"
     inkscape:pageshadow="2"
     inkscape:pageopacity="0.0"
     borderopacity="1.0"
     bordercolor="#666666"
     pagecolor="#ffffff"
     id="base" />
  <metadata
     id="metadata5">
    <rdf:RDF>
      <cc:Work
         rdf:about="">
        <dc:format>image/svg+xml</dc:format>
        <dc:type
           rdf:resource="http://purl.org/dc/dcmitype/StillImage" />
        <dc:title />
      </cc:Work>
    </rdf:RDF>
  </metadata>
  <g
     transform="translate(-74.166165,-138.1362)"
     id="layer1"
     inkscape:groupmode="layer"
     inkscape:label="Layer 1">
    <path
       style="fill:#fff;fill-opacity:1;fill-rule:evenodd;stroke:none;stroke-width:0.539647;stroke-miterlimit:4;stroke-dasharray:none;stroke-opacity:1"
       d="m 105.8862,138.1362 -23.872452,15.94942 v 3.04115 h -1.503784 c -1.353759,0 -2.443261,1.09001 -2.443261,2.44378 0,1.35375 1.089502,2.44326 2.443261,2.44326 h 4.089156 v 1.81901 c 0,0.67618 0.54366,1.22102 1.219564,1.22215 v 19.07636 h -7.752498 v 3.04116 h -3.900021 v 5.26272 h 63.439555 v -5.26272 h -3.90054 v -3.04116 h -7.75198 v -19.07636 c 0.6759,-0.001 1.21956,-0.54597 1.21956,-1.22215 v -1.81901 h 4.08916 c 1.35376,0 2.44378,-1.08951 2.44378,-2.44326 0,-1.35377 -1.09002,-2.44378 -2.44378,-2.44378 h -1.50379 v -3.04115 z m 0,3.98012 A 10.526307,10.526307 0 0 1 116.41217,152.64281 10.526307,10.526307 0 0 1 105.8862,163.1693 10.526307,10.526307 0 0 1 95.359705,152.64281 10.526307,10.526307 0 0 1 105.8862,142.11632 Z m 6.3903,4.23437 c -0.42002,0 -0.84036,0.16081 -1.1622,0.48266 l -8.13284,8.13335 -2.32389,-2.32389 c -0.64368,-0.64368 -1.680204,-0.64368 -2.323884,0 -0.64369,0.64368 -0.64369,1.68021 0,2.32389 l 3.485574,3.48557 c 0.64368,0.64369 1.68021,0.64369 2.32389,0 l 9.29504,-9.29504 c 0.64368,-0.64369 0.64368,-1.6802 0,-2.32388 -0.32184,-0.32185 -0.74167,-0.48266 -1.16169,-0.48266 z m -24.636738,7.64088 a 1.5204999,1.5204999 0 0 1 1.520837,1.52083 1.5204999,1.5204999 0 0 1 -1.520837,1.52032 1.5204999,1.5204999 0 0 1 -1.520321,-1.52032 1.5204999,1.5204999 0 0 1 1.520321,-1.52083 z m 6.082316,0 a 1.5204999,1.5204999 0 0 1 1.520321,1.52083 1.5204999,1.5204999 0 0 1 -1.520321,1.52032 1.5204999,1.5204999 0 0 1 -1.520838,-1.52032 1.5204999,1.5204999 0 0 1 1.520838,-1.52083 z m 24.327732,0 a 1.5204999,1.5204999 0 0 1 1.52083,1.52083 1.5204999,1.5204999 0 0 1 -1.52083,1.52032 1.5204999,1.5204999 0 0 1 -1.52034,-1.52032 1.5204999,1.5204999 0 0 1 1.52034,-1.52083 z m 6.08231,0 a 1.5204999,1.5204999 0 0 1 1.52032,1.52083 1.5204999,1.5204999 0 0 1 -1.52032,1.52032 1.5204999,1.5204999 0 0 1 -1.52084,-1.52032 1.5204999,1.5204999 0 0 1 1.52084,-1.52083 z m -33.4512,9.84125 c 0,0.67636 0.543932,1.2213 1.22008,1.22215 v 19.07636 h -2.440161 v -19.07636 c 0.676148,-7.9e-4 1.220081,-0.54579 1.220081,-1.22215 z m 6.081796,0 c 0,0.67618 0.54418,1.22102 1.22008,1.22215 v 19.07636 h -2.43964 v -19.07636 c 0.675902,-0.001 1.21956,-0.54597 1.21956,-1.22215 z m 6.082324,0 c 0,0.67618 0.54366,1.22102 1.21956,1.22215 v 19.07636 h -2.43964 v -19.07636 c 0.6759,-0.001 1.22008,-0.54597 1.22008,-1.22215 z m 6.0818,0 c 0,0.67636 0.54394,1.2213 1.22008,1.22215 v 19.07636 h -2.44016 v -19.07636 c 0.67614,-7.9e-4 1.22008,-0.54579 1.22008,-1.22215 z m 6.08231,0 c 0,0.67618 0.54366,1.22102 1.21957,1.22215 v 19.07636 h -2.43965 v -19.07636 c 0.67591,-0.001 1.22008,-0.54597 1.22008,-1.22215 z m 6.08181,0 c 0,0.67636 0.54394,1.2213 1.22008,1.22215 v 19.07636 h -2.44016 v -19.07636 c 0.67615,-7.9e-4 1.22008,-0.54579 1.22008,-1.22215 z m -33.451198,22.31906 a 1.5204999,1.5204999 0 0 1 1.520837,1.52083 1.5204999,1.5204999 0 0 1 -1.520837,1.52032 1.5204999,1.5204999 0 0 1 -1.520321,-1.52032 1.5204999,1.5204999 0 0 1 1.520321,-1.52083 z m 6.082316,0 a 1.5204999,1.5204999 0 0 1 1.520321,1.52083 1.5204999,1.5204999 0 0 1 -1.520321,1.52032 1.5204999,1.5204999 0 0 1 -1.520838,-1.52032 1.5204999,1.5204999 0 0 1 1.520838,-1.52083 z m 6.081798,0 a 1.5204999,1.5204999 0 0 1 1.520844,1.52083 1.5204999,1.5204999 0 0 1 -1.520844,1.52032 1.5204999,1.5204999 0 0 1 -1.52032,-1.52032 1.5204999,1.5204999 0 0 1 1.52032,-1.52083 z m 6.082324,0 a 1.5204999,1.5204999 0 0 1 1.52032,1.52083 1.5204999,1.5204999 0 0 1 -1.52032,1.52032 1.5204999,1.5204999 0 0 1 -1.52084,-1.52032 1.5204999,1.5204999 0 0 1 1.52084,-1.52083 z m 6.0818,0 a 1.5204999,1.5204999 0 0 1 1.52032,1.52083 1.5204999,1.5204999 0 0 1 -1.52032,1.52032 1.5204999,1.5204999 0 0 1 -1.52033,-1.52032 1.5204999,1.5204999 0 0 1 1.52033,-1.52083 z m 6.08181,0 a 1.5204999,1.5204999 0 0 1 1.52083,1.52083 1.5204999,1.5204999 0 0 1 -1.52083,1.52032 1.5204999,1.5204999 0 0 1 -1.52034,-1.52032 1.5204999,1.5204999 0 0 1 1.52034,-1.52083 z m 6.08231,0 a 1.5204999,1.5204999 0 0 1 1.52032,1.52083 1.5204999,1.5204999 0 0 1 -1.52032,1.52032 1.5204999,1.5204999 0 0 1 -1.52084,-1.52032 1.5204999,1.5204999 0 0 1 1.52084,-1.52083 z m -42.574158,5.3e-4 a 1.5204999,1.5204999 0 0 1 1.520321,1.52031 1.5204999,1.5204999 0 0 1 -1.520321,1.52032 1.5204999,1.5204999 0 0 1 -1.520321,-1.52032 1.5204999,1.5204999 0 0 1 1.520321,-1.52031 z m 48.655958,0 a 1.5204999,1.5204999 0 0 1 1.52032,1.52031 1.5204999,1.5204999 0 0 1 -1.52032,1.52032 1.5204999,1.5204999 0 0 1 -1.52032,-1.52032 1.5204999,1.5204999 0 0 1 1.52032,-1.52031 z"
       id="rect815"
       inkscape:connector-curvature="0" />
  </g>
</svg>
