<?xml version="1.0" encoding="UTF-8" standalone="no"?>
<svg
   xmlns:dc="http://purl.org/dc/elements/1.1/"
   xmlns:cc="http://creativecommons.org/ns#"
   xmlns:rdf="http://www.w3.org/1999/02/22-rdf-syntax-ns#"
   xmlns:svg="http://www.w3.org/2000/svg"
   xmlns="http://www.w3.org/2000/svg"
   xmlns:sodipodi="http://sodipodi.sourceforge.net/DTD/sodipodi-0.dtd"
   xmlns:inkscape="http://www.inkscape.org/namespaces/inkscape"
   sodipodi:docname="document.svg"
   inkscape:version="1.0 (4035a4fb49, 2020-05-01)"
   id="svg8"
   version="1.1"
   viewBox="0 0 22.489583 26.458334"
   height="100"
   width="85">
  <defs
     id="defs2" />
  <sodipodi:namedview
     inkscape:window-maximized="1"
     inkscape:window-y="-8"
     inkscape:window-x="-8"
     inkscape:window-height="877"
     inkscape:window-width="1600"
     inkscape:snap-midpoints="true"
     inkscape:snap-smooth-nodes="true"
     inkscape:snap-intersection-paths="true"
     inkscape:object-paths="true"
     inkscape:snap-bbox-midpoints="true"
     inkscape:snap-bbox-edge-midpoints="true"
     inkscape:bbox-nodes="true"
     inkscape:bbox-paths="true"
     inkscape:snap-bbox="true"
     units="px"
     showgrid="false"
     inkscape:document-rotation="0"
     inkscape:current-layer="layer1"
     inkscape:document-units="px"
     inkscape:cy="50.041882"
     inkscape:cx="57.116735"
     inkscape:zoom="5.6"
     inkscape:pageshadow="2"
     inkscape:pageopacity="0.0"
     borderopacity="1.0"
     bordercolor="#666666"
     pagecolor="#ffffff"
     id="base" />
  <metadata
     id="metadata5">
    <rdf:RDF>
      <cc:Work
         rdf:about="">
        <dc:format>image/svg+xml</dc:format>
        <dc:type
           rdf:resource="http://purl.org/dc/dcmitype/StillImage" />
        <dc:title></dc:title>
      </cc:Work>
    </rdf:RDF>
  </metadata>
  <g
     transform="translate(-79.422542,-133.94479)"
     id="layer1"
     inkscape:groupmode="layer"
     inkscape:label="Layer 1">
    <path
       transform="scale(0.26458333)"
       d="m 304.10938,506.24805 c -2.17645,0 -3.92969,1.75324 -3.92969,3.92968 v 92.14258 c 0,2.17644 1.75324,3.92774 3.92969,3.92774 h 77.14257 c 2.17644,0 3.92774,-1.7513 3.92774,-3.92774 v -71.07226 l -8,-8 -9,-9 -8,-8 z m 7.37109,8 h 48.69922 v 13.07031 c 0,2.1764 1.75329,3.92969 3.92969,3.92969 h 13.07031 v 63.70117 c 0,1.82819 -1.47064,3.29883 -3.29883,3.29883 h -62.40039 c -1.8282,0 -3.30078,-1.47064 -3.30078,-3.29883 v -77.40039 c 0,-1.8282 1.47258,-3.30078 3.30078,-3.30078 z M 322.5625,531.25 c -2.70494,0 -4.88281,2.17593 -4.88281,4.88086 v 0.23633 c 0,2.70497 2.17787,4.88086 4.88281,4.88086 h 40.23438 c 2.70493,0 4.88281,-2.17589 4.88281,-4.88086 v -0.23633 c 0,-2.70493 -2.17788,-4.88086 -4.88281,-4.88086 z m 0,20 c -2.70494,0 -4.88281,2.17596 -4.88281,4.88086 v 0.23633 c 0,2.70493 2.17787,4.88086 4.88281,4.88086 h 40.23438 c 2.70493,0 4.88281,-2.17593 4.88281,-4.88086 v -0.23633 c 0,-2.7049 -2.17788,-4.88086 -4.88281,-4.88086 z m 0,20 c -2.70494,0 -4.88281,2.17589 -4.88281,4.88086 v 0.23633 c 0,2.70493 2.17787,4.88086 4.88281,4.88086 h 40.23438 c 2.70493,0 4.88281,-2.17593 4.88281,-4.88086 v -0.23633 c 0,-2.70497 -2.17788,-4.88086 -4.88281,-4.88086 z"
       style="opacity:1;fill:#1877f2;fill-opacity:1;stroke-width:1.1136"
       id="rect41" />
  </g>
</svg>
