<?xml version="1.0" encoding="UTF-8" standalone="no"?>
<svg
   xmlns:dc="http://purl.org/dc/elements/1.1/"
   xmlns:cc="http://creativecommons.org/ns#"
   xmlns:rdf="http://www.w3.org/1999/02/22-rdf-syntax-ns#"
   xmlns:svg="http://www.w3.org/2000/svg"
   xmlns="http://www.w3.org/2000/svg"
   xmlns:sodipodi="http://sodipodi.sourceforge.net/DTD/sodipodi-0.dtd"
   xmlns:inkscape="http://www.inkscape.org/namespaces/inkscape"
   inkscape:version="1.0 (4035a4fb49, 2020-05-01)"
   sodipodi:docname="Syllabus.svg"
   id="svg8"
   version="1.1"
   viewBox="0 0 22.489583 26.458334"
   height="100"
   width="85">
  <defs
     id="defs2" />
  <sodipodi:namedview
     inkscape:snap-global="true"
     inkscape:window-maximized="1"
     inkscape:window-y="-8"
     inkscape:window-x="-8"
     inkscape:window-height="877"
     inkscape:window-width="1600"
     inkscape:snap-midpoints="true"
     inkscape:snap-smooth-nodes="true"
     inkscape:snap-intersection-paths="true"
     inkscape:object-paths="true"
     inkscape:snap-bbox-midpoints="true"
     inkscape:snap-bbox-edge-midpoints="true"
     inkscape:bbox-nodes="true"
     inkscape:bbox-paths="true"
     inkscape:snap-bbox="true"
     units="px"
     showgrid="false"
     inkscape:document-rotation="0"
     inkscape:current-layer="layer1"
     inkscape:document-units="px"
     inkscape:cy="53.599976"
     inkscape:cx="12.095308"
     inkscape:zoom="4"
     inkscape:pageshadow="2"
     inkscape:pageopacity="0.0"
     borderopacity="1.0"
     bordercolor="#666666"
     pagecolor="#ffffff"
     id="base" />
  <metadata
     id="metadata5">
    <rdf:RDF>
      <cc:Work
         rdf:about="">
        <dc:format>image/svg+xml</dc:format>
        <dc:type
           rdf:resource="http://purl.org/dc/dcmitype/StillImage" />
        <dc:title></dc:title>
      </cc:Work>
    </rdf:RDF>
  </metadata>
  <g
     transform="translate(-53.46392,-133.24355)"
     id="layer1"
     inkscape:groupmode="layer"
     inkscape:label="Layer 1">
    <path
       transform="scale(0.26458333)"
       d="m 205.99805,503.59766 c -2.17644,0 -3.92969,1.75129 -3.92969,3.92773 v 92.14258 c 0,2.17644 1.75325,3.92969 3.92969,3.92969 h 56.07031 l 8,-8 9,-9 8,-8 v -71.07227 c 0,-2.17644 -1.75129,-3.92773 -3.92774,-3.92773 z m 7.37109,8 h 62.40039 c 1.8282,0 3.29883,1.47063 3.29883,3.29882 v 63.70118 H 266.75 c 2.77,0 5,-2.22999 5,-5 0,-2.77002 -2.23,-5 -5,-5 h -15 c -2.77,0 -5,2.22998 -5,5 0,2.77001 2.23,5 5,5 h 14.24805 c -2.17641,0 -3.92969,1.75328 -3.92969,3.92968 v 13.07032 h -48.69922 c -1.82819,0 -3.30078,-1.47259 -3.30078,-3.30078 v -77.4004 c 0,-1.82819 1.47259,-3.29882 3.30078,-3.29882 z m 24.63867,13.42773 c -0.79338,0 -1.58739,0.30425 -2.19531,0.91211 l -8.73633,8.73633 -4.38867,-4.39063 c -1.21588,-1.21587 -3.17284,-1.21583 -4.38867,0 -1.21592,1.21588 -1.21592,3.17475 0,4.39063 l 6.58398,6.58398 c 1.21587,1.21588 3.1728,1.21591 4.38867,0 l 10.92969,-10.92969 c 1.21591,-1.21587 1.21587,-3.17475 0,-4.39062 -0.60794,-0.60794 -1.39997,-0.91211 -2.19336,-0.91211 z m 13.74219,3.57227 c -2.77,0 -5,2.23002 -5,5 0,2.77001 2.23,5 5,5 h 15 c 2.77,0 5,-2.22999 5,-5 0,-2.76998 -2.23,-5 -5,-5 z m -13.74219,16.42773 c -0.79338,0 -1.58739,0.30425 -2.19531,0.91211 l -8.73633,8.73633 -4.38867,-4.39063 c -1.21588,-1.21587 -3.17284,-1.21583 -4.38867,0 -1.21592,1.21588 -1.21592,3.17479 0,4.39063 l 6.58398,6.58398 c 1.21587,1.21588 3.1728,1.21591 4.38867,0 l 10.92969,-10.92969 c 1.21591,-1.21591 1.21587,-3.17475 0,-4.39062 -0.60794,-0.60794 -1.39997,-0.91211 -2.19336,-0.91211 z m 13.74219,3.57227 c -2.77,0 -5,2.22998 -5,5 0,2.77001 2.23,5 5,5 h 15 c 2.77,0 5,-2.22999 5,-5 0,-2.77002 -2.23,-5 -5,-5 z m -13.74219,16.42773 c -0.79338,0 -1.58739,0.30429 -2.19531,0.91211 l -8.73633,8.73633 -4.38867,-4.39063 c -1.21588,-1.21583 -3.17284,-1.2158 -4.38867,0 -1.21592,1.21591 -1.21592,3.17475 0,4.39063 l 6.58398,6.58398 c 1.21587,1.21588 3.1728,1.21595 4.38867,0 l 10.92969,-10.92969 c 1.21591,-1.21587 1.21587,-3.17471 0,-4.39062 -0.60794,-0.60794 -1.39997,-0.91211 -2.19336,-0.91211 z"
       style="opacity:1;fill:#fff;fill-opacity:1;fill-rule:evenodd;stroke-width:0.511986"
       id="rect10" />
  </g>
</svg>
