<?xml version="1.0" encoding="UTF-8" standalone="no"?>
<svg
   xmlns:dc="http://purl.org/dc/elements/1.1/"
   xmlns:cc="http://creativecommons.org/ns#"
   xmlns:rdf="http://www.w3.org/1999/02/22-rdf-syntax-ns#"
   xmlns:svg="http://www.w3.org/2000/svg"
   xmlns="http://www.w3.org/2000/svg"
   xmlns:sodipodi="http://sodipodi.sourceforge.net/DTD/sodipodi-0.dtd"
   xmlns:inkscape="http://www.inkscape.org/namespaces/inkscape"
   sodipodi:docname="Answer-key.svg"
   inkscape:version="1.0 (4035a4fb49, 2020-05-01)"
   id="svg8"
   version="1.1"
   viewBox="0 0 107.87304 79.375006"
   height="300"
   width="407.70917">
  <defs
     id="defs2" />
  <sodipodi:namedview
     inkscape:document-rotation="0"
     inkscape:window-maximized="1"
     inkscape:window-y="-8"
     inkscape:window-x="-8"
     inkscape:window-height="877"
     inkscape:window-width="1600"
     inkscape:snap-midpoints="true"
     inkscape:snap-smooth-nodes="true"
     inkscape:snap-intersection-paths="true"
     inkscape:object-paths="true"
     inkscape:snap-bbox-midpoints="true"
     inkscape:snap-bbox-edge-midpoints="true"
     inkscape:bbox-nodes="true"
     inkscape:bbox-paths="true"
     inkscape:snap-bbox="true"
     units="px"
     fit-margin-bottom="0"
     fit-margin-right="0"
     fit-margin-left="0"
     fit-margin-top="0"
     showgrid="false"
     inkscape:current-layer="layer1"
     inkscape:document-units="px"
     inkscape:cy="141.93333"
     inkscape:cx="208.84325"
     inkscape:zoom="0.9953125"
     inkscape:pageshadow="2"
     inkscape:pageopacity="0.0"
     borderopacity="1.0"
     bordercolor="#666666"
     pagecolor="#ffffff"
     id="base" />
  <metadata
     id="metadata5">
    <rdf:RDF>
      <cc:Work
         rdf:about="">
        <dc:format>image/svg+xml</dc:format>
        <dc:type
           rdf:resource="http://purl.org/dc/dcmitype/StillImage" />
        <dc:title />
      </cc:Work>
    </rdf:RDF>
  </metadata>
  <g
     transform="translate(-985.5635,1100.0915)"
     id="layer1"
     inkscape:groupmode="layer"
     inkscape:label="Layer 1">
    <path
       inkscape:connector-curvature="0"
       id="rect815"
       d="m 999.4489,-1100.0915 c -3.8289,0 -6.9112,3.0821 -6.9112,6.9112 v 7.0492 h -4.7811 c -1.215,0 -2.1931,0.9777 -2.1931,2.1926 0,1.215 0.9781,2.1932 2.1931,2.1932 h 4.7811 v 11.3031 h -4.7811 c -1.215,0 -2.1931,0.9782 -2.1931,2.1932 0,1.215 0.9781,2.1931 2.1931,2.1931 h 4.7811 v 11.3032 h -4.7811 c -1.215,0 -2.1931,0.9782 -2.1931,2.1932 0,1.215 0.9781,2.1931 2.1931,2.1931 h 4.7811 v 11.3032 h -4.7811 c -1.215,0 -2.1931,0.9782 -2.1931,2.1931 0,1.215 0.9781,2.1932 2.1931,2.1932 h 4.7811 v 7.0487 c 0,3.829 3.0823,6.9117 6.9112,6.9117 h 11.4236 4.3862 49.7423 c 3.8289,0 6.9116,-3.0827 6.9116,-6.9117 v -8.9369 l -4.3862,4.3862 v 3.188 c 0,2.1541 -1.734,3.8881 -3.8881,3.8881 h -48.3796 v -70.6024 h 48.3796 c 2.1541,0 3.8881,1.7341 3.8881,3.8881 v 33.0006 l 4.3862,-4.3863 v -29.9775 c 0,-3.8291 -3.0827,-6.9112 -6.9116,-6.9112 h -49.7423 -4.3862 z m 1.3633,4.3863 h 10.0603 v 70.6024 h -10.0603 c -2.154,0 -3.8882,-1.734 -3.8882,-3.8881 v -5.686 h 3.7264 a 3.9223156,3.9223156 0 0 0 3.2479,1.7291 3.9223156,3.9223156 0 0 0 3.9221,-3.9223 3.9223156,3.9223156 0 0 0 -3.9221,-3.9227 3.9223156,3.9223156 0 0 0 -3.251,1.7296 h -3.7233 v -11.3032 h 3.7264 a 3.9223156,3.9223156 0 0 0 3.2479,1.7291 3.9223156,3.9223156 0 0 0 3.9221,-3.9222 3.9223156,3.9223156 0 0 0 -3.9221,-3.9223 3.9223156,3.9223156 0 0 0 -3.251,1.7291 h -3.7233 v -11.3032 h 3.7264 a 3.9223156,3.9223156 0 0 0 3.2479,1.7291 3.9223156,3.9223156 0 0 0 3.9221,-3.9222 3.9223156,3.9223156 0 0 0 -3.9221,-3.9222 3.9223156,3.9223156 0 0 0 -3.251,1.729 h -3.7233 v -11.3031 h 3.7264 a 3.9223156,3.9223156 0 0 0 3.2479,1.7296 3.9223156,3.9223156 0 0 0 3.9221,-3.9228 3.9223156,3.9223156 0 0 0 -3.9221,-3.9222 3.9223156,3.9223156 0 0 0 -3.251,1.7296 h -3.7233 v -5.686 c 0,-2.154 1.7342,-3.8881 3.8882,-3.8881 z m 37.175,5.8286 c -0.3903,0 -0.7805,0.1495 -1.0796,0.4485 l -9.7859,9.7865 -3.2738,-3.2737 c -0.598,-0.5981 -1.5614,-0.5981 -2.1596,0 -0.598,0.5981 -0.598,1.5614 0,2.1595 l 4.3532,4.3533 c 0.2617,0.2617 0.5932,0.4085 0.9334,0.4413 0.049,0.01 0.097,0.01 0.1463,0.01 0.049,0 0.098,10e-5 0.1467,-0.01 0.3401,-0.033 0.6716,-0.1796 0.9333,-0.4413 l 10.8655,-10.866 c 0.5981,-0.5981 0.5981,-1.5614 0,-2.1596 -0.2992,-0.299 -0.6892,-0.4485 -1.0795,-0.4485 z m 10.699,3.7062 c -1.804,0 -3.2567,1.4526 -3.2567,3.2567 0,1.804 1.4527,3.2566 3.2567,3.2566 h 9.6025 c 1.804,0 3.2566,-1.4526 3.2566,-3.2566 0,-1.8041 -1.4526,-3.2567 -3.2566,-3.2567 z m -10.699,10.219 c -0.3903,0 -0.7805,0.1495 -1.0796,0.4486 l -9.7859,9.7864 -3.2738,-3.2736 c -0.598,-0.5981 -1.5614,-0.5981 -2.1596,0 -0.598,0.598 -0.598,1.5613 0,2.1595 l 4.3532,4.3532 c 0.2617,0.2617 0.5932,0.4085 0.9334,0.4413 0.049,0.01 0.097,0.01 0.1463,0.01 0.049,0 0.098,2e-4 0.1467,-0.01 0.3401,-0.033 0.6716,-0.1796 0.9333,-0.4413 l 10.8655,-10.866 c 0.5981,-0.5981 0.5981,-1.5613 0,-2.1595 -0.2992,-0.2991 -0.6892,-0.4486 -1.0795,-0.4486 z m 10.699,3.7063 c -1.804,0 -3.2567,1.4525 -3.2567,3.2566 0,1.8041 1.4527,3.2561 3.2567,3.2561 h 9.6025 c 1.804,0 3.2566,-1.452 3.2566,-3.2561 0,-1.8041 -1.4526,-3.2566 -3.2566,-3.2566 z m 38.6627,0.8412 a 5.4923449,4.3997938 45 0 0 -2.7755,1.0925 l -3.1077,3.1078 3.8834,3.8835 3.8834,3.8835 3.1114,-3.1109 a 5.4923449,4.3997938 45 0 0 -0.7724,-6.995 v 0 0 a 5.4923449,4.3997938 45 0 0 -4.2194,-1.865 z m -7.0516,5.3687 -23.302,23.302 7.767,7.7674 23.3023,-23.3024 z m -42.3101,4.0091 c -0.3903,0 -0.7805,0.1495 -1.0796,0.4485 l -9.7859,9.7865 -3.2738,-3.2737 c -0.598,-0.5981 -1.5614,-0.5981 -2.1596,0 -0.598,0.5981 -0.598,1.5614 0,2.1596 l 4.3532,4.3532 c 0.2617,0.2617 0.5932,0.4085 0.9334,0.4413 0.049,0.01 0.097,0.01 0.1463,0.01 0.049,0 0.098,2e-4 0.1467,-0.01 0.3401,-0.033 0.6716,-0.1796 0.9333,-0.4413 l 10.8655,-10.866 c 0.5981,-0.5981 0.5981,-1.5614 0,-2.1596 -0.2992,-0.299 -0.6892,-0.4485 -1.0795,-0.4485 z m 10.699,3.7062 c -1.804,0 -3.2567,1.4526 -3.2567,3.2566 0,1.8041 1.4527,3.2562 3.2567,3.2562 h 9.6025 c 1.804,0 3.2566,-1.4521 3.2566,-3.2562 0,-1.804 -1.4526,-3.2566 -3.2566,-3.2566 z m 7.1437,16.752 -4.4012,8.8025 3.3656,3.3662 8.8031,-4.4013 z m -5.1779,10.3564 -2.5891,5.1785 5.1781,-2.5895 z"
       style="opacity:1;fill:#1877f2;fill-opacity:1;fill-rule:evenodd;stroke:none;stroke-width:0.0260162;stroke-miterlimit:4;stroke-dasharray:none;stroke-opacity:1" />
  </g>
</svg>
