<?xml version="1.0" encoding="UTF-8" standalone="no"?>
<svg
   xmlns:dc="http://purl.org/dc/elements/1.1/"
   xmlns:cc="http://creativecommons.org/ns#"
   xmlns:rdf="http://www.w3.org/1999/02/22-rdf-syntax-ns#"
   xmlns:svg="http://www.w3.org/2000/svg"
   xmlns="http://www.w3.org/2000/svg"
   xmlns:sodipodi="http://sodipodi.sourceforge.net/DTD/sodipodi-0.dtd"
   xmlns:inkscape="http://www.inkscape.org/namespaces/inkscape"
   sodipodi:docname="Question-paper.svg"
   inkscape:version="1.0 (4035a4fb49, 2020-05-01)"
   id="svg8"
   version="1.1"
   viewBox="0 0 88.79302 93.124029"
   height="351.96481"
   width="335.59567">
  <defs
     id="defs2" />
  <sodipodi:namedview
     inkscape:document-rotation="0"
     fit-margin-bottom="2"
     fit-margin-right="2"
     fit-margin-left="2"
     fit-margin-top="2"
     inkscape:window-maximized="1"
     inkscape:window-y="-8"
     inkscape:window-x="-8"
     inkscape:window-height="877"
     inkscape:window-width="1600"
     inkscape:snap-midpoints="true"
     inkscape:snap-smooth-nodes="true"
     inkscape:snap-intersection-paths="true"
     inkscape:object-paths="true"
     inkscape:snap-bbox-midpoints="true"
     inkscape:snap-bbox-edge-midpoints="true"
     inkscape:bbox-nodes="true"
     inkscape:bbox-paths="true"
     inkscape:snap-bbox="true"
     units="px"
     showgrid="false"
     inkscape:current-layer="layer1"
     inkscape:document-units="px"
     inkscape:cy="144.85863"
     inkscape:cx="221.1975"
     inkscape:zoom="1.4075844"
     inkscape:pageshadow="2"
     inkscape:pageopacity="0.0"
     borderopacity="1.0"
     bordercolor="#666666"
     pagecolor="#ffffff"
     id="base" />
  <metadata
     id="metadata5">
    <rdf:RDF>
      <cc:Work
         rdf:about="">
        <dc:format>image/svg+xml</dc:format>
        <dc:type
           rdf:resource="http://purl.org/dc/dcmitype/StillImage" />
        <dc:title />
      </cc:Work>
    </rdf:RDF>
  </metadata>
  <g
     transform="translate(-123.36801,-46.905938)"
     id="layer1"
     inkscape:groupmode="layer"
     inkscape:label="Layer 1">
    <path
       inkscape:connector-curvature="0"
       id="rect815"
       d="m 156.97009,47.435105 a 7.1429162,6.578914 0 0 0 -7.14323,6.578927 h -4.97643 c -3.08742,0 -5.57279,1.665456 -5.57279,3.734657 v 2.377114 3.546555 c 0,3.087418 2.48538,5.572787 5.57279,5.572787 h 24.23934 c 3.08742,0 5.57279,-2.485369 5.57279,-5.572787 v -3.546555 -2.377114 c 0,-2.069201 -2.48537,-3.73466 -5.57279,-3.734657 h -4.97645 a 7.1429162,6.578914 0 0 0 -7.14323,-6.578927 z m 46.51292,0 a 8.1403012,6.9204257 0 0 0 -8.14007,6.91999 v 6.920511 h 8.14007 8.14059 v -6.920511 a 8.1403012,6.9204257 0 0 0 -8.14059,-6.91999 z m -71.61112,12.690698 c -4.41809,0 -7.97471,3.556622 -7.97471,7.974712 V 131.5261 c 0,4.41808 3.55662,7.9747 7.97471,7.9747 h 50.19641 c 4.41807,0 7.97471,-3.55662 7.97471,-7.9747 V 68.100515 c 0,-4.41809 -3.55664,-7.974712 -7.97471,-7.974712 h -3.30005 v 5.142843 c 0,4.477359 -3.60484,8.082189 -8.08219,8.082189 h -27.43192 c -4.47735,0 -8.08219,-3.60483 -8.08219,-8.082189 v -5.142843 z m 63.4633,3.594093 v 48.890564 h 16.29668 V 63.719896 Z m -59.86972,13.682379 c 0.92385,0 1.84749,0.35404 2.5554,1.06195 l 3.40754,3.40754 3.40755,-3.40754 c 1.41582,-1.41581 3.69549,-1.41581 5.11131,0 1.41582,1.41582 1.41582,3.69549 0,5.11131 l -3.40754,3.40754 3.40754,3.40703 c 1.41582,1.41582 1.41582,3.69551 0,5.11132 -1.41582,1.41582 -3.69549,1.41582 -5.11131,0 l -3.40755,-3.40755 -3.40754,3.40755 c -1.41581,1.41582 -3.69549,1.41582 -5.11132,0 -1.41581,-1.41581 -1.41581,-3.6955 0,-5.11132 l 3.40755,-3.40703 -3.40755,-3.40754 c -1.41581,-1.41582 -1.41581,-3.69549 0,-5.11131 0.70792,-0.70791 1.63206,-1.06195 2.55592,-1.06195 z m 27.45,5.61206 h 15.22128 c 2.19869,0 3.96877,1.77005 3.96875,3.96874 0,2.19869 -1.77006,3.96875 -3.96875,3.96875 h -15.22128 c -2.19869,0 -3.96875,-1.77006 -3.96875,-3.96875 0,-2.19869 1.77006,-3.96874 3.96875,-3.96874 z m -14.76241,15.56648 c 0.72932,0 1.45913,0.27937 2.01797,0.838204 1.11767,1.117671 1.11767,2.917211 0,4.034891 l -9.41493,9.41493 c -1.11768,1.11768 -2.91722,1.11768 -4.03489,0 l -4.0349,-4.0349 c -1.11768,-1.11768 -1.11768,-2.91721 0,-4.03489 1.11767,-1.11766 2.91721,-1.11766 4.0349,0 l 2.01744,2.01745 7.39697,-7.397481 c 0.55883,-0.558834 1.28813,-0.838204 2.01744,-0.838204 z m 14.76241,3.594625 h 15.22128 c 2.19869,0 3.96877,1.77007 3.96875,3.96875 0,2.19869 -1.77006,3.96875 -3.96875,3.96875 h -15.22128 c -2.19869,0 -3.96875,-1.77006 -3.96875,-3.96875 0,-2.19868 1.77006,-3.96875 3.96875,-3.96875 z m 32.41972,12.87983 4.61729,13.85238 h 7.06158 l 4.61781,-13.85238 z m -47.18213,2.68666 c 0.72932,0 1.45913,0.27987 2.01797,0.83871 1.11767,1.11768 1.11767,2.91721 0,4.03489 l -9.41493,9.41493 c -1.11768,1.11768 -2.91722,1.11768 -4.03489,0 l -4.0349,-4.03541 c -1.11768,-1.11769 -1.11768,-2.91723 0,-4.0349 1.11767,-1.11767 2.91721,-1.11767 4.0349,0 l 2.01744,2.01744 7.39697,-7.39695 c 0.55883,-0.55884 1.28813,-0.83871 2.01744,-0.83871 z m 14.76241,3.59461 h 15.22128 c 2.19869,0 3.96877,1.77006 3.96875,3.96875 0,2.19868 -1.77006,3.96875 -3.96875,3.96875 h -15.22128 c -2.19869,0 -3.96875,-1.77007 -3.96875,-3.96875 0,-2.19869 1.77006,-3.96875 3.96875,-3.96875 z m 37.85195,10.01541 2.71611,8.14885 2.71612,-8.14885 z"
       style="fill:#fff;fill-opacity:1;fill-rule:evenodd;stroke:none;stroke-width:0.0492752;stroke-miterlimit:4;stroke-dasharray:none;stroke-opacity:1" />
  </g>
</svg>
