<?xml version="1.0" encoding="UTF-8" standalone="no"?>
<svg
   xmlns:dc="http://purl.org/dc/elements/1.1/"
   xmlns:cc="http://creativecommons.org/ns#"
   xmlns:rdf="http://www.w3.org/1999/02/22-rdf-syntax-ns#"
   xmlns:svg="http://www.w3.org/2000/svg"
   xmlns="http://www.w3.org/2000/svg"
   xmlns:sodipodi="http://sodipodi.sourceforge.net/DTD/sodipodi-0.dtd"
   xmlns:inkscape="http://www.inkscape.org/namespaces/inkscape"
   sodipodi:docname="Jobs-Avatar.svg"
   inkscape:version="1.0 (4035a4fb49, 2020-05-01)"
   id="svg8"
   version="1.1"
   viewBox="0 0 36.466499 53.346948"
   height="201.62627"
   width="137.82614">
  <defs
     id="defs2" />
  <sodipodi:namedview
     inkscape:snap-global="true"
     inkscape:document-rotation="0"
     inkscape:window-maximized="1"
     inkscape:window-y="-8"
     inkscape:window-x="-8"
     inkscape:window-height="877"
     inkscape:window-width="1600"
     units="px"
     fit-margin-bottom="0"
     fit-margin-right="0"
     fit-margin-left="0"
     fit-margin-top="0"
     inkscape:snap-bbox-midpoints="true"
     inkscape:snap-bbox-edge-midpoints="true"
     inkscape:bbox-nodes="true"
     inkscape:bbox-paths="true"
     inkscape:snap-bbox="true"
     showgrid="false"
     inkscape:current-layer="layer1"
     inkscape:document-units="px"
     inkscape:cy="99.08414"
     inkscape:cx="27.469945"
     inkscape:zoom="1.4142136"
     inkscape:pageshadow="2"
     inkscape:pageopacity="0.0"
     borderopacity="1.0"
     bordercolor="#666666"
     pagecolor="#ffffff"
     id="base" />
  <metadata
     id="metadata5">
    <rdf:RDF>
      <cc:Work
         rdf:about="">
        <dc:format>image/svg+xml</dc:format>
        <dc:type
           rdf:resource="http://purl.org/dc/dcmitype/StillImage" />
        <dc:title />
      </cc:Work>
    </rdf:RDF>
  </metadata>
  <g
     transform="translate(-192.35476,-150.10505)"
     id="layer1"
     inkscape:groupmode="layer"
     inkscape:label="Layer 1">
    <path
       inkscape:connector-curvature="0"
       id="rect817"
       d="m 210.58775,150.10505 a 9.0737532,9.0737532 0 0 0 -9.07386,9.07335 h -0.81494 c -0.90711,0 -1.63711,0.73 -1.63711,1.63711 0,0.90711 0.73,1.63762 1.63711,1.63762 h 0.76171 c 0.0282,19.57088 18.22645,19.57088 18.25469,0 h 0.7612 c 0.90711,0 1.63711,-0.73051 1.63711,-1.63762 0,-0.90711 -0.73,-1.63711 -1.63711,-1.63711 h -0.81494 a 9.0737532,9.0737532 0 0 0 -9.07386,-9.07335 z m 6.67349,24.38146 c -3.49131,5.72231 -9.85289,5.72297 -13.34491,0.003 a 1.8092122,11.090159 0 0 1 -0.6842,2.60036 1.8092122,11.090159 0 0 0 0.0424,-0.0816 10.479899,1.0051109 45.091758 0 0 7.32047,6.21823 h 0.006 a 1.0051109,10.479899 44.908242 0 0 7.30963,-6.20944 1.8092122,11.090159 0 0 1 -0.64957,-2.53008 z m -14.15158,2.83807 a 1.8092122,11.090159 0 0 1 -0.046,0.0636 1.8092122,11.090159 0 0 0 0.046,-0.0636 z m -0.17828,0.23151 a 1.8092122,11.090159 0 0 1 -0.0424,0.031 1.8092122,11.090159 0 0 0 0.0424,-0.031 z m -0.18346,0.12195 a 1.8092122,11.090159 0 0 1 -0.0382,0.008 1.8092122,11.090159 0 0 0 0.0382,-0.008 z m -0.98133,0.0636 c -0.13343,0.0117 -0.26601,0.026 -0.39791,0.0429 0.13179,-0.0171 0.2647,-0.0307 0.39791,-0.0429 z m 17.71518,0.006 c 0.0779,0.008 0.15563,0.0161 0.23307,0.0253 -0.0775,-0.009 -0.15507,-0.0179 -0.23307,-0.0253 z m -18.23505,0.0527 c -5.03424,0.70682 -8.89196,5.17167 -8.89196,10.61124 v 0.0966 4.2323 10.71149 h 10.29136 7.94163 l -2.76108,-2.76159 1.63556,-14.19396 -0.82785,-1.65623 a 0.27360472,2.3717202 44.907484 0 0 -1.36891,1.74718 10.479902,2.6989087 45.102884 0 1 -0.29249,-0.28836 10.479902,2.6989087 45.102884 0 1 -5.72626,-8.4987 z m 9.34103,25.65166 h 7.94215 10.29136 v -10.71147 -4.23232 -0.0966 c 0,-5.43252 -3.84818,-9.893 -8.87284,-10.60864 a 2.6989087,10.479902 44.897116 0 1 -5.72627,8.49612 2.6989087,10.479902 44.897116 0 1 -0.29249,0.28835 2.3717202,0.27360472 45.092516 0 0 -1.38131,-1.7601 l -0.83458,1.66915 1.63556,14.19397 z m 6.84092,-16.12408 c 0.31094,0 0.56121,0.26698 0.56121,0.59841 v 0.96274 h 3.09593 c 0.34072,0 0.61495,0.27423 0.61495,0.61495 0,0.34073 -0.27423,0.61496 -0.61495,0.61496 h -3.44682 v 0.9529 c 0,0.10243 -0.082,0.18502 -0.18448,0.18502 h -0.0512 c -0.10243,0 -0.185,-0.0826 -0.185,-0.18502 v -0.9529 h -0.35088 c -0.34072,0 -0.61495,-0.27423 -0.61495,-0.61496 0,-0.34072 0.27423,-0.61495 0.61495,-0.61495 v -0.96274 c 0,-0.33143 0.25026,-0.59841 0.5612,-0.59841 z"
       style="fill:#fff;fill-opacity:1;fill-rule:evenodd;stroke:none;stroke-width:0.442169;stroke-miterlimit:4;stroke-dasharray:none;stroke-opacity:1" />
  </g>
</svg>
