<?xml version="1.0" encoding="UTF-8" standalone="no"?>
<svg
   xmlns:dc="http://purl.org/dc/elements/1.1/"
   xmlns:cc="http://creativecommons.org/ns#"
   xmlns:rdf="http://www.w3.org/1999/02/22-rdf-syntax-ns#"
   xmlns:svg="http://www.w3.org/2000/svg"
   xmlns="http://www.w3.org/2000/svg"
   xmlns:sodipodi="http://sodipodi.sourceforge.net/DTD/sodipodi-0.dtd"
   xmlns:inkscape="http://www.inkscape.org/namespaces/inkscape"
   inkscape:version="1.0 (4035a4fb49, 2020-05-01)"
   sodipodi:docname="Result.svg"
   id="svg8"
   version="1.1"
   viewBox="0 0 22.489583 26.458334"
   height="100"
   width="85">
  <defs
     id="defs2" />
  <sodipodi:namedview
     inkscape:snap-global="true"
     inkscape:window-maximized="1"
     inkscape:window-y="-8"
     inkscape:window-x="-8"
     inkscape:window-height="877"
     inkscape:window-width="1600"
     inkscape:snap-midpoints="true"
     inkscape:snap-smooth-nodes="true"
     inkscape:snap-intersection-paths="true"
     inkscape:object-paths="true"
     inkscape:snap-bbox-midpoints="true"
     inkscape:snap-bbox-edge-midpoints="true"
     inkscape:bbox-nodes="true"
     inkscape:bbox-paths="true"
     inkscape:snap-bbox="true"
     units="px"
     showgrid="false"
     inkscape:document-rotation="0"
     inkscape:current-layer="layer1"
     inkscape:document-units="px"
     inkscape:cy="61.103726"
     inkscape:cx="34.0926"
     inkscape:zoom="4"
     inkscape:pageshadow="2"
     inkscape:pageopacity="0.0"
     borderopacity="1.0"
     bordercolor="#666666"
     pagecolor="#ffffff"
     id="base" />
  <metadata
     id="metadata5">
    <rdf:RDF>
      <cc:Work
         rdf:about="">
        <dc:format>image/svg+xml</dc:format>
        <dc:type
           rdf:resource="http://purl.org/dc/dcmitype/StillImage" />
        <dc:title></dc:title>
      </cc:Work>
    </rdf:RDF>
  </metadata>
  <g
     transform="translate(-53.085647,-133.24355)"
     id="layer1"
     inkscape:groupmode="layer"
     inkscape:label="Layer 1">
    <path
       transform="scale(0.26458333)"
       d="m 204.56836,503.59766 c -2.17644,0 -3.92969,1.75129 -3.92969,3.92773 v 92.14258 c 0,2.17644 1.75325,3.92969 3.92969,3.92969 h 56.07031 l 8,-8 9,-9 8,-8 v -71.07227 c 0,-2.17644 -1.75129,-3.92773 -3.92773,-3.92773 z m 7.37109,8 h 62.40039 c 1.8282,0 3.29883,1.47063 3.29883,3.29882 v 63.70118 h -13.07031 c -2.1764,0 -3.92969,1.75328 -3.92969,3.92968 v 13.07032 h -48.69922 c -1.82819,0 -3.30078,-1.47259 -3.30078,-3.30078 v -77.4004 c 0,-1.82819 1.47259,-3.29882 3.30078,-3.29882 z m 40.15821,7.75781 a 13.64143,13.641432 0 0 0 -13.64258,13.64258 13.64143,13.641432 0 0 0 13.64258,13.64062 13.64143,13.641432 0 0 0 8.60937,-3.07226 l 4.83985,4.83984 -0.55274,0.55273 c -0.57433,-0.22894 -1.19757,-0.36132 -1.85547,-0.36132 h -15 c -2.77,0 -5,2.22998 -5,5 0,2.77001 2.23,5 5,5 h 15 c 2.77,0 5,-2.22999 5,-5 0,-0.14286 -0.01,-0.28408 -0.0215,-0.42383 l 3.70508,3.70312 a 2.9391398,2.939 45.148108 0 0 4.15625,0 2.9391398,2.939 45.148108 0 0 0,-4.15625 l -7.37305,-7.37304 -1.09766,1.09765 -4.83984,-4.83789 a 13.64143,13.641432 0 0 0 1.97461,-3.26367 c 2.02526,-0.63864 3.49609,-2.50438 3.49609,-4.74609 0,-2.05337 -1.22978,-3.80468 -2.99219,-4.57618 a 13.64143,13.641432 0 0 0 -13.04882,-9.66601 z m 0,2.77148 a 10.868781,10.868782 0 0 1 9.9375,6.47071 h -0.002 a 10.868781,10.868782 0 0 0 -0.8789,-1.60547 h -18.11133 a 10.868781,10.868782 0 0 0 -0.80859,1.4414 10.868781,10.868782 0 0 1 9.86328,-6.30273 z m -29.9961,3.97071 c -2.1951,0 -3.96289,1.76778 -3.96289,3.96289 v 7.07422 c 0,2.19511 1.76779,3.96289 3.96289,3.96289 h 7.07422 c 2.19509,0 3.96289,-1.76778 3.96289,-3.96289 v -7.07422 c 0,-2.19511 -1.7678,-3.96289 -3.96289,-3.96289 z m 20.12891,2.3457 a 10.868781,10.868782 0 0 0 -0.11133,0.25195 10.868781,10.868782 0 0 1 0.11133,-0.25195 z m -0.21875,0.50781 a 10.868781,10.868782 0 0 0 -0.19141,0.51172 10.868781,10.868782 0 0 1 0.19141,-0.51172 z m -0.57031,1.90625 a 10.868781,10.868782 0 0 0 -0.0801,0.44727 10.868781,10.868782 0 0 1 0.0801,-0.44727 z m -0.21289,2.14649 a 10.868781,10.868782 0 0 0 0.002,0.21093 10.868781,10.868782 0 0 1 -0.002,-0.21093 z m 1.81445,6.00781 h 18.09375 a 10.868781,10.868782 0 0 1 -0.44531,0.61914 l -0.002,-0.002 a 10.868783,10.868784 0 0 1 -0.6914,0.81445 10.868783,10.868784 0 0 1 -0.0117,0.0156 10.868781,10.868782 0 0 1 -0.0117,0.0117 10.868783,10.868784 0 0 1 -0.70703,0.68164 10.868781,10.868782 0 0 1 -0.15625,0.13672 10.868783,10.868784 0 0 1 -0.37695,0.3086 l 0.002,0.002 a 10.868781,10.868782 0 0 1 -6.63867,2.26953 10.868781,10.868782 0 0 1 -9.05469,-4.85742 z m -20.94141,7.08594 c -2.1951,0 -3.96289,1.76781 -3.96289,3.96289 v 7.07422 c 0,2.19503 1.76779,3.96289 3.96289,3.96289 h 7.07422 c 2.19509,0 3.96289,-1.76786 3.96289,-3.96289 v -7.07422 c 0,-2.19508 -1.7678,-3.96289 -3.96289,-3.96289 z m 0,20 c -2.1951,0 -3.96289,1.76781 -3.96289,3.96289 v 7.07422 c 0,2.19511 1.76779,3.96289 3.96289,3.96289 h 7.07422 c 2.19509,0 3.96289,-1.76778 3.96289,-3.96289 v -7.07422 c 0,-2.19508 -1.7678,-3.96289 -3.96289,-3.96289 z m 26.03711,2.5 c -2.77,0 -5,2.22998 -5,5 0,2.76997 2.23,5 5,5 h 15 c 2.77,0 5,-2.23003 5,-5 0,-2.77002 -2.23,-5 -5,-5 z"
       style="opacity:1;fill:#fff;fill-opacity:1;stroke-width:0.866827"
       id="rect904" />
  </g>
</svg>
